<svg width="27" height="27" viewBox="0 0 27 27" fill="none" xmlns="http://www.w3.org/2000/svg">
    <path d="M20.607 12.592a5.21 5.21 0 0 0 2.049-2.804c.103.141.201.288.293.441.63 1.04.968 2.295.968 3.792 0 2.298-.868 3.905-1.75 4.935a7.023 7.023 0 0 1-1.375 1.233v1.905a1.823 1.823 0 0 1-1.823 1.823h-1.302c-.863 0-1.563-.7-1.563-1.563h-2.083c0 .863-.7 1.563-1.563 1.563h-1.302a1.823 1.823 0 0 1-1.822-1.823v-.711a7.237 7.237 0 0 1-.484-.183c-.621-.26-1.434-.7-2.152-1.418a10.276 10.276 0 0 1-1.672-2.22.51.51 0 0 0-.342-.269 1.915 1.915 0 0 1-1.6-1.889v-1.826c0-.878.634-1.627 1.5-1.771.09-.015.224-.105.288-.296.2-.6.589-1.493 1.305-2.21a8.275 8.275 0 0 1 1.727-1.297c.142-.081.273-.151.388-.21v-2.97c0-.977 1.178-1.378 1.812-.746.344.343.844.8 1.397 1.182.552.38 1.08.632 1.515.687a5.208 5.208 0 0 0-.469 3.307c.189.998.952 1.628 1.67 1.925l3.849 1.594c.717.297 1.702.391 2.54-.181zm-11.273-.134a1.042 1.042 0 1 0 0-2.083 1.042 1.042 0 0 0 0 2.083z" fill="url(#osn9bc69fa)"/>
    <path d="M20.02 11.732a4.172 4.172 0 0 0 1.779-2.897 4.167 4.167 0 1 0-8.228.226c.026.136.072.263.135.38.052.097.115.188.188.271.19.22.444.39.72.505l3.85 1.594c.51.212 1.1.232 1.556-.08z" fill="url(#737saiyt1b)"/>
    <defs>
        <linearGradient id="osn9bc69fa" x1="3.083" y1="6.439" x2="23.784" y2="18.968" gradientUnits="userSpaceOnUse">
            <stop stop-color="#B5FDF9"/>
            <stop offset="1" stop-color="#C4B5FD"/>
        </linearGradient>
        <linearGradient id="737saiyt1b" x1="13.499" y1="5.162" x2="21.66" y2="10.237" gradientUnits="userSpaceOnUse">
            <stop stop-color="#B5FDF9"/>
            <stop offset="1" stop-color="#C4B5FD"/>
        </linearGradient>
    </defs>
</svg>
