<svg width="30" height="31" viewBox="0 0 30 31" fill="none" xmlns="http://www.w3.org/2000/svg">
    <rect width="30" height="30" rx="15" fill="#332E46"/>
    <path d="M23.662 12.09a4.267 4.267 0 0 0-.593-6 4.267 4.267 0 0 0-6 .593 4.238 4.238 0 0 0-.947 3.123 4.237 4.237 0 0 0 1.538 2.877 4.24 4.24 0 0 0 2.7.966c.489 0 .976-.085 1.439-.25a6.05 6.05 0 0 1-5.877 7.448 6.03 6.03 0 0 1-3.135-.877c.269-.189.536-.383.796-.583 1.374-1.056 2.57-2.216 3.456-3.35a.963.963 0 1 0-1.517-1.186c-.789 1.009-1.864 2.048-3.113 3.01-.636.489-1.238.897-1.8 1.242-.014.01-.029.017-.043.026-2.39 1.45-4.044 1.682-4.363 1.465-.028-.104-.007-.596.588-1.536.603-.95 1.585-2.031 2.767-3.045l.366-.314-.033-.482a6.047 6.047 0 0 1 3.602-5.95.961.961 0 0 0 .494-1.269.961.961 0 0 0-1.269-.493 7.974 7.974 0 0 0-4.77 7.299v.057c-2.418 2.17-4.615 5.166-3.278 6.907.435.564 1.1.81 1.906.81 1.255 0 2.85-.595 4.439-1.488a7.936 7.936 0 0 0 4.902 1.686c4.393 0 7.967-3.574 7.967-7.967a7.9 7.9 0 0 0-.406-2.511c.069-.074.127-.14.184-.208zm-4.778-.898a2.328 2.328 0 0 1-.844-1.578 2.336 2.336 0 0 1 3.81-2.039 2.341 2.341 0 0 1 .326 3.291 2.342 2.342 0 0 1-3.292.326z" fill="#fff"/>
</svg>
