<svg width="20" height="20" viewBox="0 0 20 20" fill="none" xmlns="http://www.w3.org/2000/svg">
    <g clip-path="url(#prov42ei8a)">
        <path d="M16.192 10.817A6.48 6.48 0 0 0 16.25 10c0-.283-.025-.55-.058-.817l1.758-1.375a.42.42 0 0 0 .1-.533l-1.666-2.883a.416.416 0 0 0-.509-.184l-2.075.834a6.089 6.089 0 0 0-1.408-.817l-.317-2.208a.406.406 0 0 0-.408-.35H8.334a.406.406 0 0 0-.409.35L7.61 4.225a6.402 6.402 0 0 0-1.409.817l-2.075-.834a.472.472 0 0 0-.15-.025.413.413 0 0 0-.358.209L1.95 7.275a.41.41 0 0 0 .1.533L3.81 9.183A6.607 6.607 0 0 0 3.75 10c0 .275.025.55.059.817L2.05 12.192a.42.42 0 0 0-.1.533l1.667 2.883a.416.416 0 0 0 .508.184l2.075-.834c.434.334.9.609 1.409.817l.316 2.208c.025.2.2.35.409.35h3.333c.208 0 .383-.15.408-.35l.317-2.208a6.406 6.406 0 0 0 1.408-.817l2.075.834c.05.016.1.025.15.025a.413.413 0 0 0 .359-.209l1.666-2.883a.42.42 0 0 0-.1-.533l-1.758-1.375zm-1.65-1.425c.033.258.042.433.042.608s-.017.358-.042.608l-.117.942.742.583.9.7-.583 1.009-1.059-.425-.866-.35-.75.566c-.359.267-.7.467-1.042.609l-.883.358-.134.942-.166 1.125H9.417l-.158-1.125-.134-.942-.883-.358a4.728 4.728 0 0 1-1.025-.592l-.758-.583-.884.358-1.058.425-.583-1.008.9-.7.741-.584-.116-.941A6.703 6.703 0 0 1 5.417 10c0-.167.017-.358.042-.608l.116-.942-.741-.583-.9-.7.583-1.009 1.058.425.867.35.75-.566a4.88 4.88 0 0 1 1.042-.609l.883-.358.133-.942.167-1.125h1.158l.159 1.125.133.942.883.358c.359.15.692.342 1.025.592l.759.583.883-.358 1.058-.425.584 1.008-.892.709-.742.583.117.942zM10 6.667a3.332 3.332 0 1 0 0 6.666 3.332 3.332 0 1 0 0-6.666zm0 5c-.916 0-1.666-.75-1.666-1.667S9.084 8.333 10 8.333c.917 0 1.667.75 1.667 1.667s-.75 1.667-1.667 1.667z" fill="#C5C7D9"/>
    </g>
    <defs>
        <clipPath id="prov42ei8a">
            <path fill="#fff" d="M0 0h20v20H0z"/>
        </clipPath>
    </defs>
</svg>
