<svg width="20" height="20" viewBox="0 0 20 20" fill="none" xmlns="http://www.w3.org/2000/svg">
    <g clip-path="url(#adezazsi2a)">
        <path d="M16.192 10.816c.033-.266.058-.533.058-.816 0-.284-.025-.55-.058-.817l1.758-1.375a.42.42 0 0 0 .1-.533L16.383 4.39a.416.416 0 0 0-.508-.183l-2.075.833a6.089 6.089 0 0 0-1.409-.816l-.316-2.208a.406.406 0 0 0-.409-.35H8.333a.406.406 0 0 0-.408.35l-.317 2.208a6.402 6.402 0 0 0-1.408.817l-2.075-.834a.472.472 0 0 0-.15-.025.413.413 0 0 0-.358.208L1.95 7.275a.41.41 0 0 0 .1.533l1.758 1.375A6.61 6.61 0 0 0 3.75 10c0 .275.025.55.058.816L2.05 12.191a.42.42 0 0 0-.1.534l1.667 2.883a.416.416 0 0 0 .508.183l2.075-.833c.433.333.9.608 1.408.817l.317 2.208c.025.2.2.35.408.35h3.333c.209 0 .384-.15.409-.35l.317-2.208a6.401 6.401 0 0 0 1.408-.817l2.075.833c.05.017.1.025.15.025a.413.413 0 0 0 .358-.208l1.667-2.883a.42.42 0 0 0-.1-.534l-1.758-1.375zm-1.65-1.425c.033.259.041.434.041.609s-.017.358-.042.608l-.116.942.741.583.9.7-.583 1.008-1.058-.425-.867-.35-.75.567c-.358.267-.7.467-1.041.609l-.884.358-.133.941-.167 1.125H9.417l-.159-1.125-.133-.941-.883-.358a4.729 4.729 0 0 1-1.025-.592l-.759-.584-.883.359-1.058.425-.584-1.008.9-.7.742-.584-.117-.941A6.703 6.703 0 0 1 5.417 10c0-.167.016-.358.041-.608l.117-.942-.742-.583-.9-.7.584-1.009 1.058.425.867.35.75-.566c.358-.267.7-.467 1.041-.609l.884-.358.133-.942.167-1.125h1.158l.158 1.125.133.942.884.358c.358.15.691.342 1.025.592l.758.583.883-.358 1.059-.425.583 1.008-.892.708-.741.584.116.942zM10 6.668a3.332 3.332 0 1 0 0 6.666 3.332 3.332 0 1 0 0-6.667zm0 5c-.917 0-1.667-.75-1.667-1.667S9.083 8.333 10 8.333c.916 0 1.666.75 1.666 1.667 0 .916-.75 1.666-1.666 1.666z" fill="#8988A3"/>
    </g>
    <defs>
        <clipPath id="adezazsi2a">
            <path fill="#fff" d="M0 0h20v20H0z"/>
        </clipPath>
    </defs>
</svg>
