<svg width="20" height="21" viewBox="0 0 20 21" fill="none" xmlns="http://www.w3.org/2000/svg">
    <g clip-path="url(#8dzfzfnipa)">
        <path d="M16.192 11.316c.033-.266.058-.533.058-.816 0-.284-.025-.55-.058-.817l1.758-1.375a.42.42 0 0 0 .1-.533L16.384 4.89a.416.416 0 0 0-.509-.183l-2.075.833a6.089 6.089 0 0 0-1.408-.816l-.317-2.208a.406.406 0 0 0-.408-.35H8.334a.406.406 0 0 0-.409.35L7.61 4.725a6.402 6.402 0 0 0-1.409.817l-2.075-.834a.472.472 0 0 0-.15-.025.413.413 0 0 0-.358.208L1.95 7.775a.41.41 0 0 0 .1.533L3.81 9.683a6.607 6.607 0 0 0-.059.817c0 .275.025.55.059.816L2.05 12.691a.42.42 0 0 0-.1.534l1.667 2.883a.416.416 0 0 0 .508.183l2.075-.833c.434.333.9.609 1.409.817l.316 2.208c.025.2.2.35.409.35h3.333c.208 0 .383-.15.408-.35l.317-2.208a6.401 6.401 0 0 0 1.408-.817l2.075.833a.413.413 0 0 0 .508-.183l1.667-2.883a.42.42 0 0 0-.1-.534l-1.758-1.375zm-1.65-1.425c.033.259.042.434.042.609s-.017.358-.042.608l-.117.942.742.583.9.7-.583 1.008-1.059-.425-.866-.35-.75.567c-.359.267-.7.467-1.042.609l-.883.358-.134.941-.166 1.125H9.417l-.158-1.125-.134-.941-.883-.358a4.728 4.728 0 0 1-1.025-.592l-.758-.584-.884.359-1.058.425-.583-1.008.9-.7.741-.584-.116-.941a6.703 6.703 0 0 1-.042-.617c0-.167.017-.358.042-.608l.116-.942-.741-.583-.9-.7.583-1.009 1.058.425.867.35.75-.566a4.88 4.88 0 0 1 1.042-.609l.883-.358.133-.942.167-1.125h1.158l.159 1.125.133.942.883.358c.359.15.692.342 1.025.592l.759.583.883-.358 1.058-.425.584 1.008-.892.708-.742.584.117.942zM10 7.168a3.332 3.332 0 1 0 0 6.666 3.332 3.332 0 1 0 0-6.667zm0 5c-.916 0-1.666-.75-1.666-1.667S9.084 8.833 10 8.833c.917 0 1.667.75 1.667 1.667 0 .916-.75 1.666-1.667 1.666z" fill="rgb(137, 136, 163)"/>
    </g>
    <defs>
        <clipPath id="8dzfzfnipa">
            <path fill="#fff" transform="translate(0 .5)" d="M0 0h20v20H0z"/>
        </clipPath>
    </defs>
</svg>
