<svg width="17" height="21" viewBox="0 0 17 21" fill="none" xmlns="http://www.w3.org/2000/svg">
    <g clip-path="url(#xolfa4hqna)">
        <path d="M14.627 16.71a2.6 2.6 0 0 1-.665 1.746.04.04 0 0 0 .04.067c1.181-.291 2.137-1.3 2.137-2.626V9.025c0-2.031-1.135-3.908-2.977-4.924L5.725 0 4.252.834l7.398 4.08c1.842 1.015 2.977 2.892 2.977 4.923v6.872z" fill="url(#b36nt7tb4b)"/>
        <path d="M14.627 16.71a2.6 2.6 0 0 1-.665 1.746.04.04 0 0 0 .04.067c1.181-.291 2.137-1.3 2.137-2.626V9.025c0-2.031-1.135-3.908-2.977-4.924L5.725 0 4.252.834l7.398 4.08c1.842 1.015 2.977 2.892 2.977 4.923v6.872z" fill="url(#nssjeko9vc)"/>
        <path d="M14.627 16.71a2.6 2.6 0 0 1-.665 1.746.04.04 0 0 0 .04.067c1.181-.291 2.137-1.3 2.137-2.626V9.025c0-2.031-1.135-3.908-2.977-4.924L5.725 0 4.252.834l7.398 4.08c1.842 1.015 2.977 2.892 2.977 4.923v6.872z" fill="url(#uwk6b3cxpd)" fill-opacity=".2"/>
        <path d="M14.627 16.71a2.6 2.6 0 0 1-.665 1.746.04.04 0 0 0 .04.067c1.181-.291 2.137-1.3 2.137-2.626V9.025c0-2.031-1.135-3.908-2.977-4.924L5.725 0 4.252.834l7.398 4.08c1.842 1.015 2.977 2.892 2.977 4.923v6.872z" fill="url(#0cghwcgg3e)" fill-opacity=".1"/>
        <path d="M14.627 16.71a2.6 2.6 0 0 1-.665 1.746.04.04 0 0 0 .04.067c1.181-.291 2.137-1.3 2.137-2.626V9.025c0-2.031-1.135-3.908-2.977-4.924L5.725 0 4.252.834l7.398 4.08c1.842 1.015 2.977 2.892 2.977 4.923v6.872z" fill="url(#uy3wq87wqf)" fill-opacity=".2"/>
        <path d="M12.548 17.882v-6.871c0-2.032-1.135-3.909-2.977-4.924l-7.398-4.08 1.473-.834 7.437 4.101c1.842 1.016 2.977 2.893 2.977 4.924v6.872c0 1.326-.956 2.335-2.137 2.626a.04.04 0 0 1-.05-.048.042.042 0 0 1 .01-.02 2.6 2.6 0 0 0 .665-1.746z" fill="url(#43bzb9zy9g)"/>
        <path d="M12.548 17.882v-6.871c0-2.032-1.135-3.909-2.977-4.924l-7.398-4.08 1.473-.834 7.437 4.101c1.842 1.016 2.977 2.893 2.977 4.924v6.872c0 1.326-.956 2.335-2.137 2.626a.04.04 0 0 1-.05-.048.042.042 0 0 1 .01-.02 2.6 2.6 0 0 0 .665-1.746z" fill="url(#ftwckq485h)"/>
        <path d="M12.548 17.882v-6.871c0-2.032-1.135-3.909-2.977-4.924l-7.398-4.08 1.473-.834 7.437 4.101c1.842 1.016 2.977 2.893 2.977 4.924v6.872c0 1.326-.956 2.335-2.137 2.626a.04.04 0 0 1-.05-.048.042.042 0 0 1 .01-.02 2.6 2.6 0 0 0 .665-1.746z" fill="url(#yco573283i)" fill-opacity=".2"/>
        <path d="M12.548 17.882v-6.871c0-2.032-1.135-3.909-2.977-4.924l-7.398-4.08 1.473-.834 7.437 4.101c1.842 1.016 2.977 2.893 2.977 4.924v6.872c0 1.326-.956 2.335-2.137 2.626a.04.04 0 0 1-.05-.048.042.042 0 0 1 .01-.02 2.6 2.6 0 0 0 .665-1.746z" fill="url(#mveem874tj)" fill-opacity=".1"/>
        <path d="M12.548 17.882v-6.871c0-2.032-1.135-3.909-2.977-4.924l-7.398-4.08 1.473-.834 7.437 4.101c1.842 1.016 2.977 2.893 2.977 4.924v6.872c0 1.326-.956 2.335-2.137 2.626a.04.04 0 0 1-.05-.048.042.042 0 0 1 .01-.02 2.6 2.6 0 0 0 .665-1.746z" fill="url(#vem95wx3ik)" fill-opacity=".2"/>
        <path fill-rule="evenodd" clip-rule="evenodd" d="m0 3.236 1.492-.844 7.437 4.1c1.842 1.016 2.977 2.893 2.977 4.925v6.905c-.026 2.065-2.373 3.348-4.252 2.311l-6.74-3.717-.914-.49V3.236zm10.394 9.014v3.99l-5.008-2.762V6.206l2.031 1.12c1.842 1.016 2.977 2.893 2.977 4.924zM3.496 5.164l.756.417v8.522l.08.043 6.062 3.343v.771l-6.888-3.798-.01.005V5.164zm-1.228-.677v10.636l.035.02-.035.02 8.117 4.476c-.068.357-.495.56-.842.369l-8.031-4.43V4.07l.756.417z" fill="url(#rret0fmtgl)"/>
        <path fill-rule="evenodd" clip-rule="evenodd" d="m0 3.236 1.492-.844 7.437 4.1c1.842 1.016 2.977 2.893 2.977 4.925v6.905c-.026 2.065-2.373 3.348-4.252 2.311l-6.74-3.717-.914-.49V3.236zm10.394 9.014v3.99l-5.008-2.762V6.206l2.031 1.12c1.842 1.016 2.977 2.893 2.977 4.924zM3.496 5.164l.756.417v8.522l.08.043 6.062 3.343v.771l-6.888-3.798-.01.005V5.164zm-1.228-.677v10.636l.035.02-.035.02 8.117 4.476c-.068.357-.495.56-.842.369l-8.031-4.43V4.07l.756.417z" fill="url(#soscmeeb4m)"/>
        <path fill-rule="evenodd" clip-rule="evenodd" d="m0 3.236 1.492-.844 7.437 4.1c1.842 1.016 2.977 2.893 2.977 4.925v6.905c-.026 2.065-2.373 3.348-4.252 2.311l-6.74-3.717-.914-.49V3.236zm10.394 9.014v3.99l-5.008-2.762V6.206l2.031 1.12c1.842 1.016 2.977 2.893 2.977 4.924zM3.496 5.164l.756.417v8.522l.08.043 6.062 3.343v.771l-6.888-3.798-.01.005V5.164zm-1.228-.677v10.636l.035.02-.035.02 8.117 4.476c-.068.357-.495.56-.842.369l-8.031-4.43V4.07l.756.417z" fill="url(#1mg5mzicxn)" fill-opacity=".2"/>
        <path fill-rule="evenodd" clip-rule="evenodd" d="m0 3.236 1.492-.844 7.437 4.1c1.842 1.016 2.977 2.893 2.977 4.925v6.905c-.026 2.065-2.373 3.348-4.252 2.311l-6.74-3.717-.914-.49V3.236zm10.394 9.014v3.99l-5.008-2.762V6.206l2.031 1.12c1.842 1.016 2.977 2.893 2.977 4.924zM3.496 5.164l.756.417v8.522l.08.043 6.062 3.343v.771l-6.888-3.798-.01.005V5.164zm-1.228-.677v10.636l.035.02-.035.02 8.117 4.476c-.068.357-.495.56-.842.369l-8.031-4.43V4.07l.756.417z" fill="url(#9udxpvqkfo)" fill-opacity=".1"/>
        <path fill-rule="evenodd" clip-rule="evenodd" d="m0 3.236 1.492-.844 7.437 4.1c1.842 1.016 2.977 2.893 2.977 4.925v6.905c-.026 2.065-2.373 3.348-4.252 2.311l-6.74-3.717-.914-.49V3.236zm10.394 9.014v3.99l-5.008-2.762V6.206l2.031 1.12c1.842 1.016 2.977 2.893 2.977 4.924zM3.496 5.164l.756.417v8.522l.08.043 6.062 3.343v.771l-6.888-3.798-.01.005V5.164zm-1.228-.677v10.636l.035.02-.035.02 8.117 4.476c-.068.357-.495.56-.842.369l-8.031-4.43V4.07l.756.417z" fill="url(#pna4kzznwp)" fill-opacity=".2"/>
    </g>
    <defs>
        <linearGradient id="b36nt7tb4b" x1="-.269" y1="10.5" x2="15.959" y2="9.049" gradientUnits="userSpaceOnUse">
            <stop stop-color="#FF3873"/>
            <stop offset=".474" stop-color="#711EFF"/>
            <stop offset="1" stop-color="#3FE5FF"/>
        </linearGradient>
        <linearGradient id="nssjeko9vc" x1="1" y1=".966" x2="12.33" y2="10.591" gradientUnits="userSpaceOnUse">
            <stop stop-color="#F6F063"/>
            <stop offset="1" stop-color="#E07774" stop-opacity="0"/>
        </linearGradient>
        <linearGradient id="uy3wq87wqf" x1="1.848" y1="5.833" x2="10.255" y2="8.801" gradientUnits="userSpaceOnUse">
            <stop stop-color="#fff"/>
            <stop offset="1" stop-opacity="0"/>
        </linearGradient>
        <linearGradient id="43bzb9zy9g" x1="-.269" y1="10.5" x2="15.959" y2="9.049" gradientUnits="userSpaceOnUse">
            <stop stop-color="#FF3873"/>
            <stop offset=".474" stop-color="#711EFF"/>
            <stop offset="1" stop-color="#3FE5FF"/>
        </linearGradient>
        <linearGradient id="ftwckq485h" x1="1" y1=".967" x2="12.329" y2="10.591" gradientUnits="userSpaceOnUse">
            <stop stop-color="#F6F063"/>
            <stop offset="1" stop-color="#E07774" stop-opacity="0"/>
        </linearGradient>
        <linearGradient id="vem95wx3ik" x1="1.847" y1="5.833" x2="10.255" y2="8.801" gradientUnits="userSpaceOnUse">
            <stop stop-color="#fff"/>
            <stop offset="1" stop-opacity="0"/>
        </linearGradient>
        <linearGradient id="rret0fmtgl" x1="-.269" y1="10.5" x2="15.959" y2="9.049" gradientUnits="userSpaceOnUse">
            <stop stop-color="#FF3873"/>
            <stop offset=".474" stop-color="#711EFF"/>
            <stop offset="1" stop-color="#3FE5FF"/>
        </linearGradient>
        <linearGradient id="soscmeeb4m" x1="1" y1=".966" x2="12.329" y2="10.591" gradientUnits="userSpaceOnUse">
            <stop stop-color="#F6F063"/>
            <stop offset="1" stop-color="#E07774" stop-opacity="0"/>
        </linearGradient>
        <linearGradient id="pna4kzznwp" x1="1.847" y1="5.833" x2="10.255" y2="8.801" gradientUnits="userSpaceOnUse">
            <stop stop-color="#fff"/>
            <stop offset="1" stop-opacity="0"/>
        </linearGradient>
        <radialGradient id="uwk6b3cxpd" cx="0" cy="0" r="1" gradientUnits="userSpaceOnUse" gradientTransform="matrix(1.94454 4.28353 -3.6759 1.6687 .426 7.382)">
            <stop offset=".926" stop-color="#fff"/>
            <stop offset="1" stop-color="#fff" stop-opacity="0"/>
        </radialGradient>
        <radialGradient id="0cghwcgg3e" cx="0" cy="0" r="1" gradientUnits="userSpaceOnUse" gradientTransform="matrix(1.53772 2.55944 -3.4956 2.10017 2.77 5.435)">
            <stop offset=".086" stop-color="#fff"/>
            <stop offset=".941" stop-color="#fff" stop-opacity="0"/>
        </radialGradient>
        <radialGradient id="yco573283i" cx="0" cy="0" r="1" gradientUnits="userSpaceOnUse" gradientTransform="matrix(1.94454 4.28353 -3.6759 1.6687 .425 7.382)">
            <stop offset=".926" stop-color="#fff"/>
            <stop offset="1" stop-color="#fff" stop-opacity="0"/>
        </radialGradient>
        <radialGradient id="mveem874tj" cx="0" cy="0" r="1" gradientUnits="userSpaceOnUse" gradientTransform="matrix(1.53772 2.55944 -3.4956 2.10017 2.77 5.435)">
            <stop offset=".086" stop-color="#fff"/>
            <stop offset=".941" stop-color="#fff" stop-opacity="0"/>
        </radialGradient>
        <radialGradient id="1mg5mzicxn" cx="0" cy="0" r="1" gradientUnits="userSpaceOnUse" gradientTransform="matrix(1.94454 4.28353 -3.6759 1.6687 .425 7.382)">
            <stop offset=".926" stop-color="#fff"/>
            <stop offset="1" stop-color="#fff" stop-opacity="0"/>
        </radialGradient>
        <radialGradient id="9udxpvqkfo" cx="0" cy="0" r="1" gradientUnits="userSpaceOnUse" gradientTransform="matrix(1.53772 2.55944 -3.4956 2.10017 2.77 5.435)">
            <stop offset=".086" stop-color="#fff"/>
            <stop offset=".941" stop-color="#fff" stop-opacity="0"/>
        </radialGradient>
        <clipPath id="xolfa4hqna">
            <path fill="#fff" d="M0 0h16.188v21H0z"/>
        </clipPath>
    </defs>
</svg>
