<svg width="18" height="19" viewBox="0 0 18 19" fill="none" xmlns="http://www.w3.org/2000/svg">
    <g clip-path="url(#cyw4n2srka)" stroke="#C5C7D9" stroke-width=".625" stroke-linecap="round" stroke-linejoin="round">
        <path d="M9 17.75a8.25 8.25 0 1 0 0-16.5 8.25 8.25 0 0 0 0 16.5z"/>
        <path d="M10.875 13.25H9.75A.75.75 0 0 1 9 12.5V7.625a.375.375 0 0 0-.375-.375H7.5M8.809 5.375a.188.188 0 1 0 0 .375.188.188 0 0 0 0-.375z"/>
    </g>
    <defs>
        <clipPath id="cyw4n2srka">
            <path fill="#fff" transform="translate(0 .5)" d="M0 0h18v18H0z"/>
        </clipPath>
    </defs>
</svg>
