<svg width="14" height="14" viewBox="0 0 14 14" fill="none" xmlns="http://www.w3.org/2000/svg">
    <g clip-path="url(#j3hsi1yjxa)">
        <path d="M6.3 11.2h1.4V9.8H6.3v1.4zM7 0C3.136 0 0 3.136 0 7s3.136 7 7 7 7-3.136 7-7-3.136-7-7-7zm0 12.6A5.607 5.607 0 0 1 1.4 7c0-3.087 2.513-5.6 5.6-5.6 3.087 0 5.6 2.513 5.6 5.6 0 3.087-2.513 5.6-5.6 5.6zm0-9.8a2.8 2.8 0 0 0-2.8 2.8h1.4c0-.77.63-1.4 1.4-1.4.77 0 1.4.63 1.4 1.4 0 1.4-2.1 1.225-2.1 3.5h1.4c0-1.575 2.1-1.75 2.1-3.5A2.8 2.8 0 0 0 7 2.8z" fill="#b5fdf9"/>
        <path d="M6.3 11.2h1.4V9.8H6.3v1.4zM7 0C3.136 0 0 3.136 0 7s3.136 7 7 7 7-3.136 7-7-3.136-7-7-7zm0 12.6A5.607 5.607 0 0 1 1.4 7c0-3.087 2.513-5.6 5.6-5.6 3.087 0 5.6 2.513 5.6 5.6 0 3.087-2.513 5.6-5.6 5.6zm0-9.8a2.8 2.8 0 0 0-2.8 2.8h1.4c0-.77.63-1.4 1.4-1.4.77 0 1.4.63 1.4 1.4 0 1.4-2.1 1.225-2.1 3.5h1.4c0-1.575 2.1-1.75 2.1-3.5A2.8 2.8 0 0 0 7 2.8z" fill="#fff" fill-opacity=".5"/>
    </g>
    <defs>
        <clipPath id="j3hsi1yjxa">
            <path fill="#fff" d="M0 0h14v14H0z"/>
        </clipPath>
    </defs>
</svg>
