<svg width="115" height="30" viewBox="0 0 115 30" fill="none" xmlns="http://www.w3.org/2000/svg">
<path d="M33.0036 11.8401C35.54 8.74975 35.0881 4.17562 31.9943 1.6404C28.9005 -0.893099 24.3212 -0.441738 21.7831 2.64688C20.5539 4.14277 19.9826 6.02948 20.173 7.95598C20.3634 9.88248 21.2932 11.6187 22.7925 12.8466C24.1394 13.9499 25.7685 14.4877 27.3873 14.4877C28.2201 14.4877 29.0476 14.3442 29.8354 14.064C30.0206 14.8405 30.1176 15.6395 30.1176 16.4523C30.1176 22.1176 25.5037 26.7263 19.8319 26.7263C17.9292 26.7263 16.0923 26.2041 14.4978 25.2356C14.9566 24.914 15.4085 24.5837 15.85 24.2447C18.1889 22.4479 20.2232 20.4799 21.7329 18.55C22.2904 17.8375 22.164 16.8103 21.4507 16.2534C20.7374 15.6966 19.709 15.8228 19.1515 16.5353C17.8098 18.2508 15.9781 20.0182 13.8538 21.649C12.7735 22.4791 11.7485 23.1777 10.7911 23.7605C10.7669 23.7761 10.7426 23.7864 10.7201 23.8037C6.65333 26.2715 3.83825 26.6641 3.29462 26.2923C3.24441 26.1142 3.28077 25.2789 4.29531 23.6827C5.32197 22.0657 6.9944 20.2274 9.0027 18.5067L9.62596 17.9724L9.57056 17.1544C9.55498 16.9227 9.54632 16.6857 9.54632 16.4523C9.54632 12.3745 11.9632 8.67885 15.7028 7.03943C16.5321 6.67626 16.9078 5.71129 16.5442 4.88293C16.1806 4.05457 15.2146 3.6793 14.3853 4.04246C9.45456 6.20415 6.26899 11.0757 6.26899 16.4523C6.26899 16.4834 6.26899 16.5163 6.26899 16.5474C2.15197 20.2395 -1.58589 25.3308 0.690759 28.2897C1.43002 29.2512 2.56228 29.6662 3.93347 29.6662C6.06815 29.6662 8.78109 28.6563 11.4888 27.1345C13.8642 28.9901 16.7831 30 19.8302 30C27.3094 30 33.3932 23.9231 33.3932 16.4523C33.3932 14.9841 33.1594 13.5539 32.7024 12.1825C32.8045 12.0718 32.9049 11.9594 33.0036 11.8401ZM24.87 10.3165C24.0476 9.64382 23.5386 8.69096 23.433 7.63432C23.3291 6.57769 23.6425 5.54354 24.316 4.72383C25.102 3.7675 26.2447 3.27117 27.396 3.27117C28.2841 3.27117 29.1775 3.56516 29.915 4.17044C31.6117 5.56083 31.8592 8.07012 30.4673 9.76488C29.0788 11.4596 26.5667 11.7069 24.87 10.3165Z" fill="white"/>
<path d="M43.9541 12.6385C42.2315 12.6385 41.1685 14.0064 41.1685 16.0332V22.8693H39.3281V11.1529H40.933L41.0508 12.59H41.1927C41.6879 11.5766 42.8686 10.916 44.3316 10.916C45.7703 10.916 47.1155 11.5766 47.6591 12.7318H47.8011C48.5559 11.5766 49.8076 10.916 51.3641 10.916C53.8415 10.916 55.4465 12.6367 55.4465 15.395V22.8676H53.6061V15.6302C53.6061 13.6968 52.5673 12.6367 51.0109 12.6367C49.2415 12.6367 48.2962 13.9337 48.2962 16.0314V22.8676H46.4559V15.6544C46.4559 13.7228 45.4881 12.6385 43.9541 12.6385Z" fill="white"/>
<path d="M57.0977 19.7586C57.0977 17.3548 59.1752 16.0111 62.9269 15.7275L64.4366 15.6099V15.162C64.4366 13.5589 63.5398 12.5922 61.9349 12.5922C60.5429 12.5922 59.5042 13.3462 59.2687 14.5965H57.3799C57.5461 12.4521 59.4332 10.9199 61.9591 10.9199C64.5543 10.9199 66.2545 12.5697 66.2545 15.1862V20.6077C66.2545 21.2199 66.5851 21.5744 67.1755 21.5744C67.3175 21.5744 67.4352 21.5502 67.6482 21.5035L67.8369 22.8715C67.5772 22.989 67.1755 23.0357 66.8223 23.0357C65.5949 23.0357 64.769 22.3284 64.6271 21.1974V21.1732H64.4851C63.6818 22.4218 62.385 23.1066 60.7801 23.1066C58.5848 23.1049 57.0977 21.7612 57.0977 19.7586ZM60.9913 21.4309C62.9979 21.4309 64.4366 19.8278 64.4366 17.4949V17.0712L62.8784 17.1888C60.401 17.4015 59.0073 18.2489 59.0073 19.7119C59.009 20.7478 59.7171 21.4309 60.9913 21.4309Z" fill="white"/>
<path d="M68.8965 11.1535H70.5014L70.5966 12.85H70.7386C71.3515 11.6948 72.5789 11.0117 74.1839 11.0117C74.3968 11.0117 74.6323 11.0359 74.8452 11.0826V12.9451C74.5613 12.8984 74.4435 12.8984 74.1613 12.8984C71.9903 12.8984 70.7386 14.4064 70.7386 17.0005V22.8699H68.8982V11.1535H68.8965Z" fill="white"/>
<path d="M85.9102 17.0001C85.9102 13.4878 88.2941 10.918 91.6684 10.918C94.7363 10.918 97.0251 13.1108 97.0251 16.528C97.0251 16.7874 97.0008 17.1402 96.9541 17.4238H87.844C87.986 19.8276 89.5199 21.384 91.6909 21.384C93.2249 21.384 94.5943 20.6058 94.9475 19.5215H96.8589C96.4104 21.6192 94.3104 23.1047 91.7134 23.1047C88.3184 23.1047 85.9102 20.5591 85.9102 17.0001ZM95.067 15.9158C94.9492 13.9824 93.604 12.6387 91.6927 12.6387C89.7813 12.6387 88.2699 13.9824 87.9167 15.9158H95.067Z" fill="white"/>
<path d="M99.8579 19.9463V12.8041H97.5449V11.1543H98.0643C99.3628 11.1543 99.9047 10.4712 99.9999 8.98569L100.071 7.71289H101.7V11.1543H104.437V12.8041H101.698V19.8045C101.698 20.8179 102.36 21.4543 103.303 21.4543C103.634 21.4543 103.987 21.3834 104.318 21.2658L104.624 22.798C104.176 22.9865 103.727 23.1041 103.115 23.1041C101.201 23.1041 99.8579 21.9973 99.8579 19.9463Z" fill="white"/>
<path d="M105.212 19.2861H107.123C107.265 20.6056 108.162 21.4547 109.86 21.4547C111.11 21.4547 112.198 20.9601 112.198 19.8274C112.198 18.9782 111.703 18.3661 110.357 17.9648L108.706 17.4927C106.606 16.903 105.591 15.7253 105.591 14.2156C105.591 12.2113 107.385 10.916 109.698 10.916C112.035 10.916 113.687 12.2839 113.829 14.1931H111.917C111.751 13.2022 110.878 12.5191 109.628 12.5191C108.425 12.5191 107.504 13.1797 107.504 14.2156C107.504 14.9938 108.024 15.5126 109.462 15.9121L111.114 16.36C113.12 16.9497 114.111 18.1274 114.111 19.708C114.111 21.8057 112.293 23.1027 109.84 23.1027C107.147 23.1045 105.307 21.5256 105.212 19.2861Z" fill="white"/>
<path d="M83.2928 11.1539L78.1474 16.1984H78.0054V6.89453H76.165V22.8703H78.0054V18.744L79.799 16.9766L83.6702 22.8703H85.817L81.12 15.728L85.817 11.1539H83.2928Z" fill="white"/>
</svg>
