<svg width="73" height="24" viewBox="0 0 73 24" fill="none" xmlns="http://www.w3.org/2000/svg">
    <g clip-path="url(#uek0wkkhba)" fill="#fff">
        <path d="M30.254 13.562c0-2.84 1.952-4.916 4.734-4.916 2.302 0 4.07 1.42 4.31 3.514h-2.191c-.222-.935-1.05-1.551-2.118-1.551-1.51 0-2.56 1.233-2.56 2.953 0 1.72 1.05 2.954 2.56 2.954 1.07 0 1.898-.618 2.118-1.533h2.191c-.24 2.074-2.008 3.494-4.31 3.494-2.782.002-4.734-2.074-4.734-4.915zM40.292 5.498h2.1v12.758h-2.1V5.498zM43.589 13.562c0-2.785 2.063-4.916 4.825-4.916 2.744 0 4.807 2.13 4.807 4.916 0 2.784-2.063 4.915-4.806 4.915-2.763.002-4.826-2.13-4.826-4.915zm7.442 0c0-1.7-1.106-2.953-2.615-2.953-1.528 0-2.652 1.252-2.652 2.953 0 1.701 1.123 2.954 2.652 2.954 1.51 0 2.615-1.253 2.615-2.954zM58.6 10.59c-1.271 0-2.063.916-2.063 2.394v5.27h-2.1V8.871h1.842l.11 1.01h.111c.498-.766 1.474-1.234 2.652-1.234 2.118 0 3.48 1.476 3.48 3.757v5.85h-2.099v-5.42c.002-1.402-.718-2.243-1.933-2.243zM63.848 13.562c0-2.823 1.934-4.916 4.677-4.916 2.505 0 4.385 1.775 4.385 4.58 0 .28-.018.597-.055.877H66.04c.148 1.533 1.124 2.504 2.505 2.504.995 0 1.86-.523 2.082-1.233H72.8c-.313 1.795-2.063 3.103-4.254 3.103-2.745.002-4.698-2.074-4.698-4.915zm6.834-1.028c-.111-1.196-.922-2.018-2.118-2.018-1.196 0-2.174.822-2.45 2.018h4.567zM25.9 9.44c1.992-2.463 1.636-6.112-.791-8.131a5.643 5.643 0 0 0-8.014.803 5.8 5.8 0 0 0-1.264 4.232 5.759 5.759 0 0 0 2.056 3.9 5.617 5.617 0 0 0 5.528.97 8.34 8.34 0 0 1 .221 1.904c0 4.517-3.621 8.192-8.072 8.192a7.953 7.953 0 0 1-4.187-1.189c.36-.256.715-.52 1.062-.79 1.836-1.432 3.432-3.002 4.616-4.54a1.318 1.318 0 0 0-.221-1.832 1.273 1.273 0 0 0-1.805.225c-1.052 1.368-2.49 2.777-4.157 4.077a27.63 27.63 0 0 1-2.403 1.684c-.02.012-.038.02-.056.035-3.192 1.967-5.401 2.28-5.828 1.983-.04-.141-.01-.808.785-2.08.806-1.29 2.117-2.756 3.695-4.128l.49-.426-.044-.652a8.453 8.453 0 0 1-.02-.559c0-3.251 1.897-6.198 4.832-7.505.65-.29.946-1.06.66-1.719a1.278 1.278 0 0 0-1.694-.67C7.42 4.947 4.92 8.832 4.92 13.12v.076C1.688 16.14-1.244 20.2.542 22.558c.58.765 1.47 1.097 2.545 1.097 1.676 0 3.804-.806 5.93-2.019a10.501 10.501 0 0 0 6.547 2.285c5.869 0 10.644-4.846 10.644-10.801 0-1.17-.185-2.311-.543-3.405.08-.088.159-.18.235-.274zm-6.383-1.213a3.16 3.16 0 0 1-1.127-2.14 3.18 3.18 0 0 1 .693-2.32A3.1 3.1 0 0 1 21.5 2.608a3.08 3.08 0 0 1 1.978.718c1.331 1.108 1.525 3.109.433 4.46a3.093 3.093 0 0 1-4.394.44z"/>
    </g>
    <defs>
        <clipPath id="uek0wkkhba">
            <path fill="#fff" d="M0 0h73v24H0z"/>
        </clipPath>
    </defs>
</svg>
