<svg width="113" height="30" viewBox="0 0 113 30" fill="none" xmlns="http://www.w3.org/2000/svg">
<path d="M33.0092 11.8399C35.5478 8.75029 35.0946 4.17403 32.0008 1.64051C28.907 -0.893014 24.3245 -0.442078 21.7875 2.64754C20.5573 4.14375 19.9861 6.03035 20.176 7.95678C20.3659 9.88321 21.2977 11.62 22.7959 12.8485C24.1426 13.9528 25.7717 14.4898 27.3912 14.4898C28.2241 14.4898 29.0522 14.3463 29.8404 14.0659C30.0255 14.8419 30.1228 15.6402 30.1228 16.4544C30.1228 22.1206 25.5068 26.7287 19.8345 26.7287C17.931 26.7287 16.0945 26.2077 14.4989 25.2373C14.9568 24.9154 15.41 24.5856 15.852 24.2462C18.1927 22.4504 20.227 20.481 21.7365 18.5514C22.2933 17.8391 22.1673 16.8114 21.454 16.2537C20.7408 15.6976 19.7117 15.8234 19.1532 16.5357C17.8113 18.2502 15.9796 20.0189 13.8543 21.6505C12.7725 22.4807 11.7481 23.1786 10.7908 23.7618C10.7669 23.7761 10.7413 23.7889 10.719 23.8048C6.65028 26.2714 3.83409 26.665 3.29159 26.2921C3.24213 26.1137 3.27882 25.2787 4.29202 23.6821C5.31957 22.0664 6.99173 20.2276 9.00216 18.5051L9.62603 17.9714L9.57019 17.1539C9.55423 16.9229 9.54625 16.6855 9.54625 16.4512C9.54625 12.3721 11.9635 8.677 15.7052 7.03738C16.5333 6.67408 16.9114 5.70848 16.5476 4.8815C16.1838 4.05452 15.2169 3.67848 14.3888 4.04018C9.4569 6.20244 6.27053 11.0735 6.27053 16.4512C6.27053 16.4831 6.27053 16.515 6.27053 16.5468C2.15235 20.2388 -1.58608 25.3297 0.690803 28.2887C1.43115 29.2495 2.56401 29.6654 3.93461 29.6654C6.07108 29.6654 8.78516 28.6552 11.4929 27.1335C13.8703 28.9882 16.7886 30 19.8361 30C27.3162 30 33.4017 23.9227 33.4017 16.4528C33.4017 14.9853 33.1672 13.5544 32.7108 12.1825C32.8114 12.0726 32.9119 11.9578 33.0092 11.8399ZM24.875 10.3166C24.0532 9.6426 23.5426 8.69134 23.4389 7.63332C23.3352 6.57689 23.648 5.54276 24.3229 4.72216C25.1095 3.76611 26.2519 3.27056 27.4039 3.27056C28.2927 3.27056 29.1862 3.56534 29.925 4.17084C31.6211 5.56029 31.87 8.06991 30.4786 9.7653C29.0841 11.4591 26.5711 11.7061 24.875 10.3166Z" fill="white"/>
<path d="M43.3262 7.68673C43.3262 6.95536 43.8926 6.4375 44.601 6.4375C45.3095 6.4375 45.8759 6.95536 45.8759 7.68673C45.8759 8.41811 45.3095 8.95987 44.601 8.95987C43.8926 8.95987 43.3262 8.41811 43.3262 7.68673ZM43.6804 11.1524H45.5217V22.8687H43.6804V11.1524Z" fill="white"/>
<path d="M56.9001 21.2652H56.7581C55.9556 22.4443 54.5865 23.104 52.9575 23.104C49.8174 23.104 47.4814 20.5099 47.4814 16.9981C47.4814 13.5085 49.819 10.916 52.9575 10.916C54.6328 10.916 56.0976 11.6474 56.8762 12.8966H57.0182L57.1123 11.1518H58.7175V27.5831H56.9001V21.2652ZM56.9001 16.9981C56.9001 14.3817 55.4131 12.6369 53.1936 12.6369C50.9502 12.6369 49.3929 14.4518 49.3929 16.9981C49.3929 19.5682 50.9502 21.3831 53.1936 21.3831C55.4131 21.3831 56.9001 19.6383 56.9001 16.9981Z" fill="white"/>
<path d="M61.2412 18.6736V11.1543H63.0825V18.3677C63.0825 20.2543 64.1675 21.3856 65.8205 21.3856C67.6379 21.3856 68.7947 20.0184 68.7947 18.0378V11.1543H70.636V22.8706H69.0308L68.9367 21.3856H68.7947C68.1102 22.4707 67.0714 23.1065 65.5844 23.1065C63.1064 23.1049 61.2412 21.3362 61.2412 18.6736Z" fill="white"/>
<path d="M72.8076 7.68673C72.8076 6.95536 73.374 6.4375 74.0825 6.4375C74.7909 6.4375 75.3573 6.95536 75.3573 7.68673C75.3573 8.41811 74.7909 8.95987 74.0825 8.95987C73.374 8.95987 72.8076 8.41811 72.8076 7.68673ZM73.1618 11.1524H75.0031V22.8687H73.1618V11.1524Z" fill="white"/>
<path d="M90.3682 7.68673C90.3682 6.95536 90.9346 6.4375 91.643 6.4375C92.3515 6.4375 92.9179 6.95536 92.9179 7.68673C92.9179 8.41811 92.3515 8.95987 91.643 8.95987C90.9346 8.95987 90.3682 8.41811 90.3682 7.68673ZM90.7224 11.1524H92.5637V22.8687H90.7224V11.1524Z" fill="white"/>
<path d="M96.1749 19.9467V12.8035H93.8613V11.1527H94.3799C95.6787 11.1527 96.2212 10.4691 96.3153 8.98407L96.3871 7.71094H98.0162V11.1527H100.754V12.8035H98.0162V19.8049C98.0162 20.8183 98.6768 21.4557 99.6214 21.4557C99.9516 21.4557 100.306 21.3856 100.636 21.2677L100.942 22.8005C100.494 22.9885 100.046 23.1065 99.4315 23.1065C97.52 23.1049 96.1749 21.9974 96.1749 19.9467Z" fill="white"/>
<path d="M101.485 27.3254L102.075 25.8866C102.548 26.1224 102.996 26.1925 103.444 26.1925C104.553 26.1925 105.286 25.6508 105.664 24.4956L106.23 22.8687H105.593L101.038 11.1523H103.045L106.776 21.0299H106.918L110.198 11.1523H112.158L107.46 24.8732C106.8 26.7359 105.359 27.8194 103.518 27.8194C102.784 27.821 102.051 27.6553 101.485 27.3254Z" fill="white"/>
<path d="M41.1792 6.89258H39.3379V22.8681H41.1792V6.89258Z" fill="white"/>
<path d="M86.3796 6.89258V12.7547H86.2376C85.435 11.5756 84.0182 10.9159 82.437 10.9159C79.2745 10.9159 76.9609 13.5323 76.9609 16.998C76.9609 20.5338 79.2745 23.1039 82.437 23.1039C84.09 23.1039 85.5771 22.3725 86.3557 21.0994H86.4977L86.5918 22.8681H88.197V6.89258H86.3796ZM82.6747 21.383C80.409 21.383 78.874 19.5681 78.874 16.998C78.874 14.4517 80.409 12.6368 82.6747 12.6368C84.8702 12.6368 86.3812 14.3816 86.3812 16.998C86.3796 19.6383 84.8702 21.383 82.6747 21.383Z" fill="white"/>
</svg>
