<svg width="123" height="52" viewBox="0 0 123 52" fill="none" xmlns="http://www.w3.org/2000/svg">
    <g clip-path="url(#n0wyjg7gwa)">
        <rect width="123" height="52" rx="10" fill="#fff" fill-opacity=".1"/>
        <path d="m62.677 37.114-1.698-3.99a21.929 21.929 0 0 0 4.584-2.364l-2.886 6.354zm-7.802-10.093-3.99-1.698 6.355-2.886a21.923 21.923 0 0 0-2.365 4.584zM71.51 16.489s-5.156-2.209-11.052 3.688c-2.281 2.281-3.645 4.791-4.531 6.99a2.103 2.103 0 0 0 .48 2.218l2.218 2.208c.573.584 1.427.771 2.208.48a19.898 19.898 0 0 0 6.99-4.532c5.896-5.895 3.687-11.052 3.687-11.052zm-7.364 7.365a2.087 2.087 0 0 1 0-2.948 2.087 2.087 0 0 1 2.948 0 2.097 2.097 0 0 1 0 2.948 2.087 2.087 0 0 1-2.948 0zM55.5 36.917l3.792-3.792a3.184 3.184 0 0 1-1.01-.469l-4.25 4.26H55.5zm-4.417 0h1.469l4.969-4.959-1.48-1.469-4.958 4.959v1.468zm0-2.949 4.26-4.25a3.081 3.081 0 0 1-.468-1.01L51.083 32.5v1.468z" fill="url(#uw86dzspwb)"/>
    </g>
    <defs>
        <linearGradient id="uw86dzspwb" x1="61.4" y1="16.084" x2="61.4" y2="37.114" gradientUnits="userSpaceOnUse">
            <stop offset=".35" stop-color="#FBDC5F"/>
            <stop offset="1" stop-color="#3DDDFF"/>
        </linearGradient>
        <clipPath id="n0wyjg7gwa">
            <rect width="123" height="52" rx="10" fill="#fff"/>
        </clipPath>
    </defs>
</svg>
