<svg width="50" height="20" viewBox="0 0 50 20" fill="none" xmlns="http://www.w3.org/2000/svg">
<g clip-path="url(#clip0_2860_137664)">
<path d="M19.0579 16.9327V15.7824H21.7903C22.2081 15.7824 22.5341 15.664 22.7681 15.4272C23.0018 15.1903 23.1189 14.8782 23.1189 14.4922C23.1189 14.1062 23.0018 13.7879 22.7681 13.5572C22.5341 13.3265 22.2081 13.2112 21.7903 13.2112H18.1878V18.8234H17.0085V12.0217H21.7903C22.1834 12.0217 22.5341 12.0794 22.8434 12.1947C23.1519 12.3101 23.4127 12.4723 23.625 12.6814C23.8373 12.8906 23.9996 13.1443 24.1119 13.4434C24.2242 13.7425 24.2804 14.0793 24.2804 14.4537C24.2804 14.8282 24.2242 15.1565 24.1119 15.4595C23.9996 15.7616 23.8373 16.0223 23.625 16.2407C23.4127 16.459 23.1527 16.629 22.8434 16.7504C22.535 16.8719 22.1834 16.9327 21.7903 16.9327H19.0579Z" fill="white" fill-opacity="0.8"/>
<path d="M28.1505 18.8221V16.2401L24.5389 12.022H26.1389L28.7875 15.1552L31.4446 12.022H32.9607L29.3391 16.2401V18.8221H28.1505Z" fill="white" fill-opacity="0.8"/>
<path d="M37.0585 18.8221V13.2099H33.9288V12.022H41.381V13.2099H38.2469V18.8221H37.0585Z" fill="white" fill-opacity="0.8"/>
<path d="M48.8162 12.022H50V18.8221H48.8162V12.022Z" fill="white" fill-opacity="0.8"/>
<path d="M43.7078 18.8221V15.8787H48.1124V14.8261H43.7078V12.022H42.5239V18.8221H43.7078Z" fill="white" fill-opacity="0.8"/>
<path d="M8.50426 9.79972C8.50426 10.7385 7.74268 11.4997 6.80341 11.4997V13.1998C8.68195 13.1998 10.2051 11.6774 10.2051 9.79972C10.2051 7.92208 8.68195 6.39966 6.80341 6.39966C6.18415 6.39966 5.6026 6.56498 5.10257 6.85485C4.08561 7.44229 3.40173 8.54104 3.40173 9.79972V18.2999L4.93103 19.8284L5.10257 19.9999V9.79972C5.10257 8.86089 5.86414 8.09969 6.80341 8.09969C7.74268 8.09969 8.50426 8.86089 8.50426 9.79972Z" fill="white" fill-opacity="0.8"/>
<path d="M6.80336 3C5.56408 3 4.4025 3.33139 3.40167 3.91037C2.76088 4.28021 2.18702 4.75155 1.70084 5.30285C0.642335 6.50154 0 8.07625 0 9.80012V14.9002L1.70084 16.6002V9.80012C1.70084 8.29001 2.35779 6.9329 3.40167 5.99869C3.89247 5.56043 4.46865 5.21442 5.10253 4.99144C5.63408 4.80229 6.20718 4.70003 6.80336 4.70003C9.62117 4.70003 11.9059 6.98365 11.9059 9.80012C11.9059 12.6166 9.62117 14.9002 6.80336 14.9002V16.6002C10.5612 16.6002 13.6067 13.5554 13.6067 9.80012C13.6067 6.04482 10.5612 3 6.80336 3Z" fill="white" fill-opacity="0.8"/>
</g>
<path d="M16.5898 8V3.63636H18.1452C18.4846 3.63636 18.7659 3.69815 18.9889 3.82173C19.2119 3.94531 19.3788 4.11435 19.4896 4.32884C19.6004 4.5419 19.6558 4.78196 19.6558 5.04901C19.6558 5.31747 19.5997 5.55895 19.4875 5.77344C19.3767 5.98651 19.2091 6.15554 18.9846 6.28054C18.7616 6.40412 18.4811 6.46591 18.143 6.46591H17.0734V5.90767H18.0834C18.2979 5.90767 18.4719 5.87074 18.6054 5.79688C18.7389 5.72159 18.8369 5.61932 18.8994 5.49006C18.9619 5.3608 18.9932 5.21378 18.9932 5.04901C18.9932 4.88423 18.9619 4.73793 18.8994 4.61009C18.8369 4.48224 18.7382 4.3821 18.6032 4.30966C18.4697 4.23722 18.2936 4.20099 18.0748 4.20099H17.2481V8H16.5898ZM21.714 8.06605C21.4072 8.06605 21.1395 7.99574 20.9108 7.85511C20.6821 7.71449 20.5045 7.51776 20.3781 7.26491C20.2517 7.01207 20.1885 6.71662 20.1885 6.37855C20.1885 6.03906 20.2517 5.74219 20.3781 5.48793C20.5045 5.23366 20.6821 5.03622 20.9108 4.8956C21.1395 4.75497 21.4072 4.68466 21.714 4.68466C22.0209 4.68466 22.2886 4.75497 22.5173 4.8956C22.746 5.03622 22.9236 5.23366 23.05 5.48793C23.1764 5.74219 23.2396 6.03906 23.2396 6.37855C23.2396 6.71662 23.1764 7.01207 23.05 7.26491C22.9236 7.51776 22.746 7.71449 22.5173 7.85511C22.2886 7.99574 22.0209 8.06605 21.714 8.06605ZM21.7162 7.53125C21.915 7.53125 22.0798 7.47869 22.2105 7.37358C22.3412 7.26847 22.4378 7.12855 22.5003 6.95384C22.5642 6.77912 22.5961 6.58665 22.5961 6.37642C22.5961 6.16761 22.5642 5.97585 22.5003 5.80114C22.4378 5.625 22.3412 5.48366 22.2105 5.37713C22.0798 5.2706 21.915 5.21733 21.7162 5.21733C21.5159 5.21733 21.3497 5.2706 21.2176 5.37713C21.0869 5.48366 20.9896 5.625 20.9257 5.80114C20.8632 5.97585 20.8319 6.16761 20.8319 6.37642C20.8319 6.58665 20.8632 6.77912 20.9257 6.95384C20.9896 7.12855 21.0869 7.26847 21.2176 7.37358C21.3497 7.47869 21.5159 7.53125 21.7162 7.53125ZM24.5606 8L23.5976 4.72727H24.2559L24.8973 7.13068H24.9292L25.5727 4.72727H26.2311L26.8703 7.12003H26.9023L27.5393 4.72727H28.1977L27.2368 8H26.5869L25.9221 5.63707H25.8731L25.2084 8H24.5606ZM30.1132 8.06605C29.7907 8.06605 29.5131 7.99716 29.2801 7.85938C29.0486 7.72017 28.8696 7.52486 28.7432 7.27344C28.6182 7.0206 28.5557 6.72443 28.5557 6.38494C28.5557 6.04972 28.6182 5.75426 28.7432 5.49858C28.8696 5.2429 29.0457 5.04332 29.2716 4.89986C29.4988 4.75639 29.7645 4.68466 30.0684 4.68466C30.2531 4.68466 30.4321 4.7152 30.6054 4.77628C30.7787 4.83736 30.9342 4.93324 31.072 5.06392C31.2098 5.1946 31.3184 5.36435 31.398 5.57315C31.4775 5.78054 31.5173 6.03267 31.5173 6.32955V6.5554H28.9157V6.07812H30.893C30.893 5.91051 30.8589 5.76207 30.7907 5.63281C30.7226 5.50213 30.6267 5.39915 30.5031 5.32386C30.3809 5.24858 30.2375 5.21094 30.0727 5.21094C29.8937 5.21094 29.7375 5.25497 29.604 5.34304C29.4719 5.42969 29.3696 5.54332 29.2971 5.68395C29.2261 5.82315 29.1906 5.97443 29.1906 6.13778V6.51065C29.1906 6.7294 29.229 6.91548 29.3057 7.06889C29.3838 7.2223 29.4925 7.33949 29.6317 7.42045C29.7709 7.5 29.9335 7.53977 30.1196 7.53977C30.2403 7.53977 30.3504 7.52273 30.4498 7.48864C30.5493 7.45312 30.6352 7.40057 30.7077 7.33097C30.7801 7.26136 30.8355 7.17543 30.8738 7.07315L31.4768 7.18182C31.4285 7.35937 31.3419 7.51491 31.2169 7.64844C31.0933 7.78054 30.9378 7.88352 30.7503 7.95739C30.5642 8.02983 30.3518 8.06605 30.1132 8.06605ZM32.2242 8V4.72727H32.8399V5.24716H32.874C32.9337 5.07102 33.0388 4.93253 33.1894 4.83168C33.3414 4.7294 33.5132 4.67827 33.705 4.67827C33.7448 4.67827 33.7916 4.67969 33.8456 4.68253C33.901 4.68537 33.9443 4.68892 33.9756 4.69318V5.30256C33.95 5.29545 33.9046 5.28764 33.8392 5.27912C33.7739 5.26918 33.7085 5.2642 33.6432 5.2642C33.4926 5.2642 33.3584 5.29616 33.2405 5.36009C33.124 5.42259 33.0317 5.50994 32.9635 5.62216C32.8953 5.73295 32.8612 5.85937 32.8612 6.00142V8H32.2242ZM35.8202 8.06605C35.4978 8.06605 35.2201 7.99716 34.9871 7.85938C34.7556 7.72017 34.5766 7.52486 34.4502 7.27344C34.3252 7.0206 34.2627 6.72443 34.2627 6.38494C34.2627 6.04972 34.3252 5.75426 34.4502 5.49858C34.5766 5.2429 34.7528 5.04332 34.9786 4.89986C35.2059 4.75639 35.4715 4.68466 35.7755 4.68466C35.9601 4.68466 36.1391 4.7152 36.3124 4.77628C36.4857 4.83736 36.6412 4.93324 36.779 5.06392C36.9168 5.1946 37.0255 5.36435 37.105 5.57315C37.1846 5.78054 37.2243 6.03267 37.2243 6.32955V6.5554H34.6228V6.07812H36.6001C36.6001 5.91051 36.566 5.76207 36.4978 5.63281C36.4296 5.50213 36.3337 5.39915 36.2101 5.32386C36.088 5.24858 35.9445 5.21094 35.7797 5.21094C35.6008 5.21094 35.4445 5.25497 35.311 5.34304C35.1789 5.42969 35.0766 5.54332 35.0042 5.68395C34.9331 5.82315 34.8976 5.97443 34.8976 6.13778V6.51065C34.8976 6.7294 34.936 6.91548 35.0127 7.06889C35.0908 7.2223 35.1995 7.33949 35.3387 7.42045C35.4779 7.5 35.6405 7.53977 35.8266 7.53977C35.9474 7.53977 36.0574 7.52273 36.1569 7.48864C36.2563 7.45312 36.3422 7.40057 36.4147 7.33097C36.4871 7.26136 36.5425 7.17543 36.5809 7.07315L37.1839 7.18182C37.1356 7.35937 37.0489 7.51491 36.9239 7.64844C36.8003 7.78054 36.6448 7.88352 36.4573 7.95739C36.2712 8.02983 36.0589 8.06605 35.8202 8.06605ZM39.1563 8.06392C38.8921 8.06392 38.6563 7.99645 38.449 7.86151C38.243 7.72514 38.0811 7.53125 37.9632 7.27983C37.8467 7.02699 37.7884 6.72372 37.7884 6.37003C37.7884 6.01634 37.8474 5.71378 37.9653 5.46236C38.0846 5.21094 38.248 5.01847 38.4553 4.88494C38.6627 4.75142 38.8978 4.68466 39.1606 4.68466C39.3637 4.68466 39.5271 4.71875 39.6507 4.78693C39.7757 4.85369 39.8722 4.93182 39.9404 5.02131C40.01 5.1108 40.064 5.18963 40.1024 5.25781H40.1407V3.63636H40.7778V8H40.1556V7.49077H40.1024C40.064 7.56037 40.0086 7.63991 39.9362 7.7294C39.8651 7.81889 39.7671 7.89702 39.6421 7.96378C39.5171 8.03054 39.3552 8.06392 39.1563 8.06392ZM39.297 7.5206C39.4802 7.5206 39.635 7.4723 39.7615 7.37571C39.8893 7.2777 39.9859 7.14205 40.0512 6.96875C40.118 6.79545 40.1514 6.59375 40.1514 6.36364C40.1514 6.13636 40.1187 5.9375 40.0534 5.76705C39.988 5.59659 39.8921 5.46378 39.7657 5.36861C39.6393 5.27344 39.483 5.22585 39.297 5.22585C39.1052 5.22585 38.9454 5.27557 38.8176 5.375C38.6897 5.47443 38.5931 5.61009 38.5278 5.78196C38.4639 5.95384 38.4319 6.14773 38.4319 6.36364C38.4319 6.58239 38.4646 6.77912 38.5299 6.95384C38.5953 7.12855 38.6919 7.26705 38.8197 7.36932C38.949 7.47017 39.108 7.5206 39.297 7.5206ZM43.3261 8V3.63636H43.9632V5.25781H44.0015C44.0384 5.18963 44.0917 5.1108 44.1613 5.02131C44.2309 4.93182 44.3275 4.85369 44.4511 4.78693C44.5747 4.71875 44.738 4.68466 44.9411 4.68466C45.2053 4.68466 45.4411 4.75142 45.6485 4.88494C45.8559 5.01847 46.0186 5.21094 46.1365 5.46236C46.2558 5.71378 46.3154 6.01634 46.3154 6.37003C46.3154 6.72372 46.2565 7.02699 46.1386 7.27983C46.0207 7.53125 45.8588 7.72514 45.6528 7.86151C45.4468 7.99645 45.2117 8.06392 44.9475 8.06392C44.7487 8.06392 44.586 8.03054 44.4596 7.96378C44.3346 7.89702 44.2366 7.81889 44.1656 7.7294C44.0945 7.63991 44.0399 7.56037 44.0015 7.49077H43.9482V8H43.3261ZM43.9504 6.36364C43.9504 6.59375 43.9838 6.79545 44.0505 6.96875C44.1173 7.14205 44.2139 7.2777 44.3403 7.37571C44.4667 7.4723 44.6215 7.5206 44.8048 7.5206C44.9951 7.5206 45.1542 7.47017 45.282 7.36932C45.4099 7.26705 45.5065 7.12855 45.5718 6.95384C45.6386 6.77912 45.672 6.58239 45.672 6.36364C45.672 6.14773 45.6393 5.95384 45.574 5.78196C45.51 5.61009 45.4134 5.47443 45.2842 5.375C45.1563 5.27557 44.9965 5.22585 44.8048 5.22585C44.6201 5.22585 44.4639 5.27344 44.336 5.36861C44.2096 5.46378 44.1137 5.59659 44.0484 5.76705C43.983 5.9375 43.9504 6.13636 43.9504 6.36364ZM47.3222 9.22727C47.227 9.22727 47.1404 9.21946 47.0622 9.20384C46.9841 9.18963 46.9259 9.17401 46.8875 9.15696L47.0409 8.63494C47.1574 8.66619 47.2611 8.67969 47.352 8.67543C47.4429 8.67116 47.5232 8.63707 47.5928 8.57315C47.6638 8.50923 47.7263 8.40483 47.7803 8.25994L47.8591 8.04261L46.6617 4.72727H47.3435L48.1723 7.26705H48.2064L49.0352 4.72727H49.7192L48.3705 8.43679C48.308 8.60724 48.2284 8.75142 48.1318 8.86932C48.0352 8.98864 47.9202 9.07813 47.7867 9.13778C47.6531 9.19744 47.4983 9.22727 47.3222 9.22727Z" fill="white" fill-opacity="0.8"/>
<defs>
<clipPath id="clip0_2860_137664">
<rect width="50" height="17" fill="white" transform="translate(0 3)"/>
</clipPath>
</defs>
</svg>
