<?xml version="1.0" encoding="UTF-8"?>
<svg viewBox="0 0 95 38" xmlns="http://www.w3.org/2000/svg">
<path d="m48.132 23.881v-2.2746h2.0148c0.1919 0 0.3745 0.0182 0.5481 0.0545 0.1829 0.0273 0.3427 0.0817 0.4797 0.1634 0.1371 0.0818 0.2468 0.1953 0.329 0.3406 0.0822 0.1452 0.1233 0.3314 0.1233 0.5584 0 0.4086-0.1233 0.7037-0.3701 0.8853-0.2465 0.1816-0.5619 0.2724-0.9455 0.2724h-2.1793zm-2.1515-3.9363v9.725h4.742c0.4384 0 0.8633-0.0545 1.2744-0.1634 0.4204-0.109 0.7904-0.277 1.1103-0.504 0.3287-0.227 0.5892-0.5176 0.7811-0.8717 0.1919-0.3632 0.2879-0.79 0.2879-1.2803 0-0.6084-0.1508-1.126-0.4525-1.5528-0.2923-0.4358-0.74-0.74-1.343-0.9125 0.4386-0.2089 0.7676-0.4767 0.9868-0.8036 0.2285-0.3269 0.3427-0.7355 0.3427-1.2258 0-0.4541-0.0777-0.8354-0.233-1.1442-0.1463-0.3087-0.3565-0.5539-0.6305-0.7355-0.2741-0.1907-0.6031-0.3269-0.9869-0.4086-0.3835-0.0817-0.8084-0.1226-1.2744-0.1226h-4.6049zm2.1515 8.0633v-2.6696h2.3437c0.466 0 0.8405 0.109 1.1238 0.3269 0.2834 0.2089 0.4249 0.563 0.4249 1.0624 0 0.2542-0.0458 0.4631-0.137 0.6265-0.0822 0.1635-0.1964 0.2951-0.3427 0.395-0.1461 0.0908-0.3152 0.1589-0.5071 0.2043-0.1919 0.0363-0.3928 0.0545-0.603 0.0545h-2.3026z" fill="#fff"/>
<path d="m55.287 22.627v7.0418h1.946v-3.1736c0-0.3178 0.0319-0.6129 0.096-0.8853 0.0639-0.2724 0.1688-0.5085 0.3151-0.7083 0.1554-0.2088 0.3563-0.3723 0.6031-0.4903 0.2467-0.1181 0.5481-0.1771 0.9046-0.1771 0.1187 0 0.242 0.0091 0.37 0.0273 0.1278 0.0091 0.2375 0.0227 0.3287 0.0408v-1.7979c-0.1553-0.0454-0.2969-0.0681-0.4246-0.0681-0.2468 0-0.4843 0.0364-0.7128 0.109-0.2284 0.0726-0.4431 0.177-0.6441 0.3133-0.2011 0.1271-0.3793 0.286-0.5346 0.4767-0.1553 0.1816-0.2786 0.3814-0.37 0.5993h-0.0273v-1.3076h-1.8501z" fill="#fff"/>
<path d="m62.478 21.538v-1.5936h-1.9461v1.5936h1.9461zm-1.9461 1.0897v7.0417h1.9461v-7.0417h-1.9461z" fill="#fff"/>
<path d="m68.903 26.128c0 0.2906-0.0273 0.5721-0.0821 0.8445-0.0549 0.2724-0.1463 0.5175-0.2741 0.7355-0.128 0.2088-0.3016 0.3768-0.5208 0.5039-0.2102 0.1272-0.4753 0.1907-0.795 0.1907-0.3016 0-0.5619-0.0635-0.7811-0.1907-0.2102-0.1362-0.3883-0.3087-0.5346-0.5176-0.137-0.2179-0.2375-0.463-0.3014-0.7354-0.0641-0.2725-0.0959-0.5449-0.0959-0.8173 0-0.2906 0.0273-0.5675 0.0821-0.8308 0.0639-0.2724 0.1599-0.5131 0.2879-0.7219 0.137-0.2088 0.3151-0.3768 0.5344-0.504 0.2194-0.1271 0.4887-0.1906 0.8086-0.1906 0.3197 0 0.5848 0.0635 0.795 0.1906 0.2101 0.1272 0.379 0.2952 0.507 0.504 0.1371 0.1998 0.233 0.4358 0.2879 0.7082 0.0548 0.2634 0.0821 0.5403 0.0821 0.8309zm0.0274 2.6424v0.8989h1.8503v-9.725h-1.9463v3.5413h-0.0273c-0.2192-0.345-0.5208-0.6038-0.9044-0.7763-0.3748-0.1816-0.7721-0.2724-1.1925-0.2724-0.5208 0-0.9775 0.1044-1.3704 0.3132-0.393 0.1998-0.722 0.4677-0.9868 0.8037-0.2558 0.3359-0.4522 0.7264-0.5895 1.1713-0.1277 0.4359-0.1916 0.8899-0.1916 1.362 0 0.4904 0.0639 0.9625 0.1916 1.4166 0.1373 0.454 0.3337 0.858 0.5895 1.2122 0.2648 0.345 0.5985 0.622 1.0004 0.8308 0.4021 0.1998 0.868 0.2997 1.3979 0.2997 0.466 0 0.8818-0.0817 1.2471-0.2452 0.3748-0.1725 0.6762-0.4495 0.9046-0.8308h0.0274z" fill="#fff"/>
<path d="m75.417 28.007c-0.3016 0-0.5527-0.0636-0.7538-0.1907-0.201-0.1271-0.3656-0.2906-0.4933-0.4904-0.1188-0.1997-0.2057-0.4222-0.2606-0.6673-0.0456-0.2543-0.0684-0.5085-0.0684-0.7628 0-0.2633 0.0273-0.513 0.0822-0.7491 0.0639-0.2452 0.1598-0.4586 0.2879-0.6402 0.137-0.1907 0.3013-0.3405 0.4932-0.4494 0.2012-0.109 0.4387-0.1635 0.7128-0.1635 0.3197 0 0.5847 0.059 0.7949 0.1771 0.2102 0.118 0.379 0.2769 0.5071 0.4767 0.128 0.1998 0.2192 0.4313 0.274 0.6946 0.0549 0.2543 0.0822 0.5267 0.0822 0.8173 0 0.2542-0.0366 0.4994-0.1095 0.7355-0.0641 0.227-0.1646 0.4313-0.3016 0.6129s-0.3106 0.3269-0.5208 0.4358c-0.21 0.109-0.4522 0.1635-0.7263 0.1635zm3.5086 1.2122v-6.5923h-1.8504v0.9398h-0.0273c-0.2375-0.4086-0.5346-0.6992-0.8909-0.8717-0.3472-0.1725-0.7538-0.2588-1.2198-0.2588-0.4932 0-0.9319 0.0954-1.3155 0.286-0.3747 0.1907-0.6899 0.4495-0.9457 0.7764-0.2558 0.3178-0.4522 0.6901-0.5892 1.1169-0.1281 0.4177-0.1919 0.8535-0.1919 1.3076 0 0.4812 0.0548 0.9398 0.1643 1.3756 0.1188 0.4268 0.3016 0.8036 0.5482 1.1305 0.2467 0.3178 0.5619 0.5721 0.9457 0.7627 0.3838 0.1817 0.8405 0.2725 1.3706 0.2725 0.4294 0 0.836-0.0863 1.2196-0.2588 0.393-0.1816 0.6944-0.4586 0.9046-0.8309h0.0273v0.9262c0.0093 0.4994-0.1142 0.9126-0.37 1.2395-0.2465 0.3269-0.6441 0.4903-1.1923 0.4903-0.3472 0-0.6533-0.0726-0.9181-0.2179-0.2651-0.1362-0.4432-0.3859-0.5346-0.7491h-1.9324c0.0274 0.3995 0.1371 0.74 0.329 1.0215 0.2009 0.2906 0.4477 0.5266 0.74 0.7083 0.3014 0.1816 0.6304 0.3132 0.9868 0.3949 0.3653 0.0909 0.7218 0.1362 1.069 0.1362 0.813 0 1.4619-0.1089 1.9461-0.3269 0.4843-0.2179 0.8543-0.4857 1.1101-0.8035 0.2558-0.3088 0.4201-0.6447 0.4933-1.008 0.0821-0.3632 0.1235-0.6855 0.1235-0.967z" fill="#fff"/>
<path d="m85.125 25.392h-3.1659c0.0093-0.1362 0.0366-0.2906 0.0824-0.4631 0.0546-0.1726 0.1416-0.336 0.2603-0.4904 0.128-0.1543 0.2924-0.2814 0.4933-0.3813 0.2102-0.109 0.4707-0.1635 0.7814-0.1635 0.475 0 0.8267 0.1271 1.0552 0.3814 0.2375 0.2542 0.4021 0.6265 0.4933 1.1169zm-3.1659 1.2258h5.1122c0.0363-0.5448-0.0093-1.0669-0.1373-1.5663-0.1277-0.4995-0.3379-0.9444-0.6303-1.3348-0.2833-0.3905-0.6486-0.6992-1.0963-0.9262-0.4477-0.2361-0.973-0.3542-1.5761-0.3542-0.5391 0-1.0326 0.0954-1.4803 0.286-0.4384 0.1907-0.8177 0.4541-1.1374 0.79-0.3199 0.3269-0.5664 0.7174-0.74 1.1714s-0.2606 0.9443-0.2606 1.471c0 0.5448 0.0822 1.0442 0.2468 1.4982 0.1736 0.4541 0.4156 0.8445 0.7263 1.1714 0.3106 0.3269 0.6899 0.5811 1.1376 0.7628 0.4477 0.1725 0.9502 0.2587 1.5076 0.2587 0.804 0 1.4892-0.1816 2.0556-0.5448s0.9868-0.967 1.2609-1.8115h-1.7131c-0.0639 0.2179-0.2375 0.4268-0.5208 0.6265-0.2831 0.1907-0.6213 0.2861-1.0141 0.2861-0.5482 0-0.9686-0.1408-1.2609-0.4223-0.2924-0.2815-0.4522-0.7355-0.4798-1.362z" fill="#fff"/>
<path d="m34.815 26.128c0 0.2906-0.0273 0.5721-0.0821 0.8445-0.0549 0.2724-0.1463 0.5175-0.2741 0.7355-0.128 0.2088-0.3016 0.3768-0.5208 0.5039-0.2102 0.1272-0.4753 0.1907-0.7949 0.1907-0.3017 0-0.562-0.0635-0.7812-0.1907-0.2102-0.1362-0.3883-0.3087-0.5346-0.5176-0.137-0.2179-0.2375-0.463-0.3014-0.7354-0.0641-0.2725-0.0959-0.5449-0.0959-0.8173 0-0.2906 0.0273-0.5675 0.0821-0.8308 0.0639-0.2724 0.1599-0.5131 0.2879-0.7219 0.137-0.2088 0.3152-0.3768 0.5344-0.504 0.2194-0.1271 0.4887-0.1906 0.8087-0.1906 0.3196 0 0.5847 0.0635 0.7949 0.1906 0.2102 0.1272 0.379 0.2952 0.507 0.504 0.1371 0.1998 0.233 0.4358 0.2879 0.7082 0.0548 0.2634 0.0821 0.5403 0.0821 0.8309zm0.0274 2.6424v0.8989h1.8503v-9.725h-1.9463v3.5413h-0.0273c-0.2192-0.345-0.5208-0.6038-0.9044-0.7763-0.3748-0.1816-0.7721-0.2724-1.1925-0.2724-0.5208 0-0.9775 0.1044-1.3704 0.3132-0.393 0.1998-0.722 0.4677-0.9868 0.8037-0.2558 0.3359-0.4522 0.7264-0.5895 1.1713-0.1277 0.4359-0.1916 0.8899-0.1916 1.362 0 0.4904 0.0639 0.9625 0.1916 1.4166 0.1373 0.454 0.3337 0.858 0.5895 1.2122 0.2648 0.345 0.5985 0.622 1.0004 0.8308 0.4021 0.1998 0.868 0.2997 1.3979 0.2997 0.466 0 0.8818-0.0817 1.2471-0.2452 0.3748-0.1725 0.6762-0.4495 0.9046-0.8308h0.0274z" fill="#fff"/>
<path d="m42.796 25.392h-3.1657c0.0091-0.1362 0.0364-0.2906 0.0822-0.4631 0.0549-0.1726 0.1416-0.336 0.2603-0.4904 0.128-0.1543 0.2924-0.2814 0.4935-0.3813 0.21-0.109 0.4705-0.1635 0.7812-0.1635 0.475 0 0.8267 0.1271 1.0552 0.3814 0.2375 0.2542 0.4021 0.6265 0.4933 1.1169zm-3.1657 1.2258h5.112c0.0366-0.5448-0.0093-1.0669-0.137-1.5663-0.128-0.4995-0.3382-0.9444-0.6306-1.3348-0.2831-0.3905-0.6486-0.6992-1.0963-0.9262-0.4477-0.2361-0.973-0.3542-1.576-0.3542-0.5392 0-1.0327 0.0954-1.4804 0.286-0.4384 0.1907-0.8177 0.4541-1.1374 0.79-0.3199 0.3269-0.5664 0.7174-0.74 1.1714s-0.2606 0.9443-0.2606 1.471c0 0.5448 0.0824 1.0442 0.2468 1.4982 0.1736 0.4541 0.4156 0.8445 0.7263 1.1714 0.3106 0.3269 0.6899 0.5811 1.1376 0.7628 0.4477 0.1725 0.9502 0.2587 1.5077 0.2587 0.8039 0 1.4891-0.1816 2.0555-0.5448 0.5667-0.3632 0.9868-0.967 1.2609-1.8115h-1.7131c-0.0639 0.2179-0.2375 0.4268-0.5208 0.6265-0.2831 0.1907-0.6213 0.2861-1.0142 0.2861-0.5481 0-0.9685-0.1408-1.2608-0.4223-0.2924-0.2815-0.4522-0.7355-0.4796-1.362z" fill="#fff"/>
<path d="m23.713 29.875h-3.0673c-0.6595 0-0.9356-0.5389-0.9912-0.8084-0.0483-0.2311-0.1169-0.4545-0.2039-0.6683-0.147-0.4614 0.103-0.7133 0.2463-0.7815l1.2284-0.705c0.1694 0.2805 0.3058 0.5854 0.419 0.9006 0.065 0.1744 0.3073 0.4974 0.7569 0.3943l1.3452-0.3553c0.1697 0.6504 0.2666 1.325 0.2666 2.0236z" fill="#fff"/>
<path d="m21.386 24.31c-0.9697-0.9637-2.1817-1.6864-3.5634-2.0478l-0.5091 1.9032c1.0181 0.265 1.9393 0.8191 2.6665 1.5419l1.406-1.3973z" clip-rule="evenodd" fill="#fff" fill-rule="evenodd"/>
<path d="m10.623 26.887c-0.509 0.8913-0.7999 1.9032-0.7999 2.9873h-0.90364c-0.19345 0-0.48823-0.0669-0.77378-0.369-0.22845-0.2417-0.24341-0.6256-0.22232-0.7873 0.11663-0.7651 0.34454-1.495 0.65526-2.1775 0.08598-0.1993 0.38689-0.54 0.90274-0.3088l1.1416 0.6553z" fill="#fff"/>
<path d="m23.713 29.875c0-0.6986-0.0969-1.3732-0.2666-2.0236l1.2526-0.3309c0.2232-0.0583 0.7004-0.0376 0.8232 0.5116 0.046 0.2374 0.0838 0.4791 0.1125 0.7232 0.0228 0.1404 2e-3 0.4962-0.2633 0.7965s-0.6449 0.3232-0.7463 0.3232h-0.9121z" fill="#fff"/>
<path d="m19.98 25.708 2.3403-2.3257c0.1634-0.1526 0.5833-0.357 0.9554 0.0458 0.2696 0.3076 0.5209 0.6333 0.7515 0.9795 0.0969 0.1941 0.1864 0.642-0.2309 0.8816l-2.8708 1.6475c-0.2666-0.4578-0.5819-0.8673-0.9455-1.2287z" fill="#fff"/>
<path d="m19.762 23.057c-1.1635-0.6746-2.5211-1.06-3.9755-1.06-0.4988 0-0.9853 0.0485-1.4597 0.1369-0.42 0.0787-0.6585-0.2525-0.7252-0.4279l-0.191-0.7141c-0.0447-0.2172-0.0123-0.6779 0.474-0.7835 0.6146-0.1214 1.2582-0.1869 1.9019-0.1869 1.5493 0 3.0263 0.3594 4.3528 1.0006 0.1904 0.089 0.5159 0.3892 0.2948 0.8782l-0.6721 1.1567z" fill="#fff"/>
<path d="m15.762 23.973c0.5333 0 1.0665 0.0722 1.5513 0.1927l-0.3534 1.3217c-0.0457 0.1726-0.2512 0.5072-0.7081 0.4649-0.1505-0.0186-0.3057-0.0279-0.4655-0.0279-1.9277 0-3.5222 1.3613-3.8938 3.1516-0.0299 0.1252-0.1415 0.4138-0.3478 0.5676-0.258 0.1923-0.4698 0.2317-0.6356 0.2317h-1.0862c0-3.2764 2.6666-5.9023 5.9391-5.9023z" fill="#fff"/>
<path d="m20.975 10v-7.2727h2.4574c0.5705 0 1.0369 0.10299 1.3991 0.30895 0.3646 0.2036 0.6345 0.4794 0.8097 0.82742 0.1752 0.34801 0.2628 0.73627 0.2628 1.1648s-0.0876 0.81794-0.2628 1.1683c-0.1728 0.35038-0.4403 0.62974-0.8026 0.83807-0.3622 0.20597-0.8262 0.30895-1.392 0.30895h-1.7614v-0.78125h1.733c0.3906 0 0.7043-0.06747 0.941-0.20241 0.2368-0.13495 0.4084-0.31724 0.515-0.54688 0.1089-0.23201 0.1633-0.49361 0.1633-0.7848s-0.0544-0.55161-0.1633-0.78125c-0.1066-0.22964-0.2794-0.40957-0.5185-0.53977-0.2391-0.13258-0.5564-0.19887-0.9517-0.19887h-1.5483v6.4915h-0.8807zm8.3913 0.1136c-0.4924 0-0.9244-0.11715-1.2961-0.35153-0.3693-0.23437-0.6582-0.56226-0.8665-0.98366-0.206-0.4214-0.3089-0.91383-0.3089-1.4773 0-0.56819 0.1029-1.0642 0.3089-1.4879 0.2083-0.42377 0.4972-0.75284 0.8665-0.98722 0.3717-0.23437 0.8037-0.35156 1.2961-0.35156 0.4925 0 0.9233 0.11719 1.2927 0.35156 0.3716 0.23438 0.6605 0.56345 0.8664 0.98722 0.2084 0.42377 0.3125 0.91974 0.3125 1.4879 0 0.56344-0.1041 1.0559-0.3125 1.4773-0.2059 0.4214-0.4948 0.74929-0.8664 0.98366-0.3694 0.23438-0.8002 0.35153-1.2927 0.35153zm0-0.7528c0.3741 0 0.6819-0.09589 0.9233-0.28765 0.2415-0.19176 0.4203-0.44389 0.5363-0.75639s0.174-0.65104 0.174-1.0156c0-0.36459-0.058-0.70431-0.174-1.0192s-0.2948-0.56937-0.5363-0.76349c-0.2414-0.19413-0.5492-0.2912-0.9233-0.2912-0.374 0-0.6818 0.09707-0.9233 0.2912-0.2414 0.19412-0.4202 0.44862-0.5362 0.76349s-0.174 0.65459-0.174 1.0192c0 0.36458 0.058 0.70312 0.174 1.0156s0.2948 0.56463 0.5362 0.75639c0.2415 0.19176 0.5493 0.28765 0.9233 0.28765zm4.8012 0.6392-1.662-5.4546h0.8807l1.179 4.1761h0.0568l1.1648-4.1761h0.8949l1.1506 4.1619h0.0568l1.1789-4.1619h0.8807l-1.6619 5.4546h-0.8239l-1.1931-4.1903h-0.0853l-1.1932 4.1903h-0.8238zm8.9906 0.1136c-0.5256 0-0.979-0.11597-1.3601-0.34798-0.3788-0.23437-0.6712-0.56107-0.8771-0.98011-0.2036-0.4214-0.3054-0.91146-0.3054-1.4702s0.1018-1.0511 0.3054-1.4773c0.2059-0.42851 0.4924-0.76231 0.8593-1.0014 0.3693-0.24148 0.8002-0.36222 1.2926-0.36222 0.2841 0 0.5647 0.04735 0.8417 0.14205 0.277 0.09469 0.5291 0.24858 0.7564 0.46164 0.2272 0.21071 0.4083 0.49006 0.5433 0.83807 0.1349 0.34801 0.2024 0.77652 0.2024 1.2855v0.35512h-4.2046v-0.72443h3.3523c0-0.30777-0.0615-0.58239-0.1846-0.82387-0.1208-0.24147-0.2936-0.43205-0.5185-0.57173-0.2225-0.13968-0.4853-0.20952-0.7884-0.20952-0.3338 0-0.6226 0.08286-0.8664 0.24858-0.2415 0.16335-0.4274 0.37642-0.5576 0.63921-0.1302 0.26278-0.1953 0.5445-0.1953 0.84517v0.48295c0 0.41193 0.071 0.76113 0.2131 1.0476 0.1444 0.28409 0.3445 0.50071 0.6001 0.64985 0.2557 0.14679 0.5528 0.22018 0.8914 0.22018 0.2201 0 0.419-0.03078 0.5966-0.09233 0.1799-0.06392 0.335-0.15862 0.4652-0.28409 0.1302-0.12785 0.2308-0.28646 0.3018-0.47586l0.8097 0.22728c-0.0853 0.27462-0.2285 0.51609-0.4297 0.72443-0.2013 0.20596-0.4498 0.36695-0.7458 0.48295-0.2959 0.11362-0.6285 0.17042-0.9978 0.17042zm3.5334-0.1136v-5.4546h0.8096v0.82387h0.0568c0.0995-0.26989 0.2794-0.48887 0.5398-0.65696s0.554-0.25213 0.8807-0.25213c0.0615 0 0.1385 0.00118 0.2308 0.00355s0.1622 0.00592 0.2095 0.01065v0.85227c-0.0284-0.0071-0.0935-0.01775-0.1953-0.03196-0.0994-0.01657-0.2048-0.02485-0.316-0.02485-0.2652 0-0.5019 0.05563-0.7103 0.1669-0.2059 0.1089-0.3693 0.26042-0.49 0.45455-0.1184 0.19176-0.1776 0.41074-0.1776 0.65696v3.4517h-0.838zm5.8416 0.1136c-0.5256 0-0.979-0.11597-1.3601-0.34798-0.3788-0.23437-0.6712-0.56107-0.8771-0.98011-0.2036-0.4214-0.3054-0.91146-0.3054-1.4702s0.1018-1.0511 0.3054-1.4773c0.2059-0.42851 0.4924-0.76231 0.8593-1.0014 0.3693-0.24148 0.8002-0.36222 1.2926-0.36222 0.2841 0 0.5647 0.04735 0.8417 0.14205 0.277 0.09469 0.5291 0.24858 0.7564 0.46164 0.2272 0.21071 0.4083 0.49006 0.5433 0.83807 0.1349 0.34801 0.2024 0.77652 0.2024 1.2855v0.35512h-4.2046v-0.72443h3.3523c0-0.30777-0.0615-0.58239-0.1846-0.82387-0.1208-0.24147-0.2936-0.43205-0.5185-0.57173-0.2225-0.13968-0.4853-0.20952-0.7884-0.20952-0.3338 0-0.6226 0.08286-0.8664 0.24858-0.2415 0.16335-0.4274 0.37642-0.5576 0.63921-0.1302 0.26278-0.1953 0.5445-0.1953 0.84517v0.48295c0 0.41193 0.071 0.76113 0.2131 1.0476 0.1444 0.28409 0.3445 0.50071 0.6001 0.64985 0.2557 0.14679 0.5528 0.22018 0.8914 0.22018 0.2201 0 0.419-0.03078 0.5966-0.09233 0.1799-0.06392 0.335-0.15862 0.4652-0.28409 0.1302-0.12785 0.2308-0.28646 0.3018-0.47586l0.8097 0.22728c-0.0853 0.27462-0.2285 0.51609-0.4297 0.72443-0.2013 0.20596-0.4498 0.36695-0.7458 0.48295-0.2959 0.11362-0.6285 0.17042-0.9978 0.17042zm5.593 0c-0.4545 0-0.8558-0.11478-1.2038-0.34442-0.348-0.23201-0.6203-0.55872-0.8168-0.98012-0.1965-0.42377-0.2947-0.92448-0.2947-1.5021 0-0.57291 0.0982-1.0701 0.2947-1.4915 0.1965-0.4214 0.4699-0.74692 0.8203-0.97656s0.7552-0.34446 1.2145-0.34446c0.3551 0 0.6357 0.05919 0.8416 0.17756 0.2084 0.116 0.367 0.24858 0.4759 0.39773 0.1113 0.14678 0.1977 0.26751 0.2592 0.36221h0.071v-2.6847h0.8381v7.2727h-0.8096v-0.83807h-0.0995c-0.0615 0.09943-0.1491 0.22491-0.2628 0.37642-0.1136 0.14915-0.2758 0.28291-0.4865 0.40128-0.2107 0.11597-0.4912 0.17397-0.8416 0.17397zm0.1136-0.7528c0.3362 0 0.6203-0.0876 0.8523-0.26279 0.232-0.17756 0.4084-0.42258 0.5291-0.73508 0.1208-0.31487 0.1811-0.67827 0.1811-1.0902 0-0.4072-0.0591-0.7635-0.1775-1.0689-0.1184-0.30777-0.2936-0.54688-0.5256-0.71733-0.232-0.17283-0.5184-0.25924-0.8594-0.25924-0.3551 0-0.651 0.09115-0.8877 0.27344-0.2344 0.17992-0.4108 0.42495-0.5292 0.73509-0.116 0.30776-0.174 0.6534-0.174 1.0369 0 0.38825 0.0592 0.741 0.1776 1.0582 0.1207 0.31486 0.2983 0.56581 0.5327 0.75284 0.2367 0.18466 0.5303 0.27699 0.8806 0.27699zm6.9638 0.6392v-7.2727h0.8381v2.6847h0.071c0.0616-0.0947 0.1468-0.21543 0.2557-0.36221 0.1113-0.14915 0.2699-0.28173 0.4758-0.39773 0.2084-0.11837 0.4901-0.17756 0.8452-0.17756 0.4593 0 0.8641 0.11482 1.2145 0.34446s0.6238 0.55516 0.8203 0.97656c0.1965 0.42141 0.2948 0.91857 0.2948 1.4915 0 0.57765-0.0983 1.0784-0.2948 1.5021-0.1965 0.4214-0.4687 0.74811-0.8167 0.98012-0.3481 0.22964-0.7493 0.34442-1.2039 0.34442-0.3504 0-0.6309-0.058-0.8416-0.17397-0.2107-0.11837-0.3729-0.25213-0.4865-0.40128-0.1136-0.15151-0.2012-0.27699-0.2628-0.37642h-0.0994v0.83807h-0.8097zm0.8239-2.7273c0 0.41193 0.0604 0.77533 0.1811 1.0902 0.1207 0.3125 0.2971 0.55752 0.5291 0.73508 0.232 0.17519 0.5161 0.26279 0.8523 0.26279 0.3504 0 0.6427-0.09233 0.8771-0.27699 0.2368-0.18703 0.4143-0.43798 0.5327-0.75284 0.1207-0.31724 0.1811-0.66999 0.1811-1.0582 0-0.38353-0.0592-0.72917-0.1776-1.0369-0.116-0.31014-0.2923-0.55517-0.5291-0.73509-0.2344-0.18229-0.5291-0.27344-0.8842-0.27344-0.3409 0-0.6274 0.08641-0.8594 0.25924-0.232 0.17045-0.4072 0.40956-0.5256 0.71733-0.1183 0.30539-0.1775 0.66169-0.1775 1.0689zm5.6179 4.7728c-0.1421 0-0.2687-0.0119-0.38-0.0356-0.1113-0.0213-0.1882-0.0426-0.2308-0.0639l0.2131-0.7386c0.2036 0.0521 0.3835 0.071 0.5397 0.0568 0.1563-0.0142 0.2948-0.084 0.4155-0.2095 0.1231-0.1231 0.2356-0.3232 0.3374-0.6002l0.1562-0.4261-2.017-5.483h0.9091l1.5056 4.3466h0.0569l1.5056-4.3466h0.9091l-2.3153 6.25c-0.1042 0.2817-0.2332 0.5149-0.3871 0.6995-0.1539 0.1871-0.3326 0.3255-0.5362 0.4155-0.2012 0.09-0.4285 0.135-0.6818 0.135z" fill="#fff"/>
</svg>
