<svg width="16" height="21" viewBox="0 0 16 21" fill="none" xmlns="http://www.w3.org/2000/svg">
    <g clip-path="url(#ne38u2iuta)" fill="#E6DAFE">
        <path d="M10 8.4c0 1.16-.896 2.1-2 2.1v2.1c2.209 0 4-1.88 4-4.2 0-2.32-1.791-4.2-4-4.2a3.83 3.83 0 0 0-2 .562C4.804 5.488 4 6.845 4 8.4v10.5l1.798 1.888L6 21V8.4c0-1.16.895-2.1 2-2.1 1.104 0 2 .94 2 2.1z"/>
        <path d="M8 0a7.67 7.67 0 0 0-4 1.125 8.094 8.094 0 0 0-2 1.72A8.612 8.612 0 0 0 0 8.4v6.3l2 2.1V8.4c0-1.865.772-3.542 2-4.696A5.936 5.936 0 0 1 6 2.46a5.7 5.7 0 0 1 2-.36c3.313 0 6 2.821 6 6.3 0 3.48-2.687 6.3-6 6.3v2.1c4.419 0 8-3.761 8-8.4S12.419 0 8 0z"/>
    </g>
    <defs>
        <clipPath id="ne38u2iuta">
            <path fill="#fff" d="M0 0h16v21H0z"/>
        </clipPath>
    </defs>
</svg>
