<svg width="30" height="30" viewBox="0 0 30 30" fill="none" xmlns="http://www.w3.org/2000/svg">
    <g clip-path="url(#gj8qlf6mta)">
        <path d="M24.13 5.87V1.957h-3.913V0H9.783v1.956H5.87V5.87H3.913v10.434H5.87V30h3.913v-1.956h1.956V30h1.957v-1.956h2.608V30h1.957v-1.956h1.956V30h3.913V16.304h1.957V5.87H24.13z" fill="#57A4FF"/>
        <path d="M26.087 5.87H24.13V1.957h-3.913V0H9.783v1.956H5.87V5.87H3.913v10.434H5.87v3.913h3.913v1.957h10.434v-1.957h3.913v-3.913h1.957V5.87z" fill="#E0E3FA"/>
        <path d="M11.74 5.87v1.956h4.564v2.609H11.74v5.87h6.522v-1.957h-4.565V12.39h4.565V5.87h-6.522zM20.217 0H9.783v1.956h10.434V0zM20.217 20.217H9.783v1.957h10.434v-1.957zM7.826 3.913h1.957V1.957H5.87V5.87h1.956V3.913zM5.87 5.87H3.913v10.434H5.87V5.87zM22.174 3.913V5.87h1.957V1.957h-3.914v1.956h1.957zM26.087 5.87H24.13v10.434h1.957V5.87zM7.826 20.217h1.957v-1.956H7.826v-1.957H5.87V30h3.913v-1.957H7.826v-7.826zM22.174 18.26h-1.957v1.957h1.957v7.826h-1.957V30h3.914V16.304h-1.957v1.957z" fill="#000"/>
        <path d="M11.74 26.087H9.782v1.956h1.956v-1.956zM18.26 28.044h-1.956V30h1.957v-1.956zM13.696 28.044h-1.957V30h1.957v-1.956zM16.304 26.087h-2.608v1.956h2.608v-1.956zM20.217 26.087h-1.956v1.956h1.956v-1.956z" fill="#000"/>
    </g>
    <defs>
        <clipPath id="gj8qlf6mta">
            <path fill="#fff" d="M0 0h30v30H0z"/>
        </clipPath>
    </defs>
</svg>
