<svg width="15" height="15" viewBox="0 0 15 15" fill="none" xmlns="http://www.w3.org/2000/svg">
    <path d="M5 8.125A2.5 2.5 0 0 0 2.587 10H1.25v1.25h1.337A2.5 2.5 0 0 0 5 13.125a2.5 2.5 0 0 0 2.412-1.875h6.338V10H7.412A2.5 2.5 0 0 0 5 8.125zm0 3.75c-.688 0-1.25-.563-1.25-1.25 0-.688.563-1.25 1.25-1.25.688 0 1.25.563 1.25 1.25 0 .688-.563 1.25-1.25 1.25zm7.412-8.125A2.5 2.5 0 0 0 10 1.875 2.5 2.5 0 0 0 7.588 3.75H1.25V5h6.338A2.5 2.5 0 0 0 10 6.875 2.5 2.5 0 0 0 12.412 5h1.338V3.75h-1.338zM10 5.625c-.688 0-1.25-.563-1.25-1.25 0-.688.563-1.25 1.25-1.25.688 0 1.25.563 1.25 1.25 0 .688-.563 1.25-1.25 1.25z" fill="#C4B5FD"/>
</svg>
