<svg width="14" height="14" viewBox="0 0 14 14" fill="none" xmlns="http://www.w3.org/2000/svg">
    <g clip-path="url(#d51raty3ea)">
        <path fill-rule="evenodd" clip-rule="evenodd" d="M11.399 0c.791 0 1.435.644 1.435 1.442V14l-1.505-1.33-.847-.784-.896-.833.371 1.295H2.019a1.438 1.438 0 0 1-1.435-1.442V1.442C.584.644 1.228 0 2.019 0h9.38zM8.697 9.142c1.547-.049 2.142-1.064 2.142-1.064 0-2.254-1.008-4.081-1.008-4.081-1.008-.756-1.967-.735-1.967-.735l-.098.112c1.19.364 1.743.889 1.743.889a5.706 5.706 0 0 0-3.521-.658l-.119.014c-.245.021-.84.112-1.589.441-.259.119-.413.203-.413.203s.581-.553 1.841-.917l-.07-.084s-.959-.021-1.967.735c0 0-1.008 1.827-1.008 4.081 0 0 .588 1.015 2.135 1.064 0 0 .259-.315.469-.581-.889-.266-1.225-.826-1.225-.826l.196.119.028.021.027.016.009.003.027.016c.175.098.35.175.511.238.287.112.63.224 1.029.301a4.904 4.904 0 0 0 1.813.007 4.607 4.607 0 0 0 1.015-.301c.245-.091.518-.224.805-.413 0 0-.35.574-1.267.833.21.266.462.567.462.567zM5.442 5.873c-.399 0-.714.35-.714.777 0 .427.322.777.714.777.399 0 .714-.35.714-.777.007-.427-.315-.777-.714-.777zm2.555 0c-.399 0-.714.35-.714.777 0 .427.322.777.714.777.399 0 .714-.35.714-.777 0-.427-.315-.777-.714-.777z" fill="#989898"/>
    </g>
    <defs>
        <clipPath id="d51raty3ea">
            <path fill="#fff" d="M0 0h14v14H0z"/>
        </clipPath>
    </defs>
</svg>
