<svg width="80" height="13" viewBox="0 0 80 13" fill="none" xmlns="http://www.w3.org/2000/svg">
<path d="M40.216 3.93631V1.66168H42.2307C42.4226 1.66168 42.6052 1.67984 42.7788 1.71617C42.9617 1.74342 43.1215 1.7979 43.2586 1.87961C43.3956 1.96135 43.5053 2.07485 43.5875 2.22012C43.6697 2.36541 43.7108 2.55155 43.7108 2.77855C43.7108 3.18717 43.5875 3.48228 43.3408 3.6639C43.0942 3.8455 42.7788 3.93631 42.3953 3.93631H40.216ZM38.0645 0V9.72497H42.8064C43.2448 9.72497 43.6697 9.67049 44.0808 9.56152C44.5012 9.45256 44.8712 9.28458 45.1911 9.05757C45.5198 8.83057 45.7804 8.53998 45.9723 8.18586C46.1642 7.82264 46.2601 7.39589 46.2601 6.90555C46.2601 6.29718 46.1093 5.77959 45.8077 5.35281C45.5153 4.91695 45.0676 4.61278 44.4646 4.44026C44.9033 4.23141 45.2322 3.96353 45.4514 3.63664C45.6799 3.30975 45.7941 2.90115 45.7941 2.41081C45.7941 1.95678 45.7165 1.57543 45.5611 1.2667C45.4148 0.957958 45.2047 0.712802 44.9306 0.531204C44.6565 0.340506 44.3276 0.204313 43.9438 0.122578C43.5602 0.0408674 43.1353 0 42.6693 0H38.0645ZM40.216 8.06329V5.39368H42.5596C43.0256 5.39368 43.4001 5.50264 43.6835 5.72057C43.9668 5.92942 44.1084 6.28354 44.1084 6.78295C44.1084 7.03721 44.0625 7.24606 43.9713 7.4095C43.8891 7.57295 43.7749 7.7046 43.6286 7.80449C43.4825 7.8953 43.3134 7.9634 43.1215 8.0088C42.9296 8.04511 42.7287 8.06329 42.5185 8.06329H40.216Z" fill="white"/>
<path d="M47.3711 2.68289V9.72463H49.3172V6.55107C49.3172 6.23326 49.349 5.93816 49.4131 5.66575C49.477 5.39334 49.582 5.15726 49.7283 4.95748C49.8836 4.74863 50.0845 4.58519 50.3313 4.46715C50.5781 4.34911 50.8794 4.29009 51.2359 4.29009C51.3547 4.29009 51.4779 4.29916 51.606 4.31732C51.7337 4.32642 51.8435 4.34003 51.9347 4.35818V2.56028C51.7793 2.5149 51.6378 2.49219 51.51 2.49219C51.2632 2.49219 51.0257 2.52852 50.7973 2.60115C50.5688 2.67381 50.3541 2.77821 50.1532 2.91443C49.952 3.04154 49.7739 3.20045 49.6186 3.39115C49.4632 3.57275 49.34 3.77252 49.2485 3.99045H49.2212V2.68289H47.3711Z" fill="white"/>
<path d="M54.5613 1.59359V0H52.6152V1.59359H54.5613ZM52.6152 2.68322V9.72497H54.5613V2.68322H52.6152Z" fill="white"/>
<path d="M60.9874 6.18365C60.9874 6.47424 60.9601 6.75572 60.9052 7.02813C60.8504 7.30054 60.7589 7.5457 60.6312 7.76362C60.5032 7.97247 60.3295 8.14046 60.1103 8.26758C59.9001 8.39472 59.6351 8.45827 59.3154 8.45827C59.0138 8.45827 58.7535 8.39472 58.5343 8.26758C58.3241 8.13138 58.146 7.95886 57.9997 7.75001C57.8626 7.53208 57.7622 7.28693 57.6983 7.01452C57.6342 6.74211 57.6023 6.4697 57.6023 6.19729C57.6023 5.9067 57.6296 5.62976 57.6845 5.36645C57.7484 5.09404 57.8443 4.8534 57.9724 4.64455C58.1094 4.43572 58.2875 4.26774 58.5067 4.1406C58.7262 4.01348 58.9955 3.94992 59.3154 3.94992C59.6351 3.94992 59.9001 4.01348 60.1103 4.1406C60.3205 4.26774 60.4894 4.43572 60.6174 4.64455C60.7544 4.84432 60.8504 5.0804 60.9052 5.35281C60.9601 5.61614 60.9874 5.89309 60.9874 6.18365ZM61.0147 8.82603V9.72497H62.8651V0H60.9188V3.54129H60.8915C60.6722 3.19625 60.3706 2.93746 59.9871 2.76493C59.6123 2.58334 59.215 2.49253 58.7946 2.49253C58.2737 2.49253 57.817 2.59695 57.4242 2.8058C57.0311 3.00558 56.7022 3.27342 56.4374 3.60941C56.1816 3.94538 55.9852 4.33583 55.8479 4.78076C55.7201 5.21662 55.6562 5.67062 55.6562 6.14281C55.6562 6.63314 55.7201 7.1053 55.8479 7.55934C55.9852 8.01334 56.1816 8.4174 56.4374 8.77155C56.7022 9.11659 57.0359 9.39354 57.4377 9.60239C57.8398 9.80214 58.3058 9.90203 58.8357 9.90203C59.3016 9.90203 59.7175 9.82032 60.0828 9.65687C60.4576 9.48435 60.7589 9.2074 60.9874 8.82603H61.0147Z" fill="white"/>
<path d="M67.5006 8.06295C67.199 8.06295 66.948 7.99939 66.7468 7.87225C66.5459 7.74513 66.3813 7.58169 66.2535 7.38191C66.1348 7.18216 66.0479 6.9597 65.993 6.71452C65.9474 6.46028 65.9246 6.20603 65.9246 5.95177C65.9246 5.68844 65.9519 5.43874 66.0068 5.20266C66.0706 4.95748 66.1666 4.7441 66.2946 4.5625C66.4316 4.3718 66.596 4.22199 66.7879 4.11303C66.9891 4.00406 67.2266 3.94958 67.5006 3.94958C67.8203 3.94958 68.0854 4.0086 68.2956 4.12664C68.5057 4.24468 68.6746 4.40359 68.8026 4.60336C68.9306 4.80311 69.0218 5.03468 69.0767 5.29799C69.1316 5.55225 69.1589 5.82466 69.1589 6.11522C69.1589 6.36947 69.1223 6.61463 69.0494 6.85073C68.9852 7.07774 68.8848 7.28203 68.7478 7.46365C68.6107 7.64525 68.4371 7.79054 68.2269 7.8995C68.017 8.00847 67.7747 8.06295 67.5006 8.06295ZM71.0092 9.27516V2.68289H69.1589V3.62269H69.1316C68.8941 3.21407 68.5969 2.9235 68.2407 2.75098C67.8935 2.57846 67.4869 2.49219 67.0209 2.49219C66.5276 2.49219 66.0889 2.58754 65.7054 2.77821C65.3306 2.96891 65.0154 3.2277 64.7597 3.55459C64.5039 3.87239 64.3074 4.24468 64.1704 4.67146C64.0424 5.08916 63.9785 5.52499 63.9785 5.97902C63.9785 6.46028 64.0334 6.91883 64.1429 7.35468C64.2616 7.78146 64.4445 8.15827 64.691 8.48516C64.9378 8.80298 65.2529 9.05723 65.6367 9.24791C66.0205 9.42953 66.4773 9.52032 67.0074 9.52032C67.4368 9.52032 67.8434 9.43407 68.2269 9.26155C68.62 9.07993 68.9214 8.80298 69.1316 8.43068H69.1589V9.35687C69.1681 9.85629 69.0446 10.2694 68.7888 10.5963C68.5423 10.9232 68.1447 11.0867 67.5966 11.0867C67.2494 11.0867 66.9432 11.014 66.6784 10.8688C66.4134 10.7325 66.2352 10.4828 66.1438 10.1196H64.2115C64.2388 10.5191 64.3485 10.8597 64.5404 11.1412C64.7414 11.4317 64.9881 11.6678 65.2805 11.8494C65.5819 12.031 65.9108 12.1627 66.2673 12.2444C66.6326 12.3352 66.9891 12.3806 67.3363 12.3806C68.1493 12.3806 68.7981 12.2716 69.2824 12.0537C69.7666 11.8358 70.1366 11.5679 70.3924 11.2501C70.6482 10.9414 70.8126 10.6054 70.8857 10.2422C70.9679 9.879 71.0092 9.55665 71.0092 9.27516Z" fill="white"/>
<path d="M77.2096 5.44782H74.0437C74.053 5.31163 74.0803 5.15726 74.1261 4.98474C74.1808 4.81219 74.2677 4.64877 74.3864 4.4944C74.5145 4.34003 74.6788 4.21292 74.8797 4.11303C75.0899 4.00406 75.3505 3.94958 75.6611 3.94958C76.1361 3.94958 76.4878 4.0767 76.7163 4.33095C76.9538 4.58519 77.1184 4.95748 77.2096 5.44782ZM74.0437 6.67365H79.1559C79.1923 6.12883 79.1467 5.60673 79.0186 5.10732C78.8909 4.6079 78.6807 4.16297 78.3883 3.77252C78.105 3.38205 77.7397 3.07334 77.292 2.84633C76.8443 2.61023 76.319 2.49219 75.716 2.49219C75.1768 2.49219 74.6833 2.58754 74.2356 2.77821C73.7972 2.96891 73.4179 3.23224 73.0982 3.56821C72.7783 3.8951 72.5318 4.28555 72.3582 4.73956C72.1846 5.19356 72.0977 5.6839 72.0977 6.21057C72.0977 6.75538 72.1798 7.2548 72.3444 7.7088C72.518 8.16283 72.76 8.55328 73.0707 8.88018C73.3813 9.20707 73.7606 9.4613 74.2083 9.64292C74.656 9.81544 75.1586 9.90169 75.716 9.90169C76.5199 9.90169 77.2051 9.72009 77.7715 9.35687C78.338 8.99368 78.7583 8.38984 79.0324 7.54536H77.3193C77.2554 7.76329 77.0818 7.97214 76.7985 8.17191C76.5154 8.36259 76.1772 8.45794 75.7844 8.45794C75.2362 8.45794 74.8158 8.31718 74.5235 8.0357C74.2311 7.75421 74.0713 7.3002 74.0437 6.67365Z" fill="white"/>
<path d="M26.8995 6.18365C26.8995 6.47424 26.8722 6.75572 26.8173 7.02813C26.7625 7.30054 26.671 7.5457 26.5433 7.76362C26.4153 7.97247 26.2416 8.14046 26.0224 8.26758C25.8122 8.39472 25.5472 8.45827 25.2275 8.45827C24.9259 8.45827 24.6656 8.39472 24.4464 8.26758C24.2362 8.13138 24.0581 7.95886 23.9118 7.75001C23.7747 7.53208 23.6743 7.28693 23.6104 7.01452C23.5463 6.74211 23.5144 6.4697 23.5144 6.19729C23.5144 5.9067 23.5417 5.62976 23.5966 5.36645C23.6605 5.09404 23.7564 4.8534 23.8845 4.64455C24.0215 4.43572 24.1996 4.26774 24.4188 4.1406C24.6383 4.01348 24.9076 3.94992 25.2275 3.94992C25.5472 3.94992 25.8122 4.01348 26.0224 4.1406C26.2326 4.26774 26.4015 4.43572 26.5295 4.64455C26.6665 4.84432 26.7625 5.0804 26.8173 5.35281C26.8722 5.61614 26.8995 5.89309 26.8995 6.18365ZM26.9268 8.82603V9.72497H28.7772V0H26.8309V3.54129H26.8036C26.5844 3.19625 26.2827 2.93746 25.8992 2.76493C25.5244 2.58334 25.1271 2.49253 24.7067 2.49253C24.1858 2.49253 23.7291 2.59695 23.3363 2.8058C22.9432 3.00558 22.6143 3.27342 22.3495 3.60941C22.0937 3.94538 21.8973 4.33583 21.76 4.78076C21.6322 5.21662 21.5684 5.67062 21.5684 6.14281C21.5684 6.63314 21.6322 7.1053 21.76 7.55934C21.8973 8.01334 22.0937 8.4174 22.3495 8.77155C22.6143 9.11659 22.948 9.39354 23.3498 9.60239C23.7519 9.80214 24.2179 9.90203 24.7478 9.90203C25.2137 9.90203 25.6296 9.82032 25.9949 9.65687C26.3697 9.48435 26.671 9.2074 26.8995 8.82603H26.9268Z" fill="white"/>
<path d="M34.8795 5.44782H31.7139C31.7229 5.31163 31.7502 5.15726 31.7961 4.98474C31.8509 4.81219 31.9376 4.64877 32.0564 4.4944C32.1844 4.34003 32.3487 4.21292 32.5499 4.11303C32.7598 4.00406 33.0204 3.94958 33.331 3.94958C33.806 3.94958 34.1578 4.0767 34.3862 4.33095C34.6237 4.58519 34.7883 4.95748 34.8795 5.44782ZM31.7139 6.67365H36.8258C36.8624 6.12883 36.8166 5.60673 36.6888 5.10732C36.5608 4.6079 36.3506 4.16297 36.0582 3.77252C35.7751 3.38205 35.4096 3.07334 34.9619 2.84633C34.5143 2.61023 33.9889 2.49219 33.3859 2.49219C32.8468 2.49219 32.3532 2.58754 31.9056 2.77821C31.4671 2.96891 31.0878 3.23224 30.7682 3.56821C30.4483 3.8951 30.2017 4.28555 30.0281 4.73956C29.8545 5.19356 29.7676 5.6839 29.7676 6.21057C29.7676 6.75538 29.85 7.2548 30.0143 7.7088C30.1879 8.16283 30.43 8.55328 30.7406 8.88018C31.0513 9.20707 31.4306 9.4613 31.8782 9.64292C32.3259 9.81544 32.8285 9.90169 33.3859 9.90169C34.1898 9.90169 34.875 9.72009 35.4415 9.35687C36.0081 8.99368 36.4283 8.38984 36.7023 7.54536H34.9893C34.9254 7.76329 34.7518 7.97214 34.4684 8.17191C34.1853 8.36259 33.8471 8.45794 33.4543 8.45794C32.9061 8.45794 32.4858 8.31718 32.1934 8.0357C31.901 7.75421 31.7412 7.3002 31.7139 6.67365Z" fill="white"/>
<path d="M15.7974 9.93097H12.7301C12.0705 9.93097 11.7945 9.39204 11.7389 9.12258C11.6906 8.89144 11.622 8.66806 11.535 8.45429C11.388 7.99288 11.638 7.74099 11.7813 7.67273L13.0097 6.96777C13.179 7.24824 13.3155 7.5532 13.4287 7.86839C13.4937 8.04276 13.736 8.36575 14.1856 8.26269L15.5307 7.90732C15.7004 8.55777 15.7974 9.23233 15.7974 9.93097Z" fill="white"/>
<path fill-rule="evenodd" clip-rule="evenodd" d="M13.4709 4.36514C12.5013 3.40149 11.2892 2.67876 9.9075 2.31738L9.39844 4.22058C10.4166 4.48559 11.3377 5.0397 12.0649 5.76243L13.4709 4.36514Z" fill="white"/>
<path d="M2.7066 6.94274C2.19754 7.83411 1.90665 8.84594 1.90665 9.93004H1.00301C0.809566 9.93004 0.51478 9.86318 0.229234 9.56108C0.000782634 9.3194 -0.0141799 8.9355 0.00691014 8.77378C0.123546 8.00862 0.351452 7.27873 0.662173 6.59623C0.748148 6.39695 1.04906 6.05623 1.56491 6.28751L2.7066 6.94274Z" fill="white"/>
<path d="M15.7979 9.93049C15.7979 9.23184 15.7009 8.55729 15.5312 7.90684L16.7839 7.57595C17.0071 7.51764 17.4843 7.53832 17.607 8.08761C17.6531 8.32499 17.6909 8.56662 17.7196 8.81081C17.7424 8.95119 17.7215 9.30701 17.4562 9.60729C17.1909 9.90756 16.8114 9.93049 16.71 9.93049H15.7979Z" fill="white"/>
<path d="M12.0645 5.76321L14.4047 3.43748C14.5681 3.28489 14.988 3.08043 15.3602 3.48324C15.6297 3.79087 15.881 4.11653 16.1116 4.4628C16.2085 4.65683 16.2981 5.10477 15.8808 5.34432L13.0099 6.99185C12.7433 6.53411 12.4281 6.12456 12.0645 5.76321Z" fill="white"/>
<path d="M11.8464 3.11262C10.6829 2.43809 9.32538 2.05263 7.87095 2.05263C7.37218 2.05263 6.88561 2.10113 6.41123 2.18953C5.99119 2.26822 5.75271 1.93705 5.686 1.76162L5.495 1.04754C5.45037 0.830392 5.4827 0.369696 5.96908 0.264089C6.58358 0.142692 7.22726 0.0771484 7.87095 0.0771484C9.42024 0.0771484 10.8972 0.436563 12.2238 1.07779C12.4141 1.16676 12.7396 1.46692 12.5185 1.95596L11.8464 3.11262Z" fill="white"/>
<path d="M7.84727 4.02832C8.38058 4.02832 8.91379 4.1006 9.3986 4.22105L9.04517 5.54275C8.9995 5.71537 8.79392 6.04999 8.33704 6.00765C8.18654 5.98903 8.03138 5.97972 7.87152 5.97972C5.94385 5.97972 4.34937 7.34107 3.9778 9.13139C3.94783 9.25652 3.83625 9.54519 3.62991 9.69899C3.37199 9.89123 3.16011 9.93065 2.99431 9.93065H1.9082C1.9082 6.65425 4.57476 4.02832 7.84727 4.02832Z" fill="white"/>
</svg>
