<svg width="96" height="17" viewBox="0 0 96 17" fill="none" xmlns="http://www.w3.org/2000/svg">
<g clip-path="url(#clip0_3447_23886)">
<path d="M31.1369 5.21919L28.9419 11.4349C28.9318 11.4649 28.912 11.4907 28.8856 11.5082C28.8593 11.5256 28.8278 11.5337 28.7963 11.5312H28.6299C28.5983 11.5325 28.567 11.5239 28.5405 11.5066C28.5139 11.4894 28.4933 11.4643 28.4816 11.4349L26.8359 7.07557L25.1931 11.4349C25.1822 11.4644 25.1622 11.4895 25.1359 11.5069C25.1098 11.5242 25.0788 11.5327 25.0474 11.5312H24.8784C24.847 11.533 24.8159 11.5245 24.7896 11.5072C24.7634 11.4898 24.7435 11.4645 24.7328 11.4349L22.5377 5.22137C22.504 5.12504 22.5405 5.06517 22.6339 5.06517H23.3133C23.3453 5.06193 23.3774 5.06971 23.4043 5.08722C23.4313 5.10474 23.4516 5.13094 23.4616 5.1615L25.0263 9.86747L26.6169 5.5577C26.6284 5.52803 26.6489 5.50273 26.6756 5.48543C26.7022 5.46813 26.7336 5.45971 26.7653 5.46138H26.9083C26.9396 5.45979 26.9706 5.46827 26.9969 5.48561C27.0231 5.50293 27.043 5.5282 27.0539 5.5577L28.6919 9.86747L30.2201 5.1615C30.2302 5.13094 30.2504 5.10474 30.2774 5.08722C30.3043 5.06971 30.3365 5.06193 30.3685 5.06517H31.0375C31.1336 5.06517 31.1701 5.12504 31.1364 5.21919" fill="white"/>
<path d="M40.6908 8.24665C40.6847 8.88683 40.4895 9.51086 40.1299 10.0402C39.7703 10.5695 39.2623 10.9804 38.67 11.2212C38.0776 11.4619 37.4273 11.5218 36.8011 11.3931C36.1749 11.2645 35.6006 10.9531 35.1507 10.4983C34.7009 10.0435 34.3954 9.46545 34.2729 8.83707C34.1504 8.20877 34.2163 7.55818 34.4624 6.96728C34.7084 6.37639 35.1236 5.87163 35.6556 5.51656C36.1875 5.1615 36.8125 4.97203 37.4518 4.972C37.8814 4.96595 38.3079 5.04675 38.7056 5.20957C39.1034 5.37239 39.4642 5.61388 39.7666 5.91959C40.069 6.22531 40.3067 6.58898 40.4655 6.98882C40.6243 7.38866 40.7009 7.81645 40.6908 8.24665ZM39.7925 8.24665C39.7925 6.73967 38.8109 5.70181 37.4518 5.70181C36.0926 5.70181 35.1111 6.73967 35.1111 8.24665C35.1111 9.7536 36.0926 10.7915 37.4518 10.7915C38.8109 10.7915 39.7925 9.7536 39.7925 8.24665Z" fill="white"/>
<path d="M49.2684 11.1696C49.2891 11.1935 49.302 11.2233 49.3055 11.2548C49.309 11.2863 49.3028 11.3181 49.2878 11.3461C49.2729 11.374 49.2498 11.3968 49.2217 11.4113C49.1936 11.4258 49.1617 11.4315 49.1303 11.4275H48.5184C48.4985 11.4269 48.479 11.4214 48.4618 11.4114C48.4445 11.4014 48.43 11.3874 48.4195 11.3704L46.8837 9.04976H45.2332V11.2975C45.2328 11.3319 45.2188 11.3649 45.1945 11.3893C45.1702 11.4138 45.1372 11.4277 45.1028 11.428H44.5049C44.4705 11.4275 44.4378 11.4135 44.4135 11.3892C44.3892 11.3648 44.3755 11.3319 44.375 11.2975V5.19604C44.3756 5.16167 44.3895 5.12885 44.4137 5.10449C44.4379 5.08013 44.4706 5.06613 44.5049 5.06543H46.8559C48.5015 5.06543 49.314 5.9313 49.314 7.05732C49.324 7.50476 49.1739 7.94103 48.8907 8.28724C48.6075 8.63353 48.2101 8.86695 47.7701 8.94527L49.2684 11.1696ZM46.688 8.31992C47.982 8.31992 48.4168 7.78275 48.4168 7.05787C48.4168 6.33295 47.982 5.79579 46.688 5.79579H45.2326V8.31992H46.688Z" fill="white"/>
<path d="M59.3789 4.96271H59.574C59.5913 4.96159 59.6089 4.96421 59.6252 4.97037C59.6415 4.97654 59.6563 4.98613 59.6687 4.99849C59.681 5.01084 59.6906 5.02569 59.6967 5.04205C59.7029 5.05841 59.7055 5.07589 59.7044 5.09333V11.2976C59.7055 11.315 59.7029 11.3325 59.6967 11.3489C59.6906 11.3653 59.681 11.3801 59.6687 11.3924C59.6563 11.4048 59.6415 11.4144 59.6252 11.4205C59.6089 11.4267 59.5913 11.4293 59.574 11.4282H58.9762C58.9587 11.4293 58.9413 11.4267 58.925 11.4205C58.9087 11.4144 58.8938 11.4048 58.8814 11.3924C58.8691 11.3801 58.8596 11.3653 58.8534 11.3489C58.8473 11.3325 58.8446 11.315 58.8457 11.2976V6.89311L56.4371 10.3844C56.4293 10.4016 56.4166 10.4163 56.4007 10.4265C56.3847 10.4368 56.3661 10.4422 56.3472 10.4422C56.3282 10.4422 56.3097 10.4368 56.2937 10.4265C56.2778 10.4163 56.2651 10.4016 56.2572 10.3844L53.8491 6.89311V11.297C53.8503 11.3145 53.8477 11.332 53.8415 11.3483C53.8353 11.3647 53.8258 11.3795 53.8134 11.3919C53.8011 11.4042 53.7863 11.4139 53.77 11.42C53.7536 11.4262 53.7361 11.4288 53.7187 11.4277H53.1209C53.1035 11.4288 53.086 11.4262 53.0697 11.42C53.0534 11.4139 53.0386 11.4042 53.0262 11.3919C53.0139 11.3795 53.0043 11.3647 52.9981 11.3483C52.992 11.332 52.9893 11.3145 52.9905 11.297V5.09279C52.9893 5.07534 52.992 5.05786 52.9981 5.04151C53.0043 5.02515 53.0139 5.0103 53.0262 4.99794C53.0386 4.98558 53.0534 4.976 53.0697 4.96983C53.086 4.96366 53.1035 4.96105 53.1209 4.96217H53.3139C53.3463 4.96229 53.3781 4.97046 53.4066 4.98593C53.435 5.00142 53.4592 5.02373 53.4769 5.05088L56.3463 9.06351L59.218 5.05088C59.2348 5.02386 59.2582 5.00156 59.286 4.98605C59.3137 4.97053 59.3449 4.96232 59.3767 4.96217" fill="white"/>
<path d="M69.3655 5.19604V11.2969C69.3649 11.3314 69.351 11.3642 69.3267 11.3886C69.3023 11.413 69.2694 11.427 69.2351 11.4275H68.6373C68.6028 11.427 68.57 11.413 68.5457 11.3886C68.5213 11.3642 68.5074 11.3314 68.5068 11.2969V8.51748H64.5521V11.2969C64.5515 11.3314 64.5376 11.3642 64.5132 11.3886C64.4889 11.413 64.4561 11.427 64.4216 11.4275H63.8238C63.7894 11.427 63.7566 11.413 63.7322 11.3886C63.7079 11.3642 63.694 11.3314 63.6934 11.2969V5.19604C63.694 5.16158 63.7079 5.12868 63.7322 5.1043C63.7566 5.07993 63.7894 5.06599 63.8238 5.06543H64.4216C64.4561 5.06599 64.4889 5.07993 64.5132 5.1043C64.5376 5.12868 64.5515 5.16158 64.5521 5.19604V7.78772H68.5068V5.19604C68.5074 5.16158 68.5213 5.12868 68.5457 5.1043C68.57 5.07993 68.6028 5.06599 68.6373 5.06543H69.2351C69.2694 5.06599 69.3023 5.07993 69.3267 5.1043C69.351 5.12868 69.3649 5.16158 69.3655 5.19604Z" fill="white"/>
<path d="M79.5286 8.24665C79.5224 8.88683 79.3271 9.51086 78.9678 10.0402C78.6086 10.5695 78.1001 10.9804 77.5078 11.2212C76.9155 11.4619 76.2653 11.5218 75.639 11.3931C75.0128 11.2645 74.4385 10.9531 73.9886 10.4983C73.5387 10.0435 73.2333 9.46545 73.1108 8.83707C72.9883 8.20877 73.0542 7.55818 73.3003 6.96728C73.5463 6.37639 73.9614 5.87163 74.4934 5.51656C75.0254 5.1615 75.6504 4.97203 76.2897 4.972C76.7193 4.96595 77.1455 5.04675 77.5432 5.20957C77.9409 5.37239 78.3024 5.61388 78.6048 5.91959C78.9071 6.22531 79.1447 6.58898 79.3032 6.98882C79.4624 7.38866 79.5386 7.81645 79.5286 8.24665ZM78.6301 8.24665C78.6301 6.73967 77.6486 5.70181 76.2897 5.70181C74.9304 5.70181 73.949 6.73967 73.949 8.24665C73.949 9.7536 74.9304 10.7915 76.2897 10.7915C77.6486 10.7915 78.6301 9.7536 78.6301 8.24665Z" fill="white"/>
<path d="M87.711 10.8278V11.2969C87.7125 11.3143 87.7095 11.3319 87.7033 11.3482C87.6971 11.3646 87.6879 11.3794 87.6756 11.3917C87.6633 11.4041 87.6479 11.4137 87.6318 11.4199C87.6156 11.426 87.5979 11.4287 87.581 11.4275H83.3448C83.3102 11.427 83.2779 11.413 83.2533 11.3886C83.2287 11.3642 83.2148 11.3314 83.2148 11.2969V5.19604C83.2148 5.16158 83.2287 5.12868 83.2533 5.1043C83.2779 5.07993 83.3102 5.06599 83.3448 5.06543H83.9425C83.9771 5.06613 84.0095 5.08013 84.0341 5.10449C84.0579 5.12885 84.0718 5.16167 84.0725 5.19604V10.6972H87.5825C87.5995 10.696 87.6171 10.6987 87.6333 10.7048C87.6502 10.711 87.6648 10.7206 87.6772 10.7329C87.6895 10.7453 87.6987 10.7602 87.7048 10.7765C87.711 10.7928 87.7141 10.8103 87.7125 10.8278" fill="white"/>
<path d="M95.9623 10.8271V11.2962C95.9639 11.3136 95.9608 11.3311 95.9546 11.3475C95.9485 11.3639 95.9393 11.3787 95.927 11.391C95.9146 11.4034 95.8993 11.413 95.8831 11.4191C95.8669 11.4253 95.8493 11.4279 95.8323 11.4268H91.2577C91.2231 11.4263 91.1908 11.4123 91.1662 11.3879C91.1416 11.3635 91.1277 11.3306 91.127 11.2962V5.19532C91.1277 5.16085 91.1416 5.12795 91.1662 5.10358C91.1908 5.0792 91.2231 5.06526 91.2577 5.0647H95.7285C95.7454 5.06359 95.7631 5.0662 95.7793 5.07237C95.7954 5.07854 95.8108 5.08812 95.8231 5.10048C95.8354 5.11284 95.8446 5.12769 95.8508 5.14405C95.8569 5.1604 95.86 5.17788 95.8585 5.19532V5.66446C95.86 5.6819 95.8569 5.69938 95.8508 5.71573C95.8446 5.73208 95.8354 5.74694 95.8231 5.7593C95.8108 5.77166 95.7954 5.78124 95.7793 5.78741C95.7631 5.79358 95.7454 5.79619 95.7285 5.79507H91.9846V7.78695H95.3116C95.3293 7.78586 95.3462 7.78842 95.3623 7.7944C95.3785 7.80045 95.3931 7.80977 95.4054 7.82188C95.4177 7.83391 95.427 7.84843 95.4339 7.8645C95.44 7.88049 95.4423 7.89764 95.4416 7.91487V8.38668C95.4431 8.40407 95.44 8.42146 95.4339 8.43768C95.4277 8.45391 95.4185 8.46866 95.4062 8.481C95.3939 8.49326 95.3793 8.50281 95.3631 8.50902C95.3469 8.51515 95.3293 8.51779 95.3116 8.51678H91.9846V10.6964H95.8323C95.85 10.6953 95.8677 10.6979 95.8839 10.7041C95.9 10.7102 95.9146 10.7199 95.927 10.7322C95.9393 10.7446 95.9493 10.7595 95.9554 10.7758C95.9616 10.7921 95.9639 10.8096 95.9631 10.8271" fill="white"/>
<path d="M8.36608 16.9402C6.14896 16.9387 4.02299 16.0498 2.45458 14.4685C0.886162 12.8872 0.00340825 10.7426 0 8.5053C0.00340777 6.26787 0.886115 4.12316 2.4545 2.54167C4.02288 0.960185 6.14887 0.0710531 8.36608 0.0693359C10.5832 0.0710531 12.7092 0.960185 14.2775 2.54167C15.8459 4.12316 16.7286 6.26787 16.7321 8.5053C16.7286 10.7426 15.8459 12.8872 14.2775 14.4685C12.7091 16.0498 10.5832 16.9387 8.36608 16.9402ZM8.36608 0.718754C6.31945 0.720186 4.357 1.54081 2.90924 3.00057C1.46148 4.46034 0.646666 6.44002 0.643542 8.5053C0.645532 10.5708 1.46003 12.5511 2.90806 14.0109C4.35609 15.4707 6.31921 16.2908 8.36608 16.2908C10.4128 16.2908 12.376 15.4707 13.824 14.0109C15.2721 12.5511 16.0865 10.5708 16.0885 8.5053C16.0854 6.44002 15.2705 4.46034 13.8228 3.00057C12.3751 1.54081 10.4126 0.720186 8.36608 0.718754Z" fill="white"/>
<path d="M9.42311 15.6056C7.58628 15.6041 5.82501 14.8676 4.52567 13.5574C3.22633 12.2471 2.49503 10.4704 2.49219 8.61675C2.49503 6.76316 3.22633 4.98636 4.52567 3.67617C5.82501 2.36597 7.58628 1.62937 9.42311 1.62793C11.26 1.62937 13.0212 2.36597 14.3206 3.67617C15.6199 4.98636 16.3512 6.76316 16.354 8.61675C16.3512 10.4704 15.6199 12.2471 14.3206 13.5574C13.0212 14.8676 11.26 15.6041 9.42311 15.6056ZM9.42311 2.13232C7.71896 2.13375 6.0849 2.81725 4.87946 4.03289C3.67403 5.24853 2.99563 6.89703 2.99307 8.61675C2.99591 10.3363 3.67445 11.9845 4.87986 13.1999C6.08526 14.4154 7.71911 15.0987 9.42311 15.1001C11.1271 15.0987 12.761 14.4154 13.9663 13.1999C15.1718 11.9845 15.8503 10.3363 15.8532 8.61675C15.8503 6.89722 15.1718 5.24898 13.9663 4.03358C12.761 2.81818 11.1271 2.13483 9.42311 2.1334V2.13232Z" fill="white"/>
<path d="M10.4822 14.2719C9.02566 14.2707 7.6291 13.6867 6.5988 12.6478C5.5685 11.6089 4.98861 10.2 4.98633 8.73014C4.98861 7.26038 5.5685 5.85151 6.5988 4.81261C7.6291 3.77371 9.02566 3.18963 10.4822 3.18848C11.9387 3.18934 13.3355 3.77333 14.3658 4.81229C15.3962 5.85125 15.976 7.26029 15.978 8.73014C15.9757 10.2 15.3958 11.6089 14.3655 12.6478C13.3352 13.6867 11.9387 14.2707 10.4822 14.2719ZM10.4822 3.5489C9.12035 3.54976 7.81443 4.09578 6.85102 5.06715C5.88764 6.03852 5.34547 7.35588 5.34348 8.73014C5.34575 10.1043 5.88806 11.4213 6.85141 12.3925C7.81474 13.3636 9.12051 13.9096 10.4822 13.9104C11.8438 13.9096 13.1496 13.3636 14.113 12.3925C15.0763 11.4213 15.6186 10.1043 15.6209 8.73014C15.6189 7.35588 15.0767 6.03852 14.1133 5.06715C13.1499 4.09578 11.844 3.54976 10.4822 3.5489Z" fill="white"/>
<path d="M11.5392 12.9373C10.4631 12.9365 9.43117 12.5049 8.66994 11.7373C7.90871 10.9697 7.48022 9.92872 7.47852 8.84274C7.47993 7.75656 7.90825 6.71531 8.66955 5.94748C9.43086 5.17964 10.4629 4.74793 11.5392 4.74707C12.6156 4.74793 13.6476 5.17964 14.4089 5.94748C15.1702 6.71531 15.5986 7.75656 15.6 8.84274C15.5982 9.92872 15.1699 10.9697 14.4086 11.7373C13.6473 12.5049 12.6154 12.9365 11.5392 12.9373ZM11.5392 4.96354C10.5198 4.96441 9.54232 5.3733 8.82125 6.10054C8.10017 6.82778 7.69448 7.81396 7.69302 8.84274C7.69471 9.87127 8.10063 10.8572 8.82163 11.5842C9.54263 12.3112 10.52 12.72 11.5392 12.7208C12.5585 12.72 13.5359 12.3112 14.2569 11.5842C14.9779 10.8572 15.3838 9.87127 15.3855 8.84274C15.384 7.81396 14.9783 6.82778 14.2572 6.10054C13.5362 5.3733 12.5587 4.96441 11.5392 4.96354Z" fill="white"/>
</g>
<defs>
<clipPath id="clip0_3447_23886">
<rect width="96" height="17" fill="white"/>
</clipPath>
</defs>
</svg>
