<svg width="24" height="24" viewBox="0 0 24 24" fill="none" xmlns="http://www.w3.org/2000/svg">
    <path d="m11.05 10.359 1.81-1.837a.69.69 0 0 0-.4-1.168l-2.556-.323-1.185-2.294a.687.687 0 0 0-.609-.373h-.013a.682.682 0 0 0-.609.397L6.391 7.099l-2.543.42A.685.685 0 0 0 3.49 8.7l1.88 1.767-.386 2.553c-.04.26.074.515.286.67.225.165.619.094.723.037l2.258-1.245 2.304 1.157a.688.688 0 0 0 .983-.747l-.488-2.533zm-1.23-.71a.687.687 0 0 0-.186.612l.29 1.524-1.383-.696a.683.683 0 0 0-.64.013l-1.355.747.232-1.534a.689.689 0 0 0-.208-.605L5.442 8.65l1.528-.253a.694.694 0 0 0 .511-.386l.656-1.403.71 1.376c.105.201.3.34.525.366l1.534.192L9.82 9.65zM14.923 8.327a.686.686 0 1 0-.838 1.09c1.797 1.386 4.499 3.987 4.283 6.967-1.053-1.238-2.93-2.967-5.255-3.058a.68.68 0 0 0-.713.66c-.014.38.28.7.66.713 2.829.11 5.042 3.61 5.066 3.647.343.552.949.599 1.225-.118 1.736-4.518-2.524-8.431-4.428-9.901z" fill="#8988A3"/>
</svg>
