<svg width="24" height="24" viewBox="0 0 24 24" fill="none" xmlns="http://www.w3.org/2000/svg">
    <path d="M9.6 16.87c.267.326.4.717.4 1.174C10 19.152 9.133 20 8 20s-2-.848-2-1.956c0-1.11.867-1.957 2-1.957.267 0 .533.065.8.196l.933-1.174A2.937 2.937 0 0 1 9 12.696l-1.333-.457A1.972 1.972 0 0 1 6 13.152c-1.133 0-2-.848-2-1.956 0-1.109.867-1.957 2-1.957s2 .848 2 1.957v.13l1.333.457c.4-.783 1.2-1.37 2.134-1.5V8.848C10.667 8.652 10 7.87 10 6.957 10 5.847 10.867 5 12 5s2 .848 2 1.957c0 .913-.667 1.695-1.467 1.89v1.436c.934.13 1.734.717 2.134 1.5L16 11.326v-.13c0-1.109.867-1.957 2-1.957s2 .848 2 1.957c0 1.108-.867 1.956-2 1.956a1.972 1.972 0 0 1-1.667-.913L15 12.696a2.937 2.937 0 0 1-.733 2.413l.933 1.174c.267-.13.533-.196.8-.196 1.133 0 2 .848 2 1.957C18 19.152 17.133 20 16 20s-2-.848-2-1.956c0-.457.133-.848.4-1.174l-.933-1.174c-.934.521-2 .521-2.934 0L9.6 16.87z" fill="#8988A3"/>
</svg>
