<svg width="24" height="24" viewBox="0 0 24 24" fill="none" xmlns="http://www.w3.org/2000/svg">
    <path d="M19 15.6a.796.796 0 0 1-.412.704l-6.145 3.552A.72.72 0 0 1 12 20a.72.72 0 0 1-.443-.144l-6.145-3.552A.796.796 0 0 1 5 15.6V8.4c0-.304.163-.568.412-.704l6.145-3.552A.72.72 0 0 1 12 4a.72.72 0 0 1 .443.144l6.145 3.552c.249.136.412.4.412.704v7.2zm-7-9.88-1.47.856 4.581 2.712 1.525-.888L12 5.72zM7.364 8.4 12 11.08l1.524-.88-4.573-2.72-1.587.92zm-.808 6.728 4.666 2.704v-5.368L6.556 9.768v5.36zm10.888 0v-5.36l-4.666 2.696v5.368l4.666-2.704z" fill="#C4B5FD"/>
</svg>
