<svg width="13" height="15" viewBox="0 0 13 15" fill="none" xmlns="http://www.w3.org/2000/svg">
    <path d="M12.906.625A.628.628 0 0 0 12.28 0H2.5A2.382 2.382 0 0 0 .093 2.375v10.719C.094 14.157.968 15 2.031 15H12.25c.251 0 .5-.156.595-.408.095-.251.03-.53-.187-.686-.555-.353-.589-1.125-.095-1.468.104-.104.34-.32.321-.626.016-.049.022-11.187.022-11.187zM1.345 13.094c0-.374.312-.656.686-.656h9.002c-.276.46-.217.999 0 1.311H2.031c-.374 0-.686-.278-.686-.655zm10.313-1.907H2.034c-.242 0-.472.046-.686.129v-8.94c0-.626.53-1.125 1.155-1.125h9.159v9.936h-.004z" fill="#fff"/>
</svg>
