<svg width="15" height="15" viewBox="0 0 15 15" fill="none" xmlns="http://www.w3.org/2000/svg">
    <g clip-path="url(#h1s3kt9l1a)">
        <path fill-rule="evenodd" clip-rule="evenodd" d="M12.213 0c.848 0 1.538.69 1.538 1.545V15l-1.613-1.425-.907-.84-.96-.892.397 1.387H2.163c-.847 0-1.537-.69-1.537-1.545V1.545C.626.69 1.316 0 2.163 0h10.05zM9.318 9.795c1.658-.052 2.295-1.14 2.295-1.14 0-2.415-1.08-4.372-1.08-4.372-1.08-.81-2.107-.788-2.107-.788l-.105.12c1.275.39 1.867.953 1.867.953a6.113 6.113 0 0 0-3.772-.705l-.128.015c-.262.022-.9.12-1.702.472-.278.128-.443.218-.443.218s.623-.593 1.973-.983l-.075-.09s-1.028-.022-2.108.788c0 0-1.08 1.957-1.08 4.372 0 0 .63 1.088 2.288 1.14 0 0 .277-.337.502-.622-.952-.285-1.312-.885-1.312-.885l.21.127.03.023.03.017.008.003.03.017c.187.105.374.188.547.255.307.12.675.24 1.102.323a5.254 5.254 0 0 0 1.943.007c.352-.06.712-.165 1.087-.322.263-.098.555-.24.863-.443 0 0-.375.615-1.358.893.225.285.495.607.495.607zM5.831 6.293c-.428 0-.765.375-.765.832 0 .458.345.833.765.833.427 0 .765-.375.765-.833.007-.457-.338-.832-.765-.832zm2.737 0c-.427 0-.765.375-.765.832 0 .458.345.833.765.833.428 0 .765-.375.765-.833 0-.457-.337-.832-.765-.832z" fill="#fff"/>
    </g>
    <defs>
        <clipPath id="h1s3kt9l1a">
            <path fill="#fff" d="M0 0h15v15H0z"/>
        </clipPath>
    </defs>
</svg>
