<svg width="18" height="14" viewBox="0 0 18 14" fill="none" xmlns="http://www.w3.org/2000/svg">
    <path d="m6.91.066-.488.059s-2.19.24-3.79 1.523h-.019l-.02.02c-.358.33-.514.735-.761 1.328-.247.593-.51 1.35-.742 2.188C.626 6.86.25 8.892.25 10.75v.156l.078.156c.579 1.016 1.607 1.663 2.559 2.11.952.447 1.775.683 2.343.703l.372.02.195-.332.683-1.211c.726.163 1.56.273 2.52.273s1.794-.11 2.52-.273l.683 1.21.195.333.372-.02c.568-.02 1.391-.256 2.343-.703.952-.447 1.98-1.094 2.559-2.11l.078-.156v-.156c0-1.858-.376-3.89-.84-5.566a19.191 19.191 0 0 0-.742-2.188c-.247-.593-.403-.998-.762-1.328l-.02-.02h-.019C13.768.364 11.578.125 11.578.125L11.09.066l-.176.45s-.18.456-.293.976A12.559 12.559 0 0 0 9 1.375c-.334 0-.913.022-1.621.117-.112-.52-.293-.976-.293-.976L6.91.066zm-.86 1.426c.028.088.054.164.079.235-.808.2-1.67.505-2.461.996l.664 1.054C5.953 2.771 8.282 2.625 9 2.625s3.047.146 4.668 1.152l.664-1.054c-.791-.491-1.653-.796-2.46-.996.024-.071.05-.147.077-.235.584.117 1.697.386 2.617 1.113-.005.003.235.364.45.88.22.53.463 1.235.683 2.03.423 1.527.755 3.384.781 5.02-.393.6-1.123 1.143-1.894 1.504a6.086 6.086 0 0 1-1.524.488L12.75 12c.185-.068.369-.144.527-.215.962-.422 1.485-.879 1.485-.879l-.82-.937s-.352.322-1.172.683c-.82.362-2.073.723-3.77.723s-2.95-.361-3.77-.723c-.82-.361-1.171-.683-1.171-.683l-.82.937s.522.457 1.484.88c.158.07.341.146.527.214l-.313.527a6.087 6.087 0 0 1-1.523-.488c-.771-.361-1.501-.903-1.894-1.504.026-1.636.358-3.494.78-5.02.22-.795.465-1.5.684-2.03.215-.516.454-.877.45-.88.92-.727 2.033-.996 2.617-1.113zm.763 4.258c-.484 0-.911.276-1.172.625-.262.35-.391.779-.391 1.25s.13.9.39 1.25c.262.35.69.625 1.173.625.483 0 .91-.276 1.171-.625.262-.35.391-.779.391-1.25s-.13-.9-.39-1.25c-.262-.35-.69-.625-1.173-.625zm4.375 0c-.484 0-.911.276-1.172.625-.262.35-.391.779-.391 1.25s.13.9.39 1.25c.262.35.69.625 1.172.625.484 0 .911-.276 1.172-.625.262-.35.391-.779.391-1.25s-.13-.9-.39-1.25c-.262-.35-.69-.625-1.172-.625zM6.811 7c.035 0 .079.012.157.117a.876.876 0 0 1 .156.508c0 .22-.078.403-.156.508-.078.105-.122.117-.157.117-.034 0-.078-.012-.156-.117a.876.876 0 0 1-.156-.508c0-.22.078-.403.156-.508.078-.105.122-.117.157-.117zm4.375 0c.035 0 .079.012.157.117a.876.876 0 0 1 .156.508c0 .22-.078.403-.156.508-.078.105-.122.117-.156.117-.035 0-.079-.012-.157-.117a.876.876 0 0 1-.156-.508c0-.22.078-.403.156-.508.078-.105.122-.117.156-.117z" fill="#fff"/>
</svg>
