<svg width="18" height="18" viewBox="0 0 18 18" fill="none" xmlns="http://www.w3.org/2000/svg">
    <g clip-path="url(#2nooia9bja)" fill="#fff">
        <path d="M17.082 13.987c.42 0 .765.344.765.765v2.484c0 .42-.344.764-.765.764a.767.767 0 0 1-.764-.764v-2.484c0-.42.344-.765.764-.765zM14.867 13.987c.42 0 .764.344.764.765v2.484c0 .42-.344.764-.764.764a.767.767 0 0 1-.765-.764v-2.484c0-.42.344-.765.764-.765zM12.65 13.987c.42 0 .764.344.764.765v2.484c0 .42-.344.764-.764.764a.767.767 0 0 1-.765-.764v-2.484c0-.42.344-.765.765-.765zM.764 3.516h4.204V1.529H3.936a.767.767 0 0 1-.764-.765c0-.42.344-.764.764-.764H7.53c.42 0 .764.344.764.764 0 .42-.344.765-.764.765H6.497v1.987h8.178C16.51 3.516 18 4.968 18 6.764v5.81c0 .42-.344.764-.764.764h-5.121c-.42 0-.765-.306-.765-.727v-2.56H.764A.767.767 0 0 1 0 9.287V4.28c0-.42.344-.764.764-.764zm11.312 5.006c.42 0 .765.344.765.765v2.56h3.669V6.764c0-.955-.841-1.758-1.835-1.758H1.49v3.516h10.586z"/>
    </g>
    <defs>
        <clipPath id="2nooia9bja">
            <path fill="#fff" transform="matrix(-1 0 0 1 18 0)" d="M0 0h18v18H0z"/>
        </clipPath>
    </defs>
</svg>
