<svg width="21" height="20" viewBox="0 0 21 20" fill="none" xmlns="http://www.w3.org/2000/svg">
    <g clip-path="url(#pahaapwwia)">
        <path d="M18.451 5.92c.012.177.012.353.012.531 0 5.422-4.127 11.675-11.675 11.675v-.003a11.616 11.616 0 0 1-6.29-1.84 8.24 8.24 0 0 0 6.073-1.7 4.108 4.108 0 0 1-3.833-2.85 4.088 4.088 0 0 0 1.852-.07A4.104 4.104 0 0 1 1.3 7.64v-.052c.57.317 1.209.494 1.862.513a4.108 4.108 0 0 1-1.27-5.478 11.646 11.646 0 0 0 8.457 4.286 4.106 4.106 0 0 1 6.992-3.742 8.234 8.234 0 0 0 2.606-.996 4.118 4.118 0 0 1-1.804 2.27 8.16 8.16 0 0 0 2.357-.647 8.334 8.334 0 0 1-2.048 2.126z" fill="#fff"/>
    </g>
    <defs>
        <clipPath id="pahaapwwia">
            <path fill="#fff" transform="translate(.5)" d="M0 0h20v20H0z"/>
        </clipPath>
    </defs>
</svg>
