<svg width="23" height="22" viewBox="0 0 23 22" fill="none" xmlns="http://www.w3.org/2000/svg">
    <g clip-path="url(#zthmklmasa)">
        <path fill-rule="evenodd" clip-rule="evenodd" d="M18.412 0a2.26 2.26 0 0 1 2.255 2.266V22L18.3 19.91l-1.33-1.232-1.409-1.309.583 2.035H3.672a2.26 2.26 0 0 1-2.256-2.266V2.266A2.26 2.26 0 0 1 3.672 0h14.74zm-4.246 14.366c2.43-.077 3.366-1.672 3.366-1.672 0-3.542-1.585-6.413-1.585-6.413-1.583-1.188-3.09-1.155-3.09-1.155l-.154.176c1.87.572 2.739 1.397 2.739 1.397a8.967 8.967 0 0 0-5.534-1.034l-.186.022c-.386.033-1.32.176-2.497.693-.407.187-.65.319-.65.319s.913-.869 2.894-1.441l-.11-.132S7.85 5.093 6.267 6.281c0 0-1.584 2.871-1.584 6.413 0 0 .923 1.595 3.355 1.672 0 0 .406-.495.736-.913-1.397-.418-1.925-1.298-1.925-1.298l.309.187.043.033.044.025.012.005.043.025c.276.154.55.275.803.374.452.176.99.352 1.618.473a7.706 7.706 0 0 0 2.848.011 7.24 7.24 0 0 0 1.595-.473 6.295 6.295 0 0 0 1.266-.649s-.55.902-1.991 1.309c.33.418.726.891.726.891zM9.05 9.229c-.627 0-1.122.55-1.122 1.221s.506 1.221 1.122 1.221c.627 0 1.122-.55 1.122-1.221.011-.671-.495-1.221-1.122-1.221zm4.015 0c-.627 0-1.121.55-1.121 1.221s.505 1.221 1.121 1.221c.628 0 1.123-.55 1.123-1.221s-.495-1.221-1.123-1.221z" fill="#fff"/>
    </g>
    <defs>
        <clipPath id="zthmklmasa">
            <path fill="#fff" transform="translate(.5)" d="M0 0h22v22H0z"/>
        </clipPath>
    </defs>
</svg>
