<svg width="15" height="15" viewBox="0 0 15 15" fill="none" xmlns="http://www.w3.org/2000/svg">
    <path d="M7.5 0C3.364 0 0 3.364 0 7.5 0 11.635 3.365 15 7.5 15c4.136 0 7.5-3.365 7.5-7.5C15 3.364 11.636 0 7.5 0zm0 13.636A6.143 6.143 0 0 1 1.364 7.5 6.143 6.143 0 0 1 7.5 1.364 6.143 6.143 0 0 1 13.636 7.5 6.143 6.143 0 0 1 7.5 13.636z" fill="#fff"/>
    <path d="M7.5 5.91a.682.682 0 0 0-.682.681v4.545a.682.682 0 0 0 1.364 0V6.59a.682.682 0 0 0-.682-.682zM7.5 3.182a.688.688 0 0 0-.482.2.687.687 0 0 0-.2.482c0 .18.073.355.2.482s.303.2.482.2c.18 0 .355-.073.482-.2a.688.688 0 0 0 .2-.482.687.687 0 0 0-.2-.482.687.687 0 0 0-.482-.2z" fill="#fff"/>
</svg>
