<svg width="18" height="18" viewBox="0 0 18 18" fill="none" xmlns="http://www.w3.org/2000/svg">
    <g clip-path="url(#dx9qjj0l7a)" stroke="#fff" stroke-width="1.5" stroke-miterlimit="10" stroke-linecap="round" stroke-linejoin="round">
        <path d="M6 4.5v-.6c0-1.328 0-2.4 2.4-2.4h1.2C12 1.5 12 2.572 12 3.9v.6m-6 12h6c3.015 0 3.555-1.207 3.712-2.678l.563-6c.202-1.83-.323-3.322-3.525-3.322h-7.5c-3.203 0-3.728 1.492-3.525 3.322l.562 6C2.445 15.293 2.985 16.5 6 16.5z"/>
        <path d="M16.237 8.25a12.363 12.363 0 0 1-5.737 2.265M1.965 8.452a12.212 12.212 0 0 0 5.535 2.07m3-.772v.765C10.5 11.332 10.492 12 9 12c-1.485 0-1.5-.66-1.5-1.477V9.75c0-.75 0-.75.75-.75h1.5c.75 0 .75 0 .75.75z"/>
    </g>
    <defs>
        <clipPath id="dx9qjj0l7a">
            <path fill="#fff" d="M0 0h18v18H0z"/>
        </clipPath>
    </defs>
</svg>
