<svg width="15" height="15" viewBox="0 0 15 15" fill="none" xmlns="http://www.w3.org/2000/svg">
    <g clip-path="url(#suafztovqa)">
        <path d="m13.17 4.036-.225.163.02.277c.007.112.007.227.007.363 0 3.796-2.845 8.128-8.025 8.254h-.232a8.209 8.209 0 0 1-2.711-.457 6.68 6.68 0 0 0 2.858-1.305l1.104-.866-1.403-.027a2.582 2.582 0 0 1-2.059-1.09c.235-.016.468-.056.696-.118l-.033-.972a2.579 2.579 0 0 1-1.96-1.79c.252.065.512.102.774.11l1.74.051-1.447-.967A2.582 2.582 0 0 1 1.2 2.898a9.234 9.234 0 0 0 6.16 2.785l.662.033-.15-.645a2.58 2.58 0 0 1 4.393-2.351l.19.201.27-.054c.157-.03.311-.067.464-.108-.07.051-.141.1-.215.144l.315.925.179-.023c-.097.08-.197.157-.3.231z" fill="#C5C7D9" stroke="#C5C7D9"/>
    </g>
    <defs>
        <clipPath id="suafztovqa">
            <path fill="#fff" d="M0 0h15v15H0z"/>
        </clipPath>
    </defs>
</svg>
