<svg width="15" height="15" viewBox="0 0 15 15" fill="none" xmlns="http://www.w3.org/2000/svg">
    <g clip-path="url(#8doc5lob9a)">
        <path d="M12.698 2.73a12.368 12.368 0 0 0-3.053-.946.046.046 0 0 0-.05.023c-.13.235-.277.54-.38.781a11.42 11.42 0 0 0-3.428 0 7.901 7.901 0 0 0-.386-.78.048.048 0 0 0-.05-.024c-1.054.182-2.08.5-3.053.947a.044.044 0 0 0-.02.017C.333 5.653-.2 8.488.062 11.285a.051.051 0 0 0 .02.036 12.437 12.437 0 0 0 3.745 1.894.05.05 0 0 0 .053-.018c.29-.393.546-.81.766-1.246a.047.047 0 0 0-.026-.066 8.202 8.202 0 0 1-1.17-.558.049.049 0 0 1-.024-.038.048.048 0 0 1 .02-.042c.078-.059.156-.12.232-.182a.046.046 0 0 1 .048-.007c2.455 1.121 5.112 1.121 7.539 0a.047.047 0 0 1 .048.007c.075.06.154.123.234.182a.048.048 0 0 1 .012.063.049.049 0 0 1-.016.017 7.7 7.7 0 0 1-1.17.557.049.049 0 0 0-.03.047c-.001.007 0 .014.004.02.225.436.482.851.765 1.246a.047.047 0 0 0 .053.017 12.4 12.4 0 0 0 3.75-1.894.048.048 0 0 0 .02-.033c.313-3.236-.523-6.047-2.217-8.538a.038.038 0 0 0-.02-.019zM5.013 9.58c-.74 0-1.348-.677-1.348-1.51 0-.834.597-1.513 1.348-1.513.756 0 1.36.685 1.348 1.513 0 .833-.598 1.51-1.348 1.51zm4.984 0c-.74 0-1.348-.677-1.348-1.51 0-.834.597-1.513 1.348-1.513.756 0 1.36.685 1.348 1.513 0 .833-.59 1.51-1.348 1.51z" fill="#989898"/>
    </g>
    <defs>
        <clipPath id="8doc5lob9a">
            <path fill="#fff" d="M0 0h15v15H0z"/>
        </clipPath>
    </defs>
</svg>
