<svg width="15" height="15" viewBox="0 0 15 15" fill="none" xmlns="http://www.w3.org/2000/svg">
    <path d="M14.737 5.58 12.86 4.05V1.604a.5.5 0 0 0-.5-.5h-1.18a.5.5 0 0 0-.5.5v.67L8.172.228A1.065 1.065 0 0 0 7.498 0c-.251 0-.49.08-.67.228L.263 5.58c-.298.243-.28.454-.243.559.037.104.157.28.54.28h.899v7.037c0 .503.407.911.908.911h2.84c.496 0 .885-.4.885-.91V10.57c0-.247.227-.472.477-.472h1.908c.237 0 .431.212.431.472v2.886c0 .494.426.911.931.911h2.794a.91.91 0 0 0 .908-.91V6.417h.899c.383 0 .503-.175.54-.279.037-.105.055-.316-.243-.56z" fill="#989898"/>
</svg>
