<svg width="15" height="15" viewBox="0 0 15 15" fill="none" xmlns="http://www.w3.org/2000/svg">
    <path d="M14 2.006s-1.192.731-1.855.938a2.634 2.634 0 0 0-1.355-.862 2.557 2.557 0 0 0-1.587.099c-.507.2-.942.557-1.246 1.023a2.82 2.82 0 0 0-.457 1.58v.612a6.111 6.111 0 0 1-2.995-.695 6.372 6.372 0 0 1-2.323-2.082s-2.364 5.517 2.954 7.97A6.698 6.698 0 0 1 1 11.815c5.318 3.065 11.818 0 11.818-7.05 0-.171-.016-.341-.047-.509.603-.617 1.229-2.25 1.229-2.25z" fill="#989898" stroke="#989898" stroke-width="1.5" stroke-linecap="round" stroke-linejoin="round"/>
</svg>
