<svg width="15" height="16" viewBox="0 0 15 16" fill="none" xmlns="http://www.w3.org/2000/svg">
    <g clip-path="url(#ojxnr3tmfa)">
        <path d="M8.25 4.25h-1.5v3h-3v1.5h3v3h1.5v-3h3v-1.5h-3v-3zM7.5.5C3.36.5 0 3.86 0 8c0 4.14 3.36 7.5 7.5 7.5 4.14 0 7.5-3.36 7.5-7.5C15 3.86 11.64.5 7.5.5zm0 13.5c-3.308 0-6-2.693-6-6 0-3.308 2.692-6 6-6 3.307 0 6 2.692 6 6 0 3.307-2.693 6-6 6z" fill="#fff"/>
    </g>
    <defs>
        <clipPath id="ojxnr3tmfa">
            <path fill="#fff" transform="translate(0 .5)" d="M0 0h15v15H0z"/>
        </clipPath>
    </defs>
</svg>
