<svg width="19" height="19" viewBox="0 0 19 19" fill="none" xmlns="http://www.w3.org/2000/svg">
    <path d="M15.5 10.318V5.75c0-1.657-2.685-3-6-3s-6 1.343-6 3v7.5c0 1.658 2.692 3 6 3 .345 0 .675 0 .998-.045a4.455 4.455 0 0 1-.248-1.455v-.037c-.24.037-.488.037-.75.037-2.902 0-4.5-1.125-4.5-1.5v-1.672c1.207.585 2.79.922 4.5.922.488 0 .953-.03 1.41-.082a4.49 4.49 0 0 1 3.84-2.168c.255 0 .502.03.75.068zm-1.5-.48C13.025 10.55 11.315 11 9.5 11S5.975 10.55 5 9.838V7.73c1.103.622 2.707 1.02 4.5 1.02 1.793 0 3.398-.398 4.5-1.02v2.107zM9.5 7.25C6.598 7.25 5 6.125 5 5.75s1.598-1.5 4.5-1.5S14 5.375 14 5.75s-1.598 1.5-4.5 1.5zM17.75 14v1.5H15.5v2.25H14V15.5h-2.25V14H14v-2.25h1.5V14h2.25z" fill="#fff"/>
</svg>
