<svg width="74" height="74" viewBox="0 0 74 74" fill="none" xmlns="http://www.w3.org/2000/svg">
<g clip-path="url(#clip0_1235_1698)">
<path d="M74 37C74 16.5655 57.4345 0 37 0C16.5655 0 0 16.5655 0 37C0 57.4345 16.5655 74 37 74C57.4345 74 74 57.4345 74 37Z" fill="#2A3367"/>
<path d="M42.8544 43.1686C37.4335 47.9992 31.9201 51.6378 27.4103 53.628C25.1505 54.6252 23.1907 55.1871 21.6475 55.3045C20.0872 55.4232 19.1286 55.0805 18.6121 54.5009C18.0956 53.9213 17.8652 52.9296 18.1622 51.3933C18.456 49.8737 19.2392 47.9914 20.4893 45.8611C22.9841 41.6095 27.2316 36.5503 32.6525 31.7198C38.0735 26.8893 43.5868 23.2507 48.0967 21.2605C50.3564 20.2632 52.3162 19.7013 53.8595 19.5839C55.4198 19.4652 56.3784 19.808 56.8949 20.3876C57.4113 20.9672 57.6418 21.9588 57.3447 23.4952C57.0509 25.0147 56.2678 26.8971 55.0177 29.0274C52.5229 33.2789 48.2754 38.3381 42.8544 43.1686Z" stroke="white" stroke-width="1.8"/>
<path d="M55 25C51 37.5 23 58 20 53" stroke="#2A3367" stroke-width="1.8" stroke-linecap="round"/>
<path d="M51.1165 37.0608C54.8426 41.0794 56.5115 45.033 55.0636 47.568C53.619 50.0965 49.407 50.6181 44.1144 49.3783C42.53 54.6741 39.9641 58.1321 37.0602 58.1321C34.1531 58.1321 31.5889 54.6628 30.0077 49.3523C24.6566 50.6279 20.3942 50.116 18.9382 47.568C17.4904 45.033 19.1609 41.0745 22.887 37.051C19.0894 32.995 17.3799 28.991 18.8407 26.4365C20.3032 23.8755 24.6062 23.3701 29.9947 24.6701C31.5775 19.3483 34.1515 15.8691 37.0619 15.8691C39.9706 15.8691 42.5365 19.3369 44.1176 24.6458C49.4557 23.3783 53.7116 23.8918 55.166 26.4365C56.622 28.9926 54.9109 32.9999 51.1165 37.0608ZM20.3471 27.3173C19.2291 29.2738 20.7712 32.4815 24.0359 35.8729C25.3667 34.5745 26.8991 33.2859 28.6054 32.0476C28.8134 29.9904 29.1302 28.0388 29.5641 26.2626C25.0027 25.091 21.47 25.3526 20.3471 27.3173ZM28.4217 34.3373C27.2517 35.2278 26.1841 36.1313 25.227 37.0331C26.1971 37.9399 27.2436 38.8499 28.4282 39.7469C28.3795 38.845 28.3454 37.9334 28.3454 37.0006C28.3454 36.0971 28.3746 35.2099 28.4217 34.3373ZM28.6037 42.0284C26.8959 40.795 25.3684 39.5096 24.0326 38.2161C20.8265 41.5766 19.338 44.747 20.4462 46.6873C21.5626 48.6389 25.058 48.9103 29.5787 47.763C29.1449 45.9966 28.8101 44.0759 28.6037 42.0284ZM43.6447 43.2325C42.92 43.7086 42.179 44.1766 41.4071 44.6268C40.6239 45.0834 39.8406 45.5026 39.0606 45.9024C40.398 46.4711 41.7061 46.9668 42.9476 47.347C43.2385 46.073 43.4644 44.6836 43.6447 43.2325ZM37.0586 56.3706C39.2832 56.3706 41.2576 53.47 42.5349 48.9655C40.7717 48.4585 38.9095 47.7533 37.0115 46.8953C35.1476 47.7419 33.3244 48.4228 31.5889 48.9314C32.8629 53.4473 34.834 56.3706 37.0586 56.3706ZM31.1875 47.3064C32.3932 46.931 33.6542 46.4646 34.951 45.9121C34.1677 45.5108 33.3796 45.0866 32.5931 44.6284C31.8635 44.201 31.1615 43.7623 30.4741 43.3121C30.6512 44.7373 30.9031 46.0519 31.1875 47.3064ZM30.4774 30.7541C31.194 30.2845 31.9285 29.823 32.6906 29.3761C33.443 28.9358 34.1954 28.5311 34.9461 28.1444C33.6445 27.5886 32.3705 27.0979 31.1582 26.7193C30.8755 27.9705 30.6561 29.3339 30.4774 30.7541ZM37.0586 17.6306C34.8275 17.6306 32.8434 20.5589 31.5677 25.0959C33.3016 25.6061 35.1281 26.3065 36.9887 27.1548C38.8932 26.2821 40.7555 25.585 42.5284 25.0683C41.2544 20.5556 39.2849 17.6306 37.0586 17.6306ZM42.933 26.69C41.685 27.0784 40.3817 27.5594 39.0362 28.1379C39.7919 28.5263 40.5507 28.9341 41.308 29.3778C42.1237 29.8539 42.9037 30.3495 43.6659 30.8533C43.4871 29.3664 43.2287 27.9933 42.933 26.69ZM43.8901 33.1071C42.8014 32.3499 41.6509 31.6105 40.4354 30.9036C39.2719 30.2244 38.1181 29.6313 36.9774 29.0771C35.8512 29.6264 34.7089 30.2358 33.5632 30.9036C32.4046 31.578 31.298 32.2833 30.2564 33.0015C30.1556 34.2966 30.0874 35.6226 30.0874 37.0023C30.0874 38.3965 30.1442 39.7534 30.245 41.0631C31.2639 41.7635 32.3396 42.4476 33.4641 43.1041C34.6601 43.8013 35.8464 44.4106 37.0196 44.9761C38.1782 44.4139 39.3547 43.7915 40.5329 43.1041C41.7012 42.4233 42.8111 41.7148 43.8625 40.9884C43.9616 39.6981 44.0315 38.377 44.0315 37.0023C44.0315 35.6665 43.9827 34.3649 43.8901 33.1071ZM53.554 46.6873C54.6622 44.7503 53.1607 41.5848 49.9611 38.2324C48.6595 39.4901 47.1694 40.7381 45.5151 41.939C45.3071 44.0223 44.9854 45.9999 44.5434 47.7955C49.0056 48.9086 52.449 48.621 53.554 46.6873ZM45.6987 39.6494C46.8184 38.7946 47.8454 37.9269 48.7716 37.064C47.8421 36.1865 46.8395 35.3041 45.7052 34.4348C45.7459 35.2781 45.7751 36.1313 45.7751 37.0006C45.7735 37.9009 45.7442 38.7816 45.6987 39.6494ZM53.6515 27.3173C52.5367 25.3689 49.0527 25.0926 44.5434 26.235C44.987 28.0518 45.3299 30.0359 45.5346 32.1516C47.1905 33.3623 48.6709 34.6216 49.9676 35.8875C53.2387 32.4896 54.7727 29.277 53.6515 27.3173ZM37.3251 40.3514C35.4125 40.3514 33.8622 38.7865 33.8622 36.8544C33.8622 34.9223 35.4125 33.3574 37.3251 33.3574C39.2361 33.3574 40.7864 34.9239 40.7864 36.8544C40.7864 38.7881 39.2361 40.3514 37.3251 40.3514Z" fill="#FEFFFF"/>
</g>
<defs>
<clipPath id="clip0_1235_1698">
<rect width="74" height="74" fill="white"/>
</clipPath>
</defs>
</svg>
