<svg width="74" height="74" viewBox="0 0 74 74" fill="none" xmlns="http://www.w3.org/2000/svg">
    <path fill-rule="evenodd" clip-rule="evenodd" d="M74 37c0 20.435-16.565 37-37 37C16.566 74 0 57.435 0 37 0 16.566 16.566 0 37 0c20.435 0 37 16.566 37 37zM26.515 51.724h-7.18c-1.51 0-2.255 0-2.709-.29a1.825 1.825 0 0 1-.827-1.428c-.027-.536.345-1.19 1.09-2.5l17.73-31.25c.755-1.328 1.137-1.992 1.618-2.237a1.83 1.83 0 0 1 1.655 0c.481.245.863.909 1.618 2.236l3.645 6.363.018.032c.815 1.424 1.228 2.146 1.409 2.904.2.827.2 1.7 0 2.527-.182.763-.591 1.49-1.418 2.935L33.85 47.48l-.024.043c-.82 1.435-1.236 2.162-1.812 2.711a5.42 5.42 0 0 1-2.208 1.282c-.755.21-1.6.21-3.29.21zm18.134 0h10.289c1.518 0 2.281 0 2.736-.3.49-.318.8-.854.827-1.436.027-.518-.338-1.148-1.052-2.38l-.075-.128-5.154-8.817-.058-.1c-.725-1.224-1.09-1.843-1.56-2.082a1.81 1.81 0 0 0-1.645 0c-.473.246-.854.891-1.609 2.19l-5.135 8.818-.018.03c-.752 1.298-1.127 1.946-1.1 2.478.036.582.336 1.118.827 1.436.445.291 1.209.291 2.727.291z" fill="#EC1212"/>
    <path d="M42.855 43.169c-5.421 4.83-10.935 8.469-15.445 10.46-2.26.996-4.22 1.558-5.762 1.676-1.56.118-2.52-.224-3.036-.804-.516-.58-.747-1.571-.45-3.108.294-1.52 1.077-3.401 2.327-5.532 2.495-4.251 6.743-9.31 12.164-14.141 5.42-4.83 10.934-8.47 15.444-10.46 2.26-.997 4.22-1.559 5.763-1.676 1.56-.119 2.519.224 3.035.804.516.58.747 1.57.45 3.107-.294 1.52-1.077 3.402-2.327 5.532-2.495 4.252-6.742 9.311-12.163 14.142z" stroke="#000" stroke-width="1.8"/>
    <path d="M54.5 25C50 38 31 52.5 23 52.5" stroke="#EC1212" stroke-width="1.8" stroke-linecap="round"/>
</svg>
