<svg width="67" height="67" viewBox="0 0 67 67" fill="none" xmlns="http://www.w3.org/2000/svg">
<circle cx="33.5" cy="33.5" r="33.5" fill="#2C374B"/>
<g clip-path="url(#clip0_1236_1744)">
<path d="M13.52 24.1995V43.7995C13.52 45.0595 14.18 46.1995 15.28 46.8395L32.26 56.6395C33.34 57.2595 34.68 57.2595 35.76 56.6395L52.74 46.8395C53.82 46.2195 54.5 45.0595 54.5 43.7995V24.1995C54.5 22.9395 53.84 21.7995 52.74 21.1595L35.76 11.3595C34.68 10.7395 33.34 10.7395 32.26 11.3595L15.28 21.1595C14.2 21.7795 13.54 22.9395 13.54 24.1995H13.52Z" fill="#213147"/>
<path d="M37.7001 37.7993L35.2801 44.4393C35.2201 44.6193 35.2201 44.8193 35.2801 45.0193L39.4401 56.4393L44.2601 53.6593L38.4801 37.7993C38.3401 37.4393 37.8401 37.4393 37.7001 37.7993Z" fill="#12AAFF"/>
<path d="M42.5602 26.6391C42.4202 26.2791 41.9202 26.2791 41.7802 26.6391L39.3602 33.2791C39.3002 33.4591 39.3002 33.6591 39.3602 33.8591L46.1802 52.5591L51.0002 49.7791L42.5602 26.6591V26.6391Z" fill="#12AAFF"/>
<path d="M34.0001 12.1C34.1201 12.1 34.2401 12.14 34.3401 12.2L52.7001 22.8C52.9201 22.92 53.0401 23.16 53.0401 23.4V44.6C53.0401 44.84 52.9001 45.08 52.7001 45.2L34.3401 55.8C34.2401 55.86 34.1201 55.9 34.0001 55.9C33.8801 55.9 33.7601 55.86 33.6601 55.8L15.3001 45.2C15.0801 45.08 14.9601 44.84 14.9601 44.6V23.38C14.9601 23.14 15.1001 22.9 15.3001 22.78L33.6601 12.18C33.7601 12.12 33.8801 12.08 34.0001 12.08V12.1ZM34.0001 9C33.3401 9 32.7001 9.16 32.1001 9.5L13.7401 20.1C12.5601 20.78 11.8401 22.02 11.8401 23.38V44.58C11.8401 45.94 12.5601 47.18 13.7401 47.86L32.1001 58.46C32.6801 58.8 33.3401 58.96 34.0001 58.96C34.6601 58.96 35.3001 58.8 35.9001 58.46L54.2601 47.86C55.4401 47.18 56.1601 45.94 56.1601 44.58V23.38C56.1601 22.02 55.4401 20.78 54.2601 20.1L35.8801 9.5C35.3001 9.16 34.6401 9 33.9801 9H34.0001Z" fill="#9DCCED"/>
<path d="M21.8401 52.5795L23.5401 47.9395L26.9401 50.7595L23.7601 53.6795L21.8401 52.5795Z" fill="#213147"/>
<path d="M32.44 21.8794H27.78C27.44 21.8794 27.12 22.0994 27 22.4194L17.02 49.7794L21.84 52.5594L32.84 22.4194C32.94 22.1394 32.74 21.8594 32.46 21.8594L32.44 21.8794Z" fill="white"/>
<path d="M40.6 21.8794H35.94C35.6 21.8794 35.28 22.0994 35.16 22.4194L23.76 53.6594L28.58 56.4394L40.98 22.4194C41.08 22.1394 40.88 21.8594 40.6 21.8594V21.8794Z" fill="white"/>
</g>
<defs>
<clipPath id="clip0_1236_1744">
<rect width="50" height="50" fill="white" transform="translate(9 9)"/>
</clipPath>
</defs>
</svg>
