<svg width="74" height="74" viewBox="0 0 74 74" fill="none" xmlns="http://www.w3.org/2000/svg">
    <path d="M37 0C16.569 0 0 16.569 0 37s16.569 37 37 37 37-16.569 37-37S57.431 0 37 0z" fill="#fff"/>
    <path d="M26.656 46.288c-1.899 0-3.584-.384-5.056-1.152-1.472-.768-2.635-1.824-3.488-3.168-.832-1.365-1.248-2.923-1.248-4.672 0-1.75.416-3.296 1.248-4.64.853-1.344 2.016-2.39 3.488-3.136 1.472-.768 3.157-1.152 5.056-1.152s3.584.384 5.056 1.152c1.493.747 2.656 1.792 3.488 3.136.832 1.344 1.248 2.89 1.248 4.64 0 1.75-.416 3.307-1.248 4.672-.832 1.344-1.995 2.4-3.488 3.168-1.472.768-3.157 1.152-5.056 1.152zm0-4.832c.704 0 1.323-.16 1.856-.48.555-.32.992-.79 1.312-1.408.32-.64.48-1.397.48-2.272 0-.875-.16-1.61-.48-2.208-.32-.619-.757-1.088-1.312-1.408-.533-.32-1.152-.48-1.856-.48-.683 0-1.301.16-1.856.48-.533.32-.97.79-1.312 1.408-.32.597-.48 1.333-.48 2.208 0 .875.16 1.632.48 2.272.341.619.779 1.088 1.312 1.408.555.32 1.173.48 1.856.48zM50.56 28.368c1.344 0 2.56.277 3.648.832 1.089.533 1.942 1.365 2.56 2.496.64 1.13.96 2.592.96 4.384V46h-6.08v-8.928c0-1.237-.256-2.133-.768-2.688-.49-.576-1.184-.864-2.08-.864-.64 0-1.226.15-1.76.448-.533.277-.949.715-1.248 1.312-.298.597-.448 1.376-.448 2.336V46h-6.08V28.656h5.792v4.928l-1.12-1.44c.662-1.259 1.569-2.197 2.72-2.816 1.153-.64 2.454-.96 3.904-.96z" fill="#000"/>
    <path d="M42.855 43.169c-5.421 4.83-10.935 8.469-15.444 10.46-2.26.996-4.22 1.558-5.763 1.676-1.56.118-2.52-.224-3.036-.804-.516-.58-.746-1.571-.45-3.108.294-1.52 1.078-3.401 2.328-5.532 2.494-4.251 6.742-9.31 12.163-14.141 5.42-4.83 10.934-8.47 15.444-10.46 2.26-.997 4.22-1.559 5.763-1.676 1.56-.119 2.519.224 3.035.804.517.58.747 1.57.45 3.107-.294 1.52-1.077 3.402-2.327 5.532-2.495 4.252-6.742 9.311-12.163 14.142z" stroke="#000" stroke-width="1.8"/>
    <path d="M55 25c-5 12.5-24 27.5-32 27.5" stroke="#fff" stroke-width="1.8" stroke-linecap="round"/>
</svg>
