<svg width="400" height="400" viewBox="0 0 400 400" fill="none" xmlns="http://www.w3.org/2000/svg">
<circle cx="200" cy="200" r="200" fill="black"/>
<g clip-path="url(#clip0_5217_14896)">
<path d="M292.219 144.865H262.496C259.061 144.865 255.766 143.393 253.453 140.799L241.395 127.199C239.573 125.166 237.049 123.975 234.315 123.975C231.581 123.975 229.057 125.166 227.235 127.199L216.86 138.906C213.495 142.692 208.588 144.935 203.54 144.935H40.8329C36.2061 158.044 33.1917 171.995 32 186.506H185.594C188.328 186.506 190.852 185.384 192.744 183.422L207.045 168.49C208.798 166.597 211.322 165.545 213.845 165.545H214.406C217.14 165.545 219.664 166.737 221.486 168.77L233.544 182.37C235.857 184.964 239.152 186.436 242.587 186.436H367.93C366.738 171.995 363.724 157.974 359.097 144.795L292.219 144.865Z" fill="white"/>
<path d="M124.956 273.994C127.69 273.994 130.213 272.872 132.106 270.91L146.407 255.978C148.23 254.085 150.683 253.033 153.277 253.033H153.838C156.572 253.033 159.166 254.225 160.918 256.188L172.976 269.788C175.289 272.382 178.584 273.854 182.019 273.854H351.947C358.326 260.675 362.953 246.584 365.757 231.792H202.629C199.194 231.792 195.899 230.32 193.586 227.726L181.528 214.267C179.706 212.234 177.182 211.112 174.448 211.112C171.714 211.112 169.12 212.304 167.368 214.267L156.992 225.974C153.627 229.829 148.72 232.003 143.603 232.003H34.3135C37.1176 246.794 41.7443 260.885 48.1236 274.064L124.956 273.994Z" fill="white"/>
<path d="M245.461 99.3685C248.195 99.3685 250.719 98.2469 252.612 96.284L266.912 81.3522C268.665 79.4594 271.189 78.4079 273.782 78.4079H274.343C277.077 78.4079 279.601 79.5996 281.424 81.6326L293.481 95.3026C295.795 97.8964 299.089 99.3685 302.524 99.3685H334.842C304.067 58.4286 255.135 32 200.035 32C144.935 32 95.9331 58.4286 65.1582 99.3685H245.461Z" fill="white"/>
<path d="M180.617 315.705H136.452C133.017 315.705 129.722 314.233 127.409 311.639L115.351 298.039C113.529 296.006 111.005 294.885 108.271 294.885C105.537 294.885 102.943 296.076 101.191 298.039L90.8156 309.746C87.4507 313.602 82.5436 315.775 77.4261 315.775H76.7251C107.5 348.723 151.314 369.403 200.035 369.403C248.756 369.403 292.5 348.723 323.345 315.775L180.617 315.705Z" fill="white"/>
</g>
<defs>
<clipPath id="clip0_5217_14896">
<rect width="336" height="337.333" fill="white" transform="translate(32 32)"/>
</clipPath>
</defs>
</svg>
