<svg width="74" height="74" viewBox="0 0 74 74" fill="none" xmlns="http://www.w3.org/2000/svg">
<rect width="74" height="74" rx="37" fill="#002727"/>
<g clip-path="url(#clip0_909_15)">
<mask id="mask0_909_15" style="mask-type:luminance" maskUnits="userSpaceOnUse" x="13" y="13" width="48" height="48">
<path d="M61 13H13V61H61V13Z" fill="white"/>
</mask>
<g mask="url(#mask0_909_15)">
<path d="M50.176 29.0588H45.9304C45.4357 29.0588 44.965 28.8474 44.6374 28.4793L42.9151 26.541C42.6588 26.2517 42.2893 26.0872 41.9027 26.0872C41.5162 26.0872 41.1467 26.2527 40.8903 26.541L39.4133 28.2039C38.9297 28.7476 38.2357 29.0598 37.5067 29.0598H14.2657C13.6038 30.9392 13.1722 32.9243 13 34.9833H34.9402C35.3257 34.9833 35.6952 34.8267 35.9616 34.5493L38.0044 32.4256C38.2597 32.1602 38.6122 32.0106 38.9807 32.0106H39.0648C39.4524 32.0106 39.8209 32.1762 40.0772 32.4655L41.7986 34.4037C42.126 34.7728 42.5967 34.9833 43.0915 34.9833H61C60.8278 32.9233 60.3961 30.9382 59.7343 29.0598L50.176 29.0588Z" fill="white"/>
<path d="M26.2774 47.4384C26.6629 47.4384 27.0324 47.2818 27.2988 47.0046L29.3416 44.8809C29.5969 44.6154 29.9494 44.4657 30.3179 44.4657H30.402C30.7896 44.4657 31.1581 44.6313 31.4144 44.9196L33.1358 46.8579C33.4633 47.2269 33.9339 47.4375 34.4286 47.4375H58.6979C59.6072 45.5661 60.2732 43.5579 60.6698 41.4543H37.3746C36.88 41.4543 36.4093 41.2428 36.0818 40.8747L34.3605 38.9364C34.1041 38.6472 33.7346 38.4825 33.3481 38.4825C32.9616 38.4825 32.5921 38.6481 32.3357 38.9364L30.8587 40.5993C30.375 41.143 29.681 41.4552 28.951 41.4552H13.3306C13.7271 43.5591 14.394 45.567 15.3023 47.4384H26.2774Z" fill="white"/>
<path d="M43.4952 22.5844C43.8807 22.5844 44.2503 22.4278 44.5164 22.1505L46.5594 20.0267C46.8147 19.7614 47.1672 19.6118 47.5356 19.6118H47.6199C48.0072 19.6118 48.3759 19.7773 48.6321 20.0666L50.3535 22.0049C50.6811 22.374 51.1518 22.5844 51.6462 22.5844H56.2617C51.8667 16.7648 44.8761 13 37.0012 13C29.1264 13 22.1358 16.7648 17.7397 22.5844H43.4952Z" fill="white"/>
<path d="M34.224 53.3677H27.9124C27.4177 53.3677 26.947 53.1562 26.6196 52.7881L24.8982 50.8498C24.6419 50.5606 24.2723 50.3959 23.8858 50.3959C23.4993 50.3959 23.1298 50.5615 22.8734 50.8498L21.3964 52.5127C20.9127 53.0566 20.2188 53.3686 19.4888 53.3686H19.3906C23.7877 58.0621 30.0493 61 37.0019 61C43.9544 61 50.2151 58.0621 54.6131 53.3686L34.224 53.3677Z" fill="white"/>
</g>
</g>
<path d="M42.8545 43.1687C37.4336 47.9993 31.9202 51.6379 27.4104 53.6281C25.1506 54.6253 23.1908 55.1872 21.6476 55.3046C20.0873 55.4233 19.1287 55.0806 18.6122 54.501C18.0957 53.9214 17.8653 52.9297 18.1623 51.3934C18.4561 49.8738 19.2393 47.9915 20.4894 45.8612C22.9842 41.6096 27.2317 36.5504 32.6526 31.7199C38.0736 26.8894 43.5869 23.2508 48.0968 21.2606C50.3565 20.2633 52.3163 19.7014 53.8596 19.584C55.4199 19.4653 56.3785 19.8081 56.895 20.3877C57.4114 20.9673 57.6419 21.9589 57.3448 23.4953C57.051 25.0148 56.2679 26.8972 55.0178 29.0275C52.523 33.279 48.2755 38.3382 42.8545 43.1687Z" stroke="white" stroke-width="1.8"/>
<path d="M55 25C51 37.5 23 58 20 53" stroke="#002727" stroke-width="1.8" stroke-linecap="round"/>
<defs>
<clipPath id="clip0_909_15">
<rect width="48" height="48" fill="white" transform="translate(13 13)"/>
</clipPath>
</defs>
</svg>
