<svg width="74" height="74" viewBox="0 0 74 74" fill="none" xmlns="http://www.w3.org/2000/svg">
    <path d="M37 74C16.564 74 0 57.436 0 37S16.564 0 37 0s37 16.564 37 37-16.564 37-37 37zm-8.982-40.69L37 24.326l8.986 8.987 5.227-5.226L37 13.875 22.792 28.083l5.226 5.226zM13.875 37l5.226 5.226L24.328 37 19.1 31.774 13.875 37zm14.143 3.69-5.233 5.22.007.007L37 60.125l14.213-14.213-5.227-5.228L37 49.673l-8.982-8.982zM49.672 37l5.227 5.226L60.125 37l-5.226-5.226L49.672 37zm-7.372-.005-5.3-5.3-3.92 3.917-.45.451-.928.93-.01.007.01.007 5.296 5.298 5.305-5.303.002-.002-.005-.005z" fill="#FFCE21"/>
    <path d="M42.855 43.169c-5.421 4.83-10.935 8.469-15.445 10.46-2.26.996-4.22 1.558-5.762 1.676-1.56.118-2.52-.224-3.036-.804-.516-.58-.747-1.571-.45-3.108.294-1.52 1.077-3.401 2.327-5.532 2.495-4.251 6.743-9.31 12.164-14.141 5.42-4.83 10.934-8.47 15.444-10.46 2.26-.997 4.22-1.559 5.763-1.676 1.56-.119 2.519.224 3.035.804.516.58.747 1.57.45 3.107-.294 1.52-1.077 3.402-2.327 5.532-2.495 4.252-6.742 9.311-12.163 14.142z" stroke="#000" stroke-width="1.8"/>
    <path d="M54.5 25C50 38 31 52.5 23 52.5" stroke="#FFCE21" stroke-width="1.8" stroke-linecap="round"/>
</svg>
