<svg width="74" height="74" viewBox="0 0 74 74" fill="none" xmlns="http://www.w3.org/2000/svg">
    <path d="M37 0C16.569 0 0 16.569 0 37s16.569 37 37 37 37-16.569 37-37S57.431 0 37 0z" fill="#F90"/>
    <path d="M53.911 32.474c.715-4.824-2.97-7.435-8.056-9.166l1.657-6.555-4-.994-1.6 6.385a107.71 107.71 0 0 0-3.228-.737l1.6-6.414-4-.993-1.628 6.527c-.886-.199-1.743-.398-2.571-.596v-.029l-5.543-1.362-1.057 4.257s2.971.681 2.914.71c1.629.397 1.914 1.475 1.857 2.326l-1.885 7.464c.114.028.257.056.428.142-.143-.029-.285-.057-.428-.114l-2.629 10.443c-.2.483-.714 1.22-1.828.937.028.056-2.914-.71-2.914-.71l-2 4.569 5.228 1.305c.971.256 1.914.483 2.857.738l-1.657 6.612 4 .993 1.657-6.555c1.085.284 2.171.568 3.2.823l-1.629 6.527 4 .993 1.657-6.612c6.856 1.277 11.999.766 14.141-5.392 1.743-4.937-.085-7.803-3.685-9.676 2.657-.596 4.628-2.327 5.142-5.846zm-9.17 12.77c-1.229 4.937-9.628 2.27-12.342 1.589l2.2-8.769c2.714.681 11.456 2.015 10.142 7.18zm1.257-12.855c-1.143 4.512-8.114 2.213-10.37 1.645l1.999-7.945c2.257.567 9.542 1.617 8.37 6.3z" fill="#fff"/>
    <path d="M42.855 43.169c-5.421 4.83-10.935 8.469-15.444 10.46-2.26.996-4.22 1.558-5.763 1.676-1.56.118-2.52-.224-3.036-.804-.516-.58-.746-1.571-.45-3.108.294-1.52 1.078-3.401 2.328-5.532 2.494-4.251 6.742-9.31 12.163-14.141 5.42-4.83 10.934-8.47 15.444-10.46 2.26-.997 4.22-1.559 5.763-1.676 1.56-.119 2.519.224 3.035.804.517.58.747 1.57.45 3.107-.294 1.52-1.077 3.402-2.327 5.532-2.495 4.252-6.742 9.311-12.163 14.142z" stroke="#fff" stroke-width="1.8"/>
    <path d="M55.5 23.5c-4 13-24 28.5-32 29.5" stroke="#F90" stroke-width="1.8" stroke-linecap="round"/>
</svg>
