<svg width="74" height="74" viewBox="0 0 74 74" fill="none" xmlns="http://www.w3.org/2000/svg">
    <path d="M37 0C16.569 0 0 16.569 0 37s16.569 37 37 37 37-16.569 37-37S57.431 0 37 0z" fill="#2C2267"/>
    <path d="M37.54 12.075v.026c.025.125.025.276.025.427v18.127c-.025.1-.1.126-.176.176a42.71 42.71 0 0 1-1.559.704c-.729.327-1.483.68-2.212 1.006l-2.64 1.207c-.73.327-1.458.654-2.162.98-.855.403-1.735.78-2.59 1.182-.73.327-1.458.679-2.212 1.006-.604.276-1.207.528-1.785.804-.05.025-.101.05-.151.05-.026 0-.026 0-.05-.025l.678-1.131c1.308-2.162 2.59-4.3 3.897-6.461 1.383-2.314 2.79-4.627 4.174-6.94 1.282-2.137 2.59-4.274 3.872-6.41.93-1.56 1.885-3.119 2.816-4.677.025-.05.05-.076.05-.126h.025c-.025.025 0 .05 0 .075z" fill="#fff"/>
    <path d="m52.974 37.745.025.026-3.696 2.187-11.615 6.864c-.05.025-.1.05-.126.075-.075 0-.075-.075-.075-.1V31.033c0-.076 0-.176.025-.252.025-.1.1-.075.176-.05.327.15.679.302 1.006.452.98.453 1.96.906 2.941 1.333.855.377 1.685.78 2.54 1.157.854.377 1.71.779 2.564 1.156.73.327 1.483.679 2.213 1.006.729.326 1.483.678 2.212 1.005.578.252 1.157.528 1.735.78 0 .075.025.1.075.126z" fill="#fff" fill-opacity=".82"/>
    <path d="M37.538 62.51c0 .025-.025.05-.025.076h-.025c0-.05-.05-.076-.075-.126-1.56-2.188-3.118-4.4-4.677-6.587-1.584-2.238-3.193-4.5-4.777-6.738-1.533-2.163-3.092-4.35-4.626-6.512-.402-.578-.804-1.132-1.207-1.71-.025-.05-.05-.075-.1-.15.075 0 .126.05.15.075 2.188 1.282 4.35 2.564 6.538 3.846 2.514 1.484 5.003 2.967 7.517 4.45l1.282.755c.05.05.05.1.05.15v12.12c0 .125 0 .25-.025.351zM22 37.796v-.026c.805-.352 1.584-.729 2.389-1.08 1.03-.478 2.061-.93 3.092-1.409.78-.352 1.584-.729 2.363-1.08 1.157-.529 2.288-1.032 3.445-1.56.78-.352 1.558-.703 2.363-1.08.553-.252 1.131-.503 1.685-.755.05-.025.125-.05.15-.1.026 0 .026.025 0 .05V46.72c0 .075-.025.15.026.201-.05.076-.101 0-.126-.025a9.616 9.616 0 0 1-.679-.402c-4.852-2.866-9.73-5.758-14.582-8.624a.548.548 0 0 0-.126-.075z" fill="#fff"/>
    <path d="M52.925 40.762h.025c0 .05-.05.1-.075.151-4.627 6.512-9.253 13.049-13.879 19.56-.477.68-.98 1.358-1.458 2.037-.025-.025-.025-.05-.025-.075V49.864c1.056-.629 2.087-1.232 3.143-1.86 4.073-2.414 8.146-4.803 12.194-7.216.025.025.05 0 .075-.026z" fill="#fff" fill-opacity=".79"/>
    <path d="M37.513 30.756V12.302c0-.076-.026-.126.025-.201 5.104 8.472 10.208 16.92 15.286 25.393.05.075.126.176.151.276-.352-.125-.679-.301-1.006-.452-.402-.176-.83-.377-1.232-.553-.251-.126-.528-.227-.78-.352-.426-.201-.854-.377-1.281-.579-.252-.1-.503-.226-.755-.352l-1.659-.754c-.276-.126-.553-.251-.855-.377l-1.207-.528c-.251-.1-.502-.226-.754-.352l-1.66-.754a28.598 28.598 0 0 0-.854-.377l-1.207-.528c-.276-.126-.528-.252-.804-.377a25.667 25.667 0 0 0-1.459-.654c.076-.025.05-.025.05-.025z" fill="#fff" fill-opacity=".71"/>
    <path d="M42.855 43.169c-5.421 4.83-10.935 8.469-15.444 10.46-2.26.996-4.22 1.558-5.763 1.676-1.56.118-2.52-.224-3.036-.804-.516-.58-.746-1.571-.45-3.108.294-1.52 1.078-3.401 2.328-5.532 2.494-4.251 6.742-9.31 12.163-14.141 5.42-4.83 10.934-8.47 15.444-10.46 2.26-.997 4.22-1.559 5.763-1.676 1.56-.119 2.519.224 3.035.804.517.58.747 1.57.45 3.107-.294 1.52-1.077 3.402-2.327 5.532-2.495 4.252-6.742 9.311-12.163 14.142z" stroke="#fff" stroke-width="1.8"/>
    <path d="M54.5 25C50 38 31 52.5 23 52.5" stroke="#2C2267" stroke-width="1.8" stroke-linecap="round"/>
</svg>
