<svg width="74" height="74" viewBox="0 0 74 74" fill="none" xmlns="http://www.w3.org/2000/svg">
    <path d="M37 0C16.569 0 0 16.569 0 37s16.569 37 37 37 37-16.569 37-37S57.431 0 37 0z" fill="#00BEFF"/>
    <path d="m47.224 23.962-1.114-.47a14.465 14.465 0 0 0-5.659-1.16c-5.566 0-10.676 3.225-13.132 8.168H45.88l-1.145 5.541H25.812c-.023.314-.036.637-.036.959 0 .792.07 1.598.204 2.409h18.07l-1.139 5.543H28.138a14.577 14.577 0 0 0 12.313 6.724c1.707 0 3.419-.311 5.087-.934l1.33-.494v7.797l-.73.195c-1.87.505-3.784.76-5.687.76-9.06 0-17.21-5.616-20.485-14.048h-4.688v-5.543h3.325a20.059 20.059 0 0 1-.13-3.368h-3.195V30.5h4.183c2.84-9.162 11.363-15.5 20.99-15.5 2.557 0 5.068.45 7.471 1.327l.8.295-1.498 7.34z" fill="#fff"/>
    <path d="M42.855 43.169c-5.421 4.83-10.935 8.469-15.445 10.46-2.26.996-4.22 1.558-5.762 1.676-1.56.118-2.52-.224-3.036-.804-.516-.58-.747-1.571-.45-3.108.294-1.52 1.077-3.401 2.327-5.532 2.495-4.251 6.743-9.31 12.164-14.141 5.42-4.83 10.934-8.47 15.444-10.46 2.26-.997 4.22-1.559 5.763-1.676 1.56-.119 2.519.224 3.035.804.516.58.747 1.57.45 3.107-.294 1.52-1.077 3.402-2.327 5.532-2.495 4.252-6.742 9.311-12.163 14.142z" stroke="#fff" stroke-width="1.8"/>
    <path d="M54.5 25c-3 13-28.5 30.5-33 28" stroke="#00BEFF" stroke-width="1.8" stroke-linecap="round"/>
</svg>
