<svg width="74" height="74" viewBox="0 0 74 74" fill="none" xmlns="http://www.w3.org/2000/svg">
    <path d="M37 0C16.569 0 0 16.569 0 37s16.569 37 37 37 37-16.569 37-37S57.431 0 37 0z" fill="#FFE600"/>
    <path d="M36.336 54.752c-2.656 0-5.104-.416-7.344-1.248-2.208-.864-4.144-2.08-5.808-3.648a17.128 17.128 0 0 1-3.84-5.52C18.448 42.224 18 39.904 18 37.376c0-2.528.448-4.848 1.344-6.96a16.779 16.779 0 0 1 3.888-5.52c1.664-1.568 3.616-2.768 5.856-3.6C31.328 20.432 33.792 20 36.48 20c2.976 0 5.648.496 8.016 1.488 2.4.992 4.416 2.432 6.048 4.32l-4.992 4.608c-1.216-1.28-2.544-2.224-3.984-2.832-1.44-.64-3.008-.96-4.704-.96-1.632 0-3.12.256-4.464.768a10.195 10.195 0 0 0-3.504 2.208c-.96.96-1.712 2.096-2.256 3.408-.512 1.312-.768 2.768-.768 4.368 0 1.568.256 3.008.768 4.32a10.948 10.948 0 0 0 2.256 3.456 10.3 10.3 0 0 0 3.456 2.208c1.344.512 2.816.768 4.416.768 1.536 0 3.024-.24 4.464-.72 1.472-.512 2.896-1.36 4.272-2.544l4.416 5.616c-1.824 1.376-3.952 2.432-6.384 3.168-2.4.736-4.8 1.104-7.2 1.104zm6.48-5.28V36.848h7.104V50.48l-7.104-1.008z" fill="#000"/>
    <path d="M42.855 43.169c-5.421 4.83-10.935 8.469-15.445 10.46-2.26.996-4.22 1.558-5.762 1.676-1.56.118-2.52-.224-3.036-.804-.516-.58-.747-1.571-.45-3.108.294-1.52 1.077-3.401 2.327-5.532 2.495-4.251 6.743-9.31 12.164-14.141 5.42-4.83 10.934-8.47 15.444-10.46 2.26-.997 4.22-1.559 5.763-1.676 1.56-.119 2.519.224 3.035.804.516.58.747 1.57.45 3.107-.294 1.52-1.077 3.402-2.327 5.532-2.495 4.252-6.742 9.311-12.163 14.142z" stroke="#000" stroke-width="1.8"/>
    <path d="M54.5 25c-4.5 13-24 28-32 28" stroke="#FFE600" stroke-width="1.8" stroke-linecap="round"/>
</svg>
