<svg xmlns="http://www.w3.org/2000/svg" width="338" height="309" xmlns:v="https://vecta.io/nano"><style><![CDATA[.B{stroke:#000}.C{stroke-width:1.097}.D{stroke-width:1.829}.E{stroke-linecap:round}]]></style><g fill="#5a8d3e" fill-rule="evenodd" class="B"><path d="M17.727 228.459c-7.056-7.804-10.399-18.555-13.061-28.734l-.206-.793c-2.5-9.709-4.46-20.114-2.406-29.9 1.98-9.437 9.546-16.774 13.714-25.469 6.97-14.539 9.869-30.19 18.843-44.549l.749-1.164c4.511-6.799 10.718-12.4 16.979-17.632 2.409-2.013 7.837-5.224 7.837-5.224L71.93 56.053c6.278-10.036 11.035-21.228 18.939-30.04 6.31-7.036 13.826-13.257 22.204-17.632 8.058-4.208 17.045-7.33 26.122-7.837 9.72-.543 19.516 2.093 28.734 5.224 8.112 2.755 16.466 6.049 22.857 11.755 1.756 1.568 3.918 5.877 3.918 5.877s22.644-12.651 34.449-15.02 26.351-3.257 34.775 0 9.901 7.614 14.367 13.061 9.722 12.252 11.755 19.592c.581 2.098 0 6.531 0 6.531s21.953 10.684 30.693 18.939c4.489 4.24 7.402 10.625 10.612 15.183 2.237 3.177 6.186 4.879 6.791 8.118.286 1.53-.358 3.556-1.117 5.268-.847 1.911-3.223 1.814-3.223 1.814-3.634 3.664-2.615 13.371-2.615 13.371s-.593 5.735-3.187 8.11c-2.54 2.325-5.685 1.473-8.162 3.888-1.972 3.709-3.245 4.834-4.977 6.941-4.946 6.016-20.898 10.449-20.898 10.449s-.507 3.134 0 4.571c.88 2.492 2.34 4.647 4.067 6.652 3.938 4.572 9.264 8.363 12.259 13.592 4.28 7.472 9.143 24.163 9.143 24.163s-18.169 34.976-32.653 47.673c-13.031 11.423-29.934 18.01-46.367 23.51-11.743 3.93-24.229 5.519-36.571 6.531-16.49 1.351-33.127.498-49.632-.653-31.083-2.168-63.16-1.945-92.733-11.755-15.322-5.082-29.67-11.847-42.158-23.831-.569-.546-1.103-1.093-1.596-1.638z" class="D"/><path d="M28.748 240.698l13.061 20.244s36.399 11.093 54.856 15.673c15.332 3.805 30.639 8.327 46.367 9.797 19.944 1.86 40.532 3.06 60.081-1.31 8.369-1.868 23.51-10.446 23.51-10.446l12.558-14.522c-44.226 11.354-111.596 9.127-210.433-19.436h0z" class="C"/></g><g class="D B"><path fill="#9f5935" d="M106.061 213.297c-2.878-2.695-1.819-5.673-1.306-8.49.715-3.932 3.054-7.621 5.877-10.449 3.345-3.351 7.817-5.681 12.368-6.986 10.905-3.125 22.942-2.699 33.999-1.504 12.489 1.35 22.884 7.996 35.265 10.123 15.274 2.623 47.673 4.244 47.673 4.244s18.776.39 28.081-.653c16.334-1.83 34.779-.487 48.326-9.795 2.339-1.608 2.82-1.84 4.782-1.88 2.93-.061 3.068 3.48 3.569 7.299.608 4.634-1.448 6.642-4.898 9.795-2.089 1.91-2.635 1.917-5.182 3.15-2.017.977-6.108 1.88-6.108 1.88s.869 7.383-.755 10.489c-1.815 3.468-5.563 5.782-9.14 7.371-8.429 3.746-27.329 4.344-27.329 4.344s-61.899-1.984-94.04-7.184c-9.277-1.5-18.12-5.226-27.428-6.53-14.458-2.026-33.096 4.753-43.754-5.224h0z"/><g fill="#fff"><path d="M226.311 108.73c1.148-3.608 3.924-5.401 6.811-7.85 5.16-4.379 14.987-7.171 22.985-9.212 9.711-2.478 19.844-3.086 29.855-3.557 10.278-.483 20.838-1.577 30.858.763 6.248 1.459 13.229 3.277 17.464 8.098 1.753 1.996 3.056 4.581 2.393 7.603-.651 2.965-2.106 3.742-5.271 5.891s-9.738 4.265-14.124 5.192c-9.4 2.107-18.562 5.749-28.168 6.465-14.01 1.044-28.479-.177-42.484-2.424-4.144-.665-8.5-1.205-12.165-3.252-3.266-1.825-8.768-5.786-8.154-7.715z"/><path d="M121.025 105.036s24.655 14.499 38.328 18.009c9.412 2.417 19.419 2.766 29.092 1.847 14.086-1.339 27.063-2.233 36.833-12.468 4.669-4.892 7.979-9.791 6.465-16.162-.422-1.778-.413-4.888-2.26-5.35s-23.161-2.083-36.42-.191c-16.452 2.347-31.606 10.823-48.025 13.392-7.914 1.238-24.012.924-24.012.924z"/></g></g><path d="M314.895 114.548c0 .857-18.226 7.629-34.938 7.184-11.461-.305-14.589 1.162-15.438-1.525-.219-.694-.502-2.635-.483-3.811.127-7.783 6.399-18.405 13.675-24.09 3.62-2.829 8.995-3.119 13.276-3.704 14.294-1.957 23.909 11.517 23.909 25.947z" class="B C"/><path fill="#0446fc" d="M17.243 251.696l.227-9.213s3.269-1.65 5.029-2.099c2.495-.637 7.683-.806 7.683-.806s5.913 5.632 18.626 13.849 45.85 16.141 69.55 21.224c18.883 4.05 34.753 7.461 54.056 7.127 15.745-1.077 31.418-2.669 44.086-7.549 5.28-2.086 18.062-8.219 18.062-8.219l14.166 5.98c13.113 6.923 13.893 11.682 24.588 21.182 5.296 4.7 14.694 15.34 14.694 15.34l-271.375-2.82.609-53.996z" class="B D"/><g class="C B"><path fill="none" d="M84.727 214.915s2.63 7.644 5.668 10.901c4.344 5.053 12.316 7.535 12.316 7.535" class="E"/><path d="M210.08 121.078s-15.287 3.755-29.714 3.755-22.819-2.889-22.819-2.889c.071-14.425 16.151-28.096 28.207-27.968 6.811.073 13.645 2.789 18.092 7.071 4.972 4.787 5.41 12.46 6.234 20.031z"/></g><g fill="#fff"><ellipse ry="5.08" rx="4.156" cy="106.258" cx="176.252"/><circle r="7.158" cy="113.579" cx="191.447"/><ellipse cx="175.641" cy="117.966" rx="3.337" ry="3.232"/><ellipse cx="280.092" cy="103.11" rx="3.087" ry="3.773"/><circle cx="295.197" cy="107.818" r="6.015"/><ellipse ry="2.45" rx="2.529" cy="113.95" cx="280.65"/></g><g fill="none" class="B C"><path d="M308.805 208.808c-7.4 3.695-26.895 7.023-40.44 7.289-22.226.437-43.323-.34-65.469-2.286-13.771-1.21-31.304-10.62-45.067-11.913-10.64-1-33.039 2.312-33.039 2.312M60.941 74.461c-4.943 8.009-5.684 20.969-8.24 31.365" class="E"/><path d="M194.475 23.861c3.812 6.295 5.941 13.735 3.034 24.892 7.79 5.041 5.034 7.971 9.109 13.838"/><path d="M290.814 48.263c-2.827-.987-9.524-3.607-14.533-4.069-26.248-2.423-50.011-2.021-79.262 4.396"/><path d="M197.38 48.585c-13.237-6.028-18.542-12.275-41.784-12.168-21.368.098-43.292 16.244-50.105 21.465m188.833 81.251c-13.993 2.603-24.944 5.353-43.656 3.114m-12.18-6.312c3.435 2.082 14.527 5.467 20.408 14.041m-31.51-39.428s1.908.336 2.857 1.796c2.337 3.595-2.983 8.354-6.204 11.184-8.505 5.55-18.214 6.313-27.145 7.29-15.792 1.728-32.148 2.522-47.547-1.249-9.882-2.42-27.428-13.388-27.428-13.388"/></g><path fill="#5a8d3e" d="M226.06 113.507c.833-1.056.911-1.476 2.102-1.551.979-.061 1.92 1.219 2.143 2.224.163.737-.3 1.525-.735 2.143-1.058 1.504-4.306 3.449-4.306 3.449s-.037-5.209.796-6.265z"/><g fill="none" class="B C"><path d="M121.714 104.711s-9.015-.039-12.857-2.898c-1.823-1.357-3.382-2.107-2.612-4.245.798-2.215 3.583-3.39 5.877-3.918 4.71-1.084 8.941.076 14.53-1.633s12.805-6.45 18.122-9.469 5.68-5.631 13.835-8.507 20.12-1.136 20.12-1.136M121.918 85.16s8.956-2.859 13.166-4.911c6.915-3.37 12.603-9.032 19.674-12.06 7.167-3.069 14.879-4.973 22.608-5.997 8.219-1.089 19.22-.679 24.873-.102 5.412.568 14.029 1.761 18.289 3.348s4.998 5.135 4.245 7.184-2.76 1.255-4.49 1.551"/><path d="M230.57 90.874s1.345-2.15 1.306-3.347c-.122-3.723-2.913-7.238-4.735-10.122-2.363-3.741-7.641-2.87-9.796-3.918m11.928 6.416s18.147-5.656 27.827-7.151c11.206-1.73 22.67-3.02 33.959-1.959 11.617 1.091 22.264 4.832 33.382 8.374 4.378 1.395 9.802 5.4 9.802 5.4m-98.43-15.941s23.108-6.531 35.001-7.302c12.854-.834 26.13-.546 38.53 2.939 5.764 1.62 16 8.163 16 8.163m-153.108 81.846c35.703-12.027 38.912-21.541 45.987-27.663" class="E"/></g></svg>