<svg width="74" height="74" viewBox="0 0 74 74" fill="none" xmlns="http://www.w3.org/2000/svg">
    <path d="M37 0C16.569 0 0 16.569 0 37s16.569 37 37 37 37-16.569 37-37S57.431 0 37 0z" fill="#FF00D6"/>
    <g clip-path="url(#n35etx6fqa)">
        <path d="m54.815 46.441-5.943 6.137a1.38 1.38 0 0 1-.46.312c-.173.073-.36.11-.55.11H19.69a.709.709 0 0 1-.378-.109.672.672 0 0 1-.255-.29.641.641 0 0 1 .129-.718l5.947-6.137a1.38 1.38 0 0 1 .458-.312c.173-.072.36-.11.548-.11H54.31a.71.71 0 0 1 .378.109c.113.07.201.172.255.29a.643.643 0 0 1-.128.718zm-5.943-12.357a1.38 1.38 0 0 0-.46-.312 1.426 1.426 0 0 0-.55-.11H19.69a.709.709 0 0 0-.378.109.672.672 0 0 0-.255.29.642.642 0 0 0 .129.718l5.947 6.137c.129.133.285.239.458.312.173.072.36.11.548.11H54.31a.71.71 0 0 0 .378-.109.674.674 0 0 0 .255-.29.643.643 0 0 0-.128-.718l-5.943-6.137zM19.69 29.676h28.172c.19 0 .377-.037.55-.11a1.38 1.38 0 0 0 .46-.312l5.943-6.137a.643.643 0 0 0 .128-.718.674.674 0 0 0-.255-.29.71.71 0 0 0-.378-.109H26.14c-.19 0-.376.038-.55.11a1.38 1.38 0 0 0-.457.312l-5.946 6.137a.641.641 0 0 0-.129.717c.054.119.142.22.254.29.112.072.244.11.378.11z" fill="#fff"/>
    </g>
    <path d="M42.855 43.169c-5.421 4.83-10.935 8.469-15.445 10.46-2.26.996-4.22 1.558-5.762 1.676-1.56.118-2.52-.224-3.036-.804-.516-.58-.747-1.571-.45-3.108.294-1.52 1.077-3.401 2.327-5.532 2.495-4.251 6.743-9.31 12.164-14.141 5.42-4.83 10.934-8.47 15.444-10.46 2.26-.997 4.22-1.559 5.763-1.676 1.56-.119 2.519.224 3.035.804.516.58.747 1.57.45 3.107-.294 1.52-1.077 3.402-2.327 5.532-2.495 4.252-6.742 9.311-12.163 14.142z" stroke="#fff" stroke-width="1.8"/>
    <path d="M54.5 25.5c-4.5 13-25.5 28-33.5 28" stroke="#FF00D6" stroke-width="1.8" stroke-linecap="round"/>
    <defs>
        <clipPath id="n35etx6fqa">
            <path fill="#fff" transform="translate(19 22)" d="M0 0h36v31H0z"/>
        </clipPath>
    </defs>
</svg>
