<svg width="74" height="74" viewBox="0 0 74 74" fill="none" xmlns="http://www.w3.org/2000/svg">
    <path d="M37 0C16.569 0 0 16.569 0 37s16.569 37 37 37 37-16.569 37-37S57.431 0 37 0z" fill="#fff"/>
    <path d="M35.41 57.91V17h2.62v40.91h-2.62zm7.558-27.822c-.149-1.396-.777-2.483-1.885-3.26-1.098-.778-2.525-1.167-4.283-1.167-1.236 0-2.296.187-3.18.56-.884.372-1.56.878-2.03 1.518a3.692 3.692 0 0 0-.719 2.189c0 .682.155 1.273.464 1.774.32.5.75.927 1.294 1.278.544.341 1.146.629 1.806.863.66.234 1.326.431 1.997.591l3.069.767c1.236.288 2.423.677 3.563 1.167 1.15.49 2.179 1.108 3.084 1.854a8.224 8.224 0 0 1 2.174 2.7c.532 1.055.799 2.29.799 3.708 0 1.917-.49 3.606-1.47 5.065-.98 1.45-2.397 2.584-4.251 3.404-1.843.81-4.075 1.215-6.696 1.215-2.546 0-4.757-.395-6.632-1.183-1.864-.788-3.323-1.939-4.378-3.452-1.044-1.513-1.609-3.355-1.694-5.529h5.833c.085 1.14.437 2.088 1.054 2.845.618.756 1.423 1.32 2.413 1.694 1.002.372 2.12.559 3.356.559 1.29 0 2.419-.192 3.388-.575.98-.395 1.747-.938 2.301-1.63.554-.703.837-1.524.847-2.461-.01-.853-.26-1.556-.75-2.11-.491-.564-1.178-1.033-2.062-1.406-.874-.384-1.897-.724-3.069-1.023l-3.723-.959c-2.695-.692-4.826-1.741-6.392-3.148-1.555-1.416-2.333-3.297-2.333-5.64 0-1.929.522-3.617 1.566-5.066 1.055-1.45 2.488-2.573 4.299-3.372 1.81-.81 3.861-1.215 6.152-1.215 2.322 0 4.357.405 6.104 1.215 1.758.799 3.138 1.912 4.14 3.34 1 1.417 1.517 3.047 1.55 4.89h-5.706z" fill="#000"/>
    <path d="M42.855 43.169c-5.421 4.83-10.935 8.469-15.445 10.46-2.26.996-4.22 1.558-5.762 1.676-1.56.118-2.52-.224-3.036-.804-.516-.58-.747-1.571-.45-3.108.294-1.52 1.077-3.401 2.327-5.532 2.495-4.251 6.743-9.31 12.164-14.141 5.42-4.83 10.934-8.47 15.444-10.46 2.26-.997 4.22-1.559 5.763-1.676 1.56-.119 2.519.224 3.035.804.516.58.747 1.57.45 3.107-.294 1.52-1.077 3.402-2.327 5.532-2.495 4.252-6.742 9.311-12.163 14.142z" stroke="#000" stroke-width="1.8"/>
    <path d="M55 25c-5 12.5-24 27.5-32 27.5" stroke="#fff" stroke-width="1.8" stroke-linecap="round"/>
</svg>
