<svg width="74" height="74" viewBox="0 0 74 74" fill="none" xmlns="http://www.w3.org/2000/svg">
    <path d="M37 0C16.569 0 0 16.569 0 37s16.569 37 37 37 37-16.569 37-37S57.431 0 37 0z" fill="#fff"/>
    <path d="M49.727 21h5.203L44.102 33.946c-3.921 4.686-10.28 4.686-14.203 0L19.066 21h5.208l8.226 9.835c1.199 1.426 2.814 2.226 4.497 2.226 1.683 0 3.298-.8 4.497-2.226L49.727 21zM24.207 57H19l10.898-13.026c3.922-4.686 10.28-4.686 14.204 0L55 57h-5.203L41.5 47.086c-1.199-1.427-2.814-2.227-4.497-2.227-1.683 0-3.298.8-4.497 2.227L24.206 57z" fill="#000"/>
    <path d="M42.855 43.169c-5.421 4.83-10.935 8.469-15.445 10.46-2.26.996-4.22 1.558-5.762 1.676-1.56.118-2.52-.224-3.036-.804-.516-.58-.747-1.571-.45-3.108.294-1.52 1.077-3.401 2.327-5.532 2.495-4.251 6.743-9.31 12.164-14.141 5.42-4.83 10.934-8.47 15.444-10.46 2.26-.997 4.22-1.559 5.763-1.676 1.56-.119 2.519.224 3.035.804.516.58.747 1.57.45 3.107-.294 1.52-1.077 3.402-2.327 5.532-2.495 4.252-6.742 9.311-12.163 14.142z" stroke="#000" stroke-width="1.8"/>
    <path d="M54.5 25C50 38 29 54.5 20.5 53.5" stroke="#fff" stroke-width="1.8" stroke-linecap="round"/>
</svg>
