<svg width="100" height="100" viewBox="0 0 100 100" fill="none" xmlns="http://www.w3.org/2000/svg">
<g clip-path="url(#clip0_1250_1913)">
<path d="M50 100C77.7085 100 100 77.7085 100 50C100 22.2915 77.7085 0 50 0C22.2915 0 0 22.2915 0 50C0 77.7085 22.2915 100 50 100Z" fill="#2775CA"/>
<path d="M63.75 57.916C63.75 50.6245 59.375 48.1245 50.625 47.083C44.375 46.2495 43.125 44.583 43.125 41.666C43.125 38.749 45.2085 36.8745 49.375 36.8745C53.125 36.8745 55.2085 38.1245 56.25 41.2495C56.4585 41.8745 57.0835 42.291 57.7085 42.291H61.0415C61.875 42.291 62.5 41.666 62.5 40.833V40.6245C61.6665 36.041 57.9165 32.4995 53.125 32.083V27.083C53.125 26.2495 52.5 25.6245 51.4585 25.416H48.3335C47.5 25.416 46.875 26.041 46.6665 27.083V31.8745C40.4165 32.708 36.4585 36.8745 36.4585 42.083C36.4585 48.958 40.625 51.666 49.375 52.708C55.2085 53.7495 57.0835 54.9995 57.0835 58.333C57.0835 61.6665 54.1665 63.958 50.2085 63.958C44.7915 63.958 42.9165 61.666 42.2915 58.541C42.0835 57.708 41.4585 57.291 40.8335 57.291H37.2915C36.4585 57.291 35.8335 57.916 35.8335 58.7495V58.958C36.6665 64.166 40 67.916 46.875 68.958V73.958C46.875 74.791 47.5 75.416 48.5415 75.6245H51.6665C52.5 75.6245 53.125 74.9995 53.3335 73.958V68.958C59.5835 67.916 63.75 63.541 63.75 57.916Z" fill="white"/>
<path d="M39.3752 79.792C23.1252 73.959 14.7917 55.834 20.8337 39.792C23.9587 31.042 30.8337 24.3755 39.3752 21.2505C40.2087 20.834 40.6252 20.209 40.6252 19.167V16.2505C40.6252 15.417 40.2087 14.792 39.3752 14.584C39.1667 14.584 38.7502 14.584 38.5417 14.792C18.7502 21.042 7.91666 42.084 14.1667 61.8755C17.9167 73.542 26.8752 82.5005 38.5417 86.2505C39.3752 86.667 40.2087 86.2505 40.4167 85.417C40.6252 85.209 40.6252 85.0005 40.6252 84.584V81.667C40.6252 81.042 40.0002 80.209 39.3752 79.792ZM61.4587 14.792C60.6252 14.3755 59.7917 14.792 59.5837 15.6255C59.3752 15.834 59.3752 16.042 59.3752 16.459V19.3755C59.3752 20.209 60.0002 21.042 60.6252 21.459C76.8752 27.292 85.2087 45.417 79.1667 61.459C76.0417 70.209 69.1667 76.8755 60.6252 80.0005C59.7917 80.417 59.3752 81.042 59.3752 82.084V85.0005C59.3752 85.834 59.7917 86.459 60.6252 86.667C60.8337 86.667 61.2502 86.667 61.4587 86.459C81.2502 80.209 92.0837 59.167 85.8337 39.3755C82.0837 27.5005 72.9167 18.542 61.4587 14.792Z" fill="white"/>
</g>
<defs>
<clipPath id="clip0_1250_1913">
<rect width="100" height="100" fill="white"/>
</clipPath>
</defs>
</svg>
